<mxfile host="app.diagrams.net" agent="Mozilla/5.0 (X11; Linux x86_64) AppleWebKit/537.36 (KHTML, like Gecko) Chrome/125.0.0.0 Safari/537.36" version="24.7.8">
  <diagram name="Page-1" id="BWQQIV_GPmqXqDOmRM0d">
    <mxGraphModel dx="1364" dy="879" grid="1" gridSize="10" guides="1" tooltips="1" connect="1" arrows="1" fold="1" page="1" pageScale="1" pageWidth="850" pageHeight="1100" math="0" shadow="0">
      <root>
        <mxCell id="0" />
        <mxCell id="1" parent="0" />
        <mxCell id="JGYHLKv5RpeEDjRzqiRQ-1" value="" style="shape=image;verticalLabelPosition=bottom;labelBackgroundColor=default;verticalAlign=top;aspect=fixed;imageAspect=0;image=data:image/png,iVBORw0KGgoAAAANSUhEUgAABYAAAALhCAYAAADmXgBfAAAABHNCSVQICAgIfAhkiAAAABl0RVh0U29mdHdhcmUAZ25vbWUtc2NyZWVuc2hvdO8Dvz4AAAAzaVRYdENyZWF0aW9uIFRpbWUAAAAAADIwMjTlubQwOOaciDI55pelIDEy5pmCNTbliIYyN+enklG6eDsAACAASURBVHic7N19dBvnfSf6L0iKIkaUCHIcC7bISF3RykvtEKlXbpPSke/29Fq2GshVlDZub1Vs1PacHLuN0tN17fRls2+O69tN1F2nvnd71EW1dd00qmIxq1jp2d7KNuOmdrcdxT5uQtONGJI2HXsoUqYGpPh2/yAf6MFwZjADzBsG3885PCTxMngADIeD7/zm96R+4dfuXwUREVHIzhRP4mDhCI4eOowTp0/h6KHDUQ/JsxOnTwFAxdjl5+L2eZnvI5YpfrYjv3Z2j2W+Xl6m/Lv5Odgtv9rjBc1ubPJzqHYbq+csL9/q/bN63k6vRT6fx8HCkfLvbl+7Wq8zvz6yasuzGz8ADA0N2a47+XweQ0NDFfeRf6/XCzt34vVMBpOZTPmyltFXsdJ/E1pGX0XLq6+i7dzTts+xltfb/PpZrQt+PU83f4vy++C3atsXYG07LfNjHH6vJ3F7vLjzuk6Zt2Uy87rqZpni8QWxbKdtm1i201iSSv4b5Hpsz2r9i9v6Im/nxT5wVM4UT5b/pmRuL/MD1+c1VttE8/9et5zuK64T65342eoy4Np+XrVl17Mei+W5WcfE+iL/P7D6mzdf52Zf1en/l9Pj1cM8xrC2BykGwEREFIUow0SnMM/L/ezCWqfrxGVOj2kVuMWFXZgMbAyLAPsdfK87UuL28mN7+QAlPuwA1u+j1Xpo9f7Y3cZp/ZGfq1OA7OWAgcwq+La6j9dlVzuwIO+4e2U3VqvnduL0Kez/5C8BAL7+7DP45Q8MWC7P6u/O7Wth95o6qeXDgF1Ab16v5Q8FgD8flL1uV8wfzPwKf8UywxD24zUC8ZrsPXsWt9x8M/aOjWHHzIzj7Z0CYPlDu9P23sxqmdW2oXEL9MIQxEGYpJD/vr+0bx/2XryIl774n23/RyeR+H9h97/Db/L/A6uQzevjcn0O7r0KgjlIFWrdLsvrrHm51YLcpDB/RggaA2AiIoqE1T99L+rZqXdTDejHhwY3oV4SPpyYgze7nTc7XnbqvAbA5oqbajuSbqoyrcbiFAq7fX61hJBuKsDt2IXg5seuNi6n51fr+Px47la3NT+u1wNQXitBqv1d2x0A8PuDTq3bl6irD53+/txwE042q8Kjj+KeJ54AANxz4YLjbd2sx9W4DW+tliUfAGw2DIDtyevF/k/+En7rs5/F9PAwAOeKQnk9tKuItDrgIN4LcyWkVWWkU7WkvJxa1VohWo9a1z2794Hr8hqr16eW16bWwopaluXHQbl6PwcmEQNgIiJKLDf/+N2EV1aX2y3LqVLXDTdVonZBWpI/uMoVKEDtYY0XboNz8ynKou2I+B1ARSsS832qBcJ2IaT8WG4rgN0811oqhK2ek10lt11lrF3oWy38tVLr83e6XizXTaDtxG69Mq8zQOUHNC9BezXmU3P9qDKuVz3V3jK3Bwtk9WxPWAFsr9aDDLWGwV6DAqttDlBfaBYH1Q5cWu0zMAS2Zv4/22gaKQCuZ51jAFxdIx+sZAhcO3O7tTAwACYioki4De/cVBD6Wanr9XEavXrXL7WEbfUwV0u6qQSW2fW49dqSwa6y1Eq1HV0vr5/Tem93oMLqdlaPbdWOwHxZz+Agig884Pg8qj2eVXW0l2pcp+foZR20CvntXkMvlVu1HPyx6svopTo+KH4FwDI/qkqpNlan7ro5yFPLtlZ+vHpCAvN4G5H5f4BVZbPd/ypZMwcmMvHa7H7wQfTcfjtePHAgsH61QfHjb8KuN6rXXqdW/Dwbxaq3MK1p1IOV9W7bm/3/vNU+cNAYABMRUSy4PT08iLYMfoTIzcwcioVdAez03lWrAJZ/t1q2vBw364k5CPcjFK82Hqvby7dzu2xzYCmHkfIO6mQmg6cGBnDfM8/U9DycHtvN/eTLzfwOfmvZNtSzLXH6UO80/qC5CYDtDo45nZVhxy6MNP9c7Tq7y5pZtX68dhMCJU1Uz9PtpEdO13N9XiO/Pj2Dg+X2D26Zz7So1tvW6swM88E6u+2TeZmAP+GvPJa4YwDsrzj8b/MjAK6nFYUbfkzi5mbbYHVbwHk9N29/gOAPcjIAJiKihuE2vGWYGz4vLQrqYRVUug2Aa3kct+uRXVsDUTUqt5moJRCTH8PuttVaIHitbg/q1Lx6Wj7U2h7ATbsLp8dx4rYC3Mvyqn1gCXv7Vm2CR69hvN347U5r7hkcdBxf9/r1l9YDoO7BQVwaHq4IhKL+oBwX8gfOP/r2BXztt3+n4nq/epT6QT61389xmQPfKAJggRNn1U68bj2Dg9j90EP4neXliEfkXq0TaMl9igGuC0kSlyrgasGm+baCm/XYfODNyxwhdgcQrEJUM7fbWacgt15Wz7XaAdkgMAAmIqLIWFVIsjq3MYUdALsJ/s3tC6yWJXMT1HpdD53GUG/7Bi9hr9uKaavxA+4+kNTz4cVNUC3f1m2bDDMvAXgU7KoD4zABltUkR3bsqnrcPAfz49w5O+t4++nh4Q0B8fTwMKafew6vPfIIgOg/UMdNPp/H488+i6cGBvCNrq4N14tqSvn7j/7BcbS8+ioAYOWmmzbcZ+Qrp/De3ED5Oqfbtrz6Kn6wdRuuy27HyFdO4f2dW7DS3w8A+MHWbbj+ncv44Pvejxd37cKOmRncODODb0xMYPq55wAA/Q89hPb/+l/QMvpqTc/fqqWEWGeDDMDtwjs3VaTy9bRGDoC7Bwdx77334raxsYhH5V4tFX+NWv0ri0vQGRdxqYy2q4avNib5rDGzWoJXqzHVw+r5VBufm7OK/KhcrmVeiXoxACYiokg49VyNOugg98KuQrGqABacAmGnYNWP0/7dcPM4drexun0YfzNhTtBRywEEu4rgRt62xPkUfDe9WO0+BFq99uZATA4cZaKS9/Fnn8WnPvIRVx8Wdz/4IO699178x4GB8hhoY+hk9X59cmwML738cvl9aHv669j+oQ/jzb99His33YS3p94EgHKAu+fjh/F3nz6GD91/H76jXcB7cwP4qRt3YGiLUg6GRbArrjd//8HWbbjxK1/Gy9kb0XP77Xjt85/Hf3r4YfzP1yfxwfe9H08++STuvfde/OF99+FH/+A42p5+uu4AWKwT5u1skD2H3VT4mzEAtia/jo8/+yxe3LkT91y4EPWwPPE6gVajB8BclzdyGwBXq26tFkZaBbzVxuW1X7QdvtfW7AJ2BsBEREQUS069OoPgNgC2qy43B5puqm3rYTWJmhWn4FJ+PkGO1Wn8cePUCsSq0jrokPxg4QhW+m+qCKTMvzc6u+DBzwmXzNW+O2Zmagp08vl8eWKo6eeewxc//GG/hpgI4j3be/YsXvv85zdM6DiZyQBYe/0Ljz6K6eFh26ow8ynAbvppm6ttrXqxO439wJ8/iaW77kbHp3/V0/N2U6Fm1cver22HvD31UgUp/199amAAe8fGsGNmxpcxUTTstptOB2asxPH/sxMGwBvFoZdvUJL83PwQRQDcFtiSiYiIKPHMOy9h7uiZQz2noE9c59QCIAgHC0fK47Frd2K+XgTV8njNtwEqJ9+TKynlispqY3Pi9gNomKq1jLE7OBBk+AsA83/wXy2vr+c0dbePH0bPVqt1wW3wa3fapViGvM2YlMLeegKu8vIPHEDP4CAm7767Ynkv7NyJHbOzTRuiDQ0NofDoo7jl5ptx55e+BJhOm5dfF1F9Ld5Dc5sEQb7MXOUqyH+r4jov4a9w9hP3rh1Yq3I7pwp6eb2zOsVXPnjnFzGWeg+aTHZ1Ne26K7Oq+G+UFhB2p577+X/XacI6uzEwrAtfkl/zJD+3RsUKYCIiIqqLVa/ZoDhVAJvHYw4LrZZlvl/QFcDy48of9MzVdXI4Yg535fu6CXutlul27OL+cWFVWVjt8iCYK6NFxaRsx8wMvrRv34aq4Lanv772s0Vv1JX+a5e1Pf11tJ172tVYgGD7BFutC25mw46aXAn8ya1by6HZl/btwz0XLjR9iDaZyTieNm9VneRmwh0rVn2tnWZPtzpIIPd8veeJJ6D/28oJ7ASrbat5W2nX19EsiEl6nMZhh31TN5Lfm9++cGHDQZ1aJoRyWi/s3gMv/VLtxl8LrgtEja/W+RJqxQCYiIiI6hb05G9mTpO/2VWHmu8vn4Ys/+w3q56u1SaEM0+iJaqCzTPXm9tLVHsfzMt0GrMQ1w+Zblo7VDtYUCu3rTEmMxlMrk+y9Y//9AoAYOmuuytCYTFZVvn30VHpZ3fVw0E9T1kcDwi49cLOnQDQMNWBYfHaN1JcLv/udJlT38lqYZrTmHsGB/Gh++/D2U/cW7UXdbUxWT2u1QEzPw8sie2HlwMm4nnf88QTDdfnNijy6zeZyTT9AR0iaizm/wFhzFfBAJiIiIjqEtVEYdWCPzeBqF3P2CC5mQDRadxOrSS8BPHmdhLmIOVM8SR++8IFXPja0IYg0u/A34/K0aCDYHOl9SfHxuruxelXkOT276KexwEaL/yNW0VyHNTSe9auItd8G5nTZVb9hJ1Yhc1iwkAzu0pfpwmQ3ITc8nP14+/WPD43Co8+inueeII9gC08NTCAG2dmeJCHiBqG1f+aoD+DMAAmIiIiz+S2BFGEv+J3wS48rbVlgJ+zwDu1pJAvs6o2s6oOMC+jVk5V1MLVX/01tD39NFpGXw29ytsvbluFeCHCcb/DhlrHYtVP1c2y7CZLNP/cqKefN+q4g+ZmIiY/J/erhVNQ2zM4iL1nz2J6eBjTzz0HALj33nvx5JNPYs/HD+PpW/+l4zLFz2ZObSDk8fgVANeyXj41MFD+mUEwEVHjYgBMREREDSPM8NfMagep2uzzADaErKK1glVbBL8nAZLDtmqtIMwBtNwSotpEaE6sAhWxfPPzrOX9rRa2uh1XGOrpFxzkui+/z+b1wK73s1VY5mc/7nqD1KgrcaN+/Lj60r59AIC9Fy+GWjnpV8/opwYGsHdsDJNdXXg9k8FLL7+M69+5jKW77saLBw6UK4T9fu+tWvJYsZuc0Y8WO08NDLAVBBFRA2MATERERLFj1XvWqi9imOwCYPk6u7YITlWN5gDWrwDYrk+xmdN4nW4jOE2e5DTZkjmYFj9XCye89uG1GneUVZrVqrKtnpdV9V7Yk4pZnbLu5b1y811+HKHaY3idFCxoYjy7H3wQ/Q89hB0zMwzNJKJHtXnyrEZl1x7CS7uLWh/TvD21m5yzlsnCiIiC5NdBUh5s9cbqbBwGwERERBQ5u9PKzZOVhcEpdKxlMjTzssVyzJfVw204bUV+vuZqZbtw1aq/prm/pXyZVfWvfL3VmOyeZ7XJ98yirCS349RTd6X/JrwydwX33nsvbhsbK5+SHVWw6GeYZBfg1lqt6Velpx84EVzyiTMaXs7eiEvDwyg+8EAo6555m+r0uyzqvwkiIoDtkqLCCmAiIiKKLTmElCuCowiBgY3Vunb9T720R5BZBaZOzFXS4jK53UO16kqr4MBuEiZz5Zk8Zq/cVrpWC37l36vdx+px4hAUVvOZ55+vqCZ9YefO2IeKXibcshP394VIrN97z57Fa5//PKaHh31fb91MducW/6aIKA6czhij4DAAJiIioliTWycIUfcBtgqAxfVeWlRY7Yg5fbC3CmytJnUzT7RlDoGj3tG2anngVPEtLq9W5VutNYS8TKvWG+Qvu+CqWpsQokZhdXDMfJ2fj+H24Jz5u3lsRERRcyoq4P5AMBgAExERUWxZTVwT5odZeQfUzWRqUfQntmrL4FSNHPVOtfw6Wk0wZ76dVcBuFRLbtadwatshj4OIqBb5fB53zs5W9ORm6EpE5MzNWWlulsHtrHtR9ABuC3TpRERElGhh7ujZVVmZW1BU23kKawfVKYCudwx+PwerZYkKZsC+ItjqtRaXOVUWm28rtxV5YedOvLhrF/ZevBj71gpEFA27UHdoaAiFAwdw3wMPVNyOiIjsWbXhkve7/WglRdbC/CzFAJiIiIhc8doTN8hxxLWXqdtJ3US1ba1j8es5mMfrZfI2t+T7mit95ZYiRw8dxtFDh/EfJiZwJ4Ads7M1PyYRJZ95Oyj3AJ7cuhU7ZmYYWBAR+YBto4IjXrugq38BIHX+/Hm2gCCiRLA6dSWMDSlR0lm1fpBpGQ3FnUVoGW3DdYWLBRTGCkEOD4C7HU+7Cdbq5aYfrsxNH9048trb14l54rfdDz6I37j77vIp20RETpz6/H7m+efxxQ9/eMPlDCiIiChOzP/L2AKCiMgDudKD4S+RPw4Wjjj2ZtW6NGgZDYWLhY3XZTQghLP43XyotzpV2A/mnrfViNvGOfw1Px+xPV3afxf+6NsX0ALnINtu+yuvR/J99n3qUwDbPRCRB3aVaJeGh1EYHkZxvQ2E1W2IiIiiFEV/+pbQHomIKGDm0/zkqkUiqt3S6hLOnDmDv/j7v8A3X/smVlfXTh56Z/4djOnrod0UUBgr4GPf/Rj2/e992Pu3e/GBmQ9geWm5vJzPPvVZAMCVhSuYMa5Vev7xN/84vCcTIvPkb2eKJxtmu2Q12dvRQ4ex/UMfxt0f2VdxvfhZ3v6K28tfACzDXwAVEzYREblhVwW89+zZDbchIqLo1LstFn2IkyjM4jUGwESUWObJi4ioNm2pNhw8eBA/8y9/Bj+++8eRSqUAAFs7tmKnuhO52RxyHbnyZbP9s1h8/yK+nfk2Wttay8t5+J6HAQBbNm9BRsmUL//kj38yxGcTjCRvZ+Tn5hTUVqtgsHuNWJVHRH76RlcXpoeHox4GEVHshRGsym14an2soaGhxO4v2hVHBIEBMBElivyPQVTaNVqfTaK4cVO1qmU03LHvDtyx7w4cGziGYwPHUNxVrPkxZ2c34emnszXfP0xWR+ytLhM7r41SBWw2mcngS/v2RT0MIiJbQ0NDuHN2Fj2Dg2z7QETkQA5jgwyBxXY4ySFuPcKsbGYPYCJKLFEBTET1qTaLem4mh+MXjvv6mF1di7jrrilflxmUageYjh46XBFENOq2acfMDO65cMHxNjzgRkRhcPq/9OKBA5geHt4QNDAQJiK6ptr+PYWLLSCIiOogquz8mLGeqJmJv59qIbDdVy0yGQ0DA8eQyWg13T9s4jUS36163544fQr5fL5hKoDNzwlA1T69duGvvAxuj4moXlZhrvj9nieeQM/g4Ib7MPwlIrLHMDg6YRVQMAAmosQx7+CzIo2oPkcPHcbBwpHQPzxnMhq6uhojADZPmmanEU5/k0Nssf08cfoUJjMZPDUwgMlMpsoSNrKaNI6IqB4irJC/5/N5PPP445geHmaYQURURdz3SZtFWAVrDICJKHHEDn+jnmZNFDc8iOKdeSfOTRV1XFiFtfs/+Ut4amAgqiEREVWQQwv5Z7Hv9/izz264TyNsf4mIwsYQOHqsACYiqpH4J9Yop1kTxd2Z4kl+cHbJ685bI7RDmMxk8OLOndh78SLuuXChahuIWp9TI7wWRBQv5v9NRw8dRs/ttwPYGGow5CAioriwmrw+aJwEjogShSEVkf8OFo7wgIpHVi0hRE/gOFZUO41psqsLN87M4LaxMVfLqvW5xe01IaL4M1cC5/N59AwO4lPDwxtuy0ngiIgoLkRuIf4vhVEIkTp//vxq4I9CRBQiOQQ+WDjCSeCIfBJmQCcmgbt4sYCxsUJojxukOAa/MrfbSavn4Mdzk5fh5mcial7mD87yZXfOzuLFAwcwbQqBGf4SEVFcyP/H5Dk3gsQWEESUKFYVwAx/ifzBCnt7dtsZ+XJzcBnH17NapfeZ4kmcOH2q4nm5DWWrbYvtJorjBHJE5MS8LRXhrwh8G2HyTSIiag7y/6yw/zexBQQRJY44BVDGKmCi+vEDdH1EUCqfhhy3U5LF9tNuEk35cnMI7GRp/11Y+dVfAyZfBxC/50310Sz6Qmfns8hm5yMYDTUTsS2R9/v2nj2LFw8cAMD/W0REFF9h7w+zApiIEodVwET+Yw9ga/l8vmoFbD6ftzzaL4fAcSAOlNW7IyrWlTPFk1jafxde//jPYumuu/H21JsVp7uJ18X8+lhVGFv9TPGgZTQcm/kqjnV9seLrE/OPQ8toUQ+PEsq8HZW3W1btH4iIiKJm3ucP+yAlA2AiShR5Iyoq1cTES0RUn7gElbUIauzVdtyOHjqMg4UjGBoaKlf/mu8f5s5ftQBVtHgwXwZUbkvFz+YvAHj82WextP8u3Dk7i6W77sadvb34RlcXfmd5ecOETfJ38dqcKZ6sOODA7XcD2HkRhV0/hOPdP13+ws6LUY+KEkxsL6y27XvPnkXP4GDYQyIiIvLEXAARNAbARNQUWDVGVB8RYgbh7bfb8YUv3AQA+Na3evDyy9vwwAOH8Kd/+n+Vb/MXf9GLlRXg4kXF9XKdemyZq07rIYJdp+XFJTyvFqY6vcdiOyovw6rdzmRXF5buuhv3XLiA+555BreNjdku16p6z2kMDIPD97Vvf63id/2KvvFGY7uQm80hNyN9ZbqBi7sAAN9987uWyy4tlvDrX/l1n0dMzcBq2yGwApiIiOLI/D9L/j2MfVz2ACaiRJHDiDPFk7Z9LInIO7eTfXl13XVX8eu//ioA4Md+bBoAMDj4LAYG/hQXLxYAAD/zMxMAgF27DGjaCHK5PVWXWy2wrjfQtgp1q4XATo8Zh764Vv1/7fr+iuvkYFisI7eNjbl6PHHfM8WTlmdwUPQ++oGPVvyublErfl9eWQYA5GZylvcfujCE/ID130V6Uxpf+PgXfBgl0TXdg4PoHhyMxTaViIhIiLoghBXARJRYIkBg9S9R/K2uAu+8s3Zc+okn3o2lpRRef/2Gitv83u9txac/ncGxYz9R9+P5EQrI7RvEz1azzpuvsxKHoMJuDOaWDE5qOUBw9NDhiscV22zzd/PPFA+3Xr4VAFC8+L2KL+1CF7SMZhv+EtXD6kO0vB25NDwc+TaViIhIZvd/KawJ6xkAE1FiyX0riSjeUilg69YlAMDP//z30da2ihtvfKN8vaZpePrpcVy4kEGh8HxUw7TkdDqX2wAiyqDCTf+xoMZntX2W+wybb8PteTzlDl6AdvAPKr5yBy+wDzAFJm6TaBIREVUjF1vIEyIHdZalGVtAEFHisWKMqH5RH1ApFj8G4FUAJwH8M4BCJONIIrEDKr6LsyfEe26+3MqZ4klf1o2wdoDJX8cvHI96CNSkrA5O9dx+Oy6xBzAREcWMeZ/b6gy4ILECmIgSxeqDAMMEovoFOQlcNceO7Yam3YBC4WUcP/5BFAoFVn0FRLzHXnryOk0K55a5j7B8GQ/ihadtbg5tc3NRD4PINbHNkSfinH7uuSiHREREZMm8nxz25xkGwESUKPJGlJMIEfkriiDuX//rj62Hv3+IQuEDyOW2Aoi2ZUKjkgMS8w6nqEQAKsNfORAWxM+i6td8Optbdj1+nVpAkP+mpjrKPy91dmKps7PqfYrFzSgW3w5yWESeie1Pz+23RzwSIiIiZ2J+kBOnT4V2Blzq/Pnzq4E/ChFRiBgCEwUrjB2UTEbDU0+N43Of+71y+Ev1s5voza8KBK8BsFzxa/6ZgqdpM3iyeCv+Tuv1eE8DQAnAMgqFH6BQ0AMYHZEzq+1ZPp/H7gcfxKXhYRQfeCCikREREW1kVYBh3h8OEnsAE1HihbVBJSL/FAqVlb9UP7vwV5CrgOXL3N7fS4jstE0W22yGwMHLZrPo/+H/iVXjOVxVFNO1KQCrpt/XaNqNAG5CLvf3yOV2AcgFPlYiK2K7Y3dgi2eLEBFR3MgTwImCtTAyCwbARJR4DH+J4u9d58/j7cFBrLa1rff8zeJv/uaHsGvXT2BsjAGwH6qFv25vU+v1ZuYdXXPoyxA4eNnsPH7t/3wfJg5djwyAVlX1uASvlcNEwRFhsJgAjuEvERHFibnYQlQAA5wEjojIM6sKNAYIRP7zeyflrTvuqAh/C4U/xB13jPv6GBRv5kCY2+5wlHYCqqpiFsCizlYO1Pj2nj0b9RCIiIg2EGemyJmFPM9G0BgAE1HiiIoPcToFK4CJGsO18PdxFAoDUQ+HAlTtNDeGv+HrUVXMAbjKEJgahF2LmhcPHIhqSERERI7MBWthzlnEAJiIEkOe3Z6TvxE1jqmpDhw71r/e8/dx9vxtMnLYy+A3Wt2qCt0wUGIITA3A3P9X/N49OIjuwUHfJrckIiLyU1QtihgAE1EiyJUfDH+JGsvUVAcABYXCVyrC32eeOY+xsUJk46JgnDh9qlz9y8A3fm7o64NhGLjCEJhiTv4APTQ0VP79tUcewWuPPMIewEREFGviQGVYZywzACaixBAhsNxHh+ECUfxls99BoXAS+/enypf9xm98AL/xGx/A/Dx3VRpZtTYPIgz2sq1mW5/gqX19WDIMzDIEpphjyEtERI3C7n9WWJkFP1URUaKYT/djUEAUHL/+vva8mcXdIzlkt2fLl/3+738bv//730ZHx4ovj0HxYFX5K//sZiZkHtgLR1dfH9oMA/OGEfVQiIiIiBqeVWsiTgJHRFQj81E1BgVE/vP7wMrlAWDspwwgVf221PicKn/F79x2x0NKVWFMTMBgCExERERUF3NWIdoXhVW01hbKoxARhexM8SR7ARMFJIhwjkekk8Wux2+1Cd+8toOgYCmKAvT2YnViAkZv79rvREREROSZuQI47Mnr+XmLiBJFbFQZ/hIFR57Eyy/Lvi6N4s4u5GX4Gz+KoiDV2wuwEpgaBPsCExFRHFn9fwpz35cBMBElCnf6icLjZwi86tuSvGGfcP+JA3HVdmj52jcOUQmc4qRwFBP5fL7iCwAmMxn0DA6i8Oij6BkcrLhOvs9nnn8ek5lMVEMnIqImJf4nie9hZxcMgIkocVj9S0Ru5PN5VpwGwO3OrNXkbxRfiqLAUBTMj49HPRSisr1nz6JncBAAMNnVhd0PPYTuwUF0r18mE70We26/Hb//9a+HPVQiIiIAMdfbcQAAIABJREFU1/aV7VqmBYUBMBElAit/icJ1pnjS152V5VLJt2W5dbBwxHI2XqqPHObavb7iNmHv+FJ9VFXFFUXBQgOEwJq2imPHgDvu2Iljx25AsfgOisXXUSy+gGLxGWjaBDTtIjRNg6ZpUQ+X6rD7oYcAALeNjeHFAwcAAD23346ewcFyRfALO3eWq35f+/zn0f/QQ3hh587IxkxERM3HLrPgJHBERB7k8/mKDSongSMiJ2KbweAxGOJ1tdvR5eveuFRVhQ4gNT6O9r6+qIdjS9M6oGmrAK5C07qhaT8BoBVr9S8tAFLrX2arAFZRKIyhUPh+eAMmT8S2ZXLrVry4cydw4UL58sKjj2Lfpz6FW554As88/jj2fepTeB3AjtlZAMD08DD2XrwY0ciJiKhZmQsj/C6oqSZ1/vz5qNruERH5SgQ6Yc+mSdSMzhRP+lp5f0XXsUVVfVseRePE6VOuev8yAG58uq4jA6A15n+3xeI3AfwQcrkflC9bq/htA6AA2AKgB8BmaNoIgB8GsA25nIpCoSOCERMREVFSmTOLo4cOswKYiMgPYW5QiZqJ321XVnxdGkXFTbDL8DcZVFXFtK5jm66jLcYhcKHw4+s/3Vi+LJfL2dz6A4GPh4iIiJpT1BXA7AFMRInG8JcoGPzbIq+4ziRPj6piDsBVXY96KL541zPPRD0EIiIiSqio5y1iAExEiXSmeDLqIRAlmt9/Y6wATr56KxwYIMdTRlUxYxgwEhACv7VvX9RDICIiIgoEA2AiSgTzJHCiBzBPNSaKP8MwGAATNbDr+/pQMgxcSUAITERERBQWc1uIIDEAJqJEEI3UzVgxRhSMoaEh3/6+uDNCbvCAXrypfX1YMgzMNkEIrGnzOHZsFsVid9RDISIiogYj5xZhtoXgJHBElAhWDdVFFTARBcOvQI4BcPKcOH2KgW0T6urrw5XxcZTSaaQVJerh+E7TWnHsWDuAPQA2QdMUFItp5HJvA5hDLvcGgLcBaMjluhwmmyMiIiJayzHCyi0YABNRIpgrgBn+EgXPr5CvBcBq/cOhGPGj3y8D5MaUUlWsTEzA6O2FkrAQOJdbxvnzJRSLX0ax2INcbh5AFzRtNwAVmvZeAAqAAwBapXsuIZd7C9nsLLLZJRQKya+SJiIiImd+nlHpBgNgIkoE82kUYR5JI6L6AjujVPJ5NNSoxHrE8LdxKYoCo7cXSGgIDACFwgeRy2lShe+V9S9A0zRomgbgOgB90LQsgG3QtJsAZFEozAJgAExERNTMosgsGAATUSLIFcAMf4kaSyuApagHQbHA4DcZRAicSnAIbNfeIZfL2Vw3gR1f+B7+934dbZezWNoW7PiIiIgovsQk9mFWALPtHhEREdXMj52WlA/jIKJ4URQFq729SDXBpHBOdv7Jn5R/nvz1TchmGf4SERHRxnmMgsYAmIgSRRxJO1M8GfVQiMgl7owQJZOiKDAUBfPj41EPJTJjv/iLUQ+BiIiIiJ+5iChZ2P+XqPGkwEngqLqwqySaVWp5Gb1f/rJvy1NVFVcUBQtNHAILy4YR9RCIiIioSTEAJqLEGBoaKn9nBTBRsOqZ9I2oFmIbT8FabW3FxM/+rK/LVFUVcwyB0ZrAXshERETkTVT7tJwEjogSRVSIsQKYKFhniidx9NBhX0LgJcMAGIwQRUbTMtC0MQAXALRjrUakBWv1+S0A0gC2rP++9qVpaWjazSgUvo9CobXqY6iqCh1Am66jVVUDeibxdUXXsaUJnzcRERFVEplF2JPAMQAmosSQTw8+UzzJEJgoRPUGwUo67dNIiMirc19bxd/99a24hAPrl5ibsqxIl4lpGxcB6CgWfwiaNo/jx39Q9XFUVcW0rmObrqOtycLQTdzGERERkSTs1pUMgIkoUUQPYCJqHOwBTAJbi0Rj/0fH8JGfuIA2/SWkFAWbXISzmmZA0xZRKOxALtfv+rF6VBUzug5F19HeRCEw++4RERGRjBXAREQ+OXrocKgbVKJmwn6sFASGv9H44A9nsPsL3Rj9zV3Q18PZVVWF4hDQ5nK1P15GVfGD8XF0Ao6PkSTzpRI62eqGiIioqckFa2FXAPNgNBEl0sHCEYa/RAE6cfoUq+3Jd1ynorG6CRj9zbU6fFVVkd6zByUA8yMjuKTrgTzm9X19KBkGLge0/DiZNwx0NknQTURERPai3NdlAExEiSI2qGKCKiIKhvnvq64DLqVSnaOpjgeEwiW2xV4PFDhVljMcDpeqqujYswcAsDI+Dj2AoFbt68OqYWA24SFwKoRtHBERETWOKM6mZABMRIkjNqYMfIiCJf+t1XPAZcWvATngAaFwidPZjh467NsOLtuORKNbVXFJUbAJwLKuwzAMX5ff1deHNsNAyeflxsli1AMgIiKipscAmIgSQ4QDopcOAx+i4MgHWOr9WwtyAjgeCIoGt7/JoqoqtqkqZgC8MzGBFZ8rdlOqipWJCd/D5bjYFPUAiIiIqOkxACaixJBPDz5TPBnhSIiaR9wDVgaRRP5RVRXb9+zBJQCzIyNY8ikIVhQFqd5eIIEhsGEYrAAmIiKiClG0NmMATERERDU7euhw7ENgajzs9xtvqqqia88ezAIwRkZg+BAEK4oC9PaiJWEh8FKphJZ0OuphEBERUZNjAExEiTI0NMQ+kUQhqrf/L5EVbscbg6qqUPbsQQnAwshI3RPFKYqCld5epBI0KVwH1sNtIiIiogi1RT0AIqKgiF7ARBSsekJgwzAC7QFshaE1he3cue3ln/v7r0Q4Emf9/XM13U9VVUBVYeg6FnUdl8VlNVAUBXqphNT4ODr6+mpaRpzMGwbaa3wtiIiIKNnOFE+GllmwApiIEkecOswKMqLgxS1Izefz5S/xu9mZ4km2rQiY1everG0dvvrVGzE62ln+fXR0i+1XlOSQulbdqorLWJv0bLmOKl5VVXFFUbAwPl73mKKWZvUvERERmYisIsyCNVYAE1FisQKYKFhxrKQVO1NyCCx+l4nexWeKJ3mwKCTVXuekHry75ZbLuOWWyzVX14ZnO86d245cbhbZ7DympjqQzc57Xoqo/NV1HRgZQbeqoqWGClhVVaEDwPg4NjdoJfC0rqMda4E4ERERkSD2e8OsAGYATESJNTQ0xCo/ogD5Ef6mACzDnx0SOUAcGhpCPp+vCBPly8T3M8WTPjwy+aGe4FfLaNC6NMvrcrM55GZyNS+72YjQN5udh6Z1IZebLX/3QrSF0HUd7SMjSKsq2jwGwSIEbtN1tDZgG4UOAClOAEdEREQ2wixYYwsIIkqcpFWPEcWVHwdYSqWSDyOxZg5/rb4DzduaIEhhboeLO4s4NnAMxV3FtSA4sxYE52ZzKO4qhjYOO/39c5G3d6iVCH1FCAyg/N0tVVWxdc8ezAIojYxgzmNrCFVVMQtgqQEnhls1DLaAICIiojLz55Mwi1FYAUxEiSP3/mQLCKJgyK0T6qkETvk1INQWOvKAUWNw027k/DPnwxlMDUZHO/HYY53VbxihUqnV8XpzGOy1MlhUBE/rOhZGRjCnqq4niutRVczoOhRdb6gJ1ZYDPMBFREREjSfKwhMGwESUWAx/iYJzsHBkQ4uFWrQAWPJnSJRgces17dX+/W9uuEyedM2v/sD9/VdquM8cRkc78dWv3uj6PuYwOJtdwNTUZmSzC1X7BvesB8GGrmNR13EZcBUEZ1QVU6Oj6NR1tPT2Qol5Za1hGOhooLCaiIiIwiNa0oWJATARJY7YmIbZUJ2IarMpncbbMzNI9/ZGPRSKkThOMFgPc8A7OtqJHTtKuOWWy3Ut19xaopZWE/WGzyIMFj2Dp6Y2r//uHAZ3r/cH3gRg2WWP32033oh3JibQqetAzAPgxVIJywDaox4IERERxY4c/oaVWzAAJqJE8aMikYjc8WNHRVEUbL/hhlCr+ZIWLiaR3fuTpPcunV6uO3yt9/6jo/62pZDbQchhsPk6QVT+6rqOlpERdKkqWhyCYEVRUFJVXNF1rI6Po7Ovz8fR+2vVMDxPekdERETNQWQWYbat5CRwRJQ4nNCJKHhniifLkxbUOxncsh8D8iApAWKS5PN52233f3v2v2FyZhJvz72NX1i/zeszr+Otd94CAKxiFZgCvj/9fbzwvRfwP771P9ZuM/s68HeA1qXhO1PfwfziPIZHh/Hdqe/ir175q/LyV7GKV954JeBnWL/Pfe79yOc/jF/8xb345V++Ff/m33wA//RPWzE/34r5eef+vVHI5WbLX8BaICy+zFRVRfeePbgE4J2RESw4TPimqipaVRULpRKuxHhiuFSpxAngiIiIqEKUE1GzApiIEiWKXjpEzURM/ibPWFtPoGoYhh/DqiCfCcCzAqIntsli+2z1fji9X7/ykV8pH2QQ69qNmWv9alNIAVng3T3vxrt73o3bfui2tdt03Qj8KICLwHuz7wUADPYPAgDek31Pxf3ff8P7fXimwfrc54INqdPp4A7FmCuD16qDO5DNzldcJyaK03UdKyMjuKqq6LKoolVVFTqAq7qOZQDbYlZpaxiGrxNcEhERUTLIWUXY2QUDYCJKFBEeMAQmCsbBwhGcOH0KBwtHKkLgeqz6spQ1VtsAq+2BUxhJ/hOvc7XX2+56Vm0Hb3S007fJ6JxcC3xny2GwuV+wCIJLuo6FkRHMqeqGieJECJzSdcyn0+iIUbXtfKmE9nQ66mEQERERlTEAJiIiopr4FZ4u+bKUSgx244PvRfyFEfxayeVmMTXVgampzZYTxvVIQfCiruMyUBEEixB4fmICK729ofYSd7IJwGpMxkJERETxFtYkcOwBTESJwupfomDJVb9x/FvzEjYymCRqDBlVxWUAK4aBq+PjmJN6/6qqimVVxUqM+gEv6joWox4EERERxY7V54+wJoFjBTARJQpbQBAF4+ihw+W/K79Px2dQQn44NnCs/LOW0aIbyOoq1G99C/qHPhTdGBJItIV4bWQE20olpHQdC6qKnvX2EDqA1fFxbO3ri3qo2ASglS0giIiIyMQqpwirApgBMBEljtiohnUkjagZiEm45KPWchB84vSpmoPhNE+VpjoUxgoojBWiHsY1qdSG8FfTKgPp0dGtOHXqJzE1tQzgGRQK/8rTQ1y92oL29hX8wz9k8CM/MuPpvpo2hVwu6+k+cbJ7zx7oosJW13EVQLsUAs/rOjoinBRO13W0A7FpR0FERETxxgpgIqI6hXUkjahZiAnggI1VwPVUBfs5CRwlXz0HG4KgaRkUi++Gpm1dvyQlfYnf91nc8wqKxZsBvBeaNofjx99w/Zjt7SvQtAwefXQPpqbaACwjl5vGWne3Rax11m4BsLz+czuAOQBXoWlrFbKFwkUMDnp8sjEh+gDrAEoASiMj2LQeAk/rOhBhCNwKIMXqXyIiIrJgdbYyK4CJiIgotsSOS719dFNgAEzexCn8BYCMMo5sVkcuB6xFknNYC11LAIBcrg1roWwJwFUAlwDcglOnbkF//3MoFLqRy/2LGh75IrLZF5HNtgHYjrXd+nZo2vb161vXv9qx1pTgXVgLhecALKJYVKFp7+D48Zqetq+mpjoAzHq+X3lCOFXFrK7jyvg4OlQVpVIJi7qOrRGEwCuGwQngiIiIyJL4DCVaV4bZvpIBMBElFqt/iYJzsHCkYkK4WoURAIuK0bhVjlIlsSPcSObGx9GtKjipb8Mrx1cBXL/+5Wx0tBPZ7Bbs339rzY+dy2Vw/IuZa4XGZW863q9YHEEu14pcbjdGRzuxFgg3vq71HsFzuo40gJZ0GiuGgZaQw9iWUgmLDICJiIjIggh8xT5vPp8PLbdoCeVRiIiIqOGdKZ7E0UOHfQ1RF0ol35Zlh6FvvPlVTR62d0ZGsKIo6FJVvPJ/ezuM0d8/h/7+K/UPYkP4W12hsAe53O4Nl5dKrfWPJwY6VRUdqopUqYQFXcfUVMd6hXHwDMPAJgAdbAFBREREFszVvkNDQ74U1QCwXI647EzxJCuAiYiIyB356LRfOypBMYeKjVhdmgTy+yDv8NZyulucKriXdB1z6TRuiHCyMXK2SVWxSVXxJ49PoH1hKz55bHPgjzlfKqEdwBZWABMREZEL9VYAi89kYhlOITArgIkoseIeUBE1EvH3dOL0KZw4fcq3U5WCOBItB4v5fL6i11ZYPbZojdzbTPxsvs4czFu9R3ELfy8DuKGvL+qhkAvbs+O4fv6/Y1bXA3+sFcMAWP1LRERENsz7vfVUAMv3q7aMoaEhVgATUbKE2USdqNmcKZ7E0NAQTpw+5dsyaziD3ZGXSt9GbT3QiMzBr9vbxin4BYBFXcc7AHp8qPwdHd1ie11/fzL68sbBT//0B7H4VBdmJycxDX/eOzurpRJWWRVORERENoLMKqrtYzMAJqJEYfhLFAx50jcRyMWxyt5rmMvwN57M4XwcQuBFXccc/A0Q7UJgcfnaJG3Buv/+a2FzWL1yZdnsPICuQB9j4dZNuPrGPDp0HUY6DSWAFg2GYaAdwJLvSyYiIqKkMBes1ZNfmCeUq4YBMBEREXnm18GWKKedYvgbP6LiN27vzaKu4wqAbh/D3/3733RxKze3qY8ImZNcdbygKGi54QakAKxOTMDo7fU9BC6VSkgDbAFBREREofGyz8wAmIgSh20giIJxsHAkdqfkUzKI6gU361bY66AIfzM1hr+jo504d257zY9vVQUcVFg7N5fMjwbpdBodhoEWAIaqojOAELilpQVzLS24nhPAERERUUhYAUxERES+Ev1/AZQngfOjBUQKa+EMNTcv1Qthhr9XdR0Gag9/gbWwVm6zEFfnzm0PpeVEFBRFgaHrWFVVdOg6lnt7kdJ1wMewdmVlBZu6u31bHhERESWP34VqBwtHXIfADICJiIjIFblK06+dF78ngaPG46aiV9wmzOpfP8JfoRGC1VIpyoYswVsB0AJgFWvbHUNR0DI+js19fb4sfzOAFh7MIiIiIgdWZysfLBypaVliv9htUQ4DYCJKHLZ/IPKf2DHxO4BjAExu1idxm0YMfwH7yd7iZHS0E+n0ctTDCMyComAbgEVVRUrXofb1QQcAn0LgTYaBzT72iCYiIqLmcKZ4suLsSreBsCjKcTsZHANgIkoEc+jLPsBEwTlx+pRvy2oxDE6a1ETkSl6xsxu3ntJ+h7+A/YRv5srgKCdie+mlrsgeOwzpdBpXdR1b+vowo+tYNQyoqgodQKuuo43hLREREYVIzivkKt5qFb0i6xC3c5t7MAAmokSQA1+Gv0SNYzGg5VptA9weHSf/5fP5cmWDeQdX/B71+6JpGUz+8wrec/NV9O9pD/zxrCeHq32yuHrs3/8m+vvnMDmZ3IMxog8wALSvVwFDUaCqKqZ1HdvqCIENw0AbJ38jIiIiD8wZhtf7esUAmIgSh+EvUTBExSaAcphXb6C66tfgTKwOBHHbED67A3PmdSYe781FvK5vwa3btgGYD+UR+/vnbKuDw9II/Yn9soK1sFZRFLyl62gzDGxSFPSoKmZ0HYquo72GELhUKgEAWENMREREXoRZAMEAmIgSq9Zm6kRkzzwBXNRVm1ZEKC3GZhUEx3HcSSS/znF/zX/uyW7c8cMGZrLhhL8UPtEHGAC2qCqWdB2b1it3M6qKH4yPYyuAtMcQeAuAFbayISIiIg/8+kzl9rNNS82PQEQUM2KjJ767nQ2TyIrVqeryd7vLrJZTy2MHeft6yeFqvYKYBM48NjFe+YviJQ7vySu/t4q3DgdVk05xIPoAA2stIS4BWDGM8vXX9/XBMAxcXr+Na7oOhS0giIiIyAM/Ppt4KWxhBTARJYY4ghaPU4njTz6dX/65mZwpnnTVM1oOep1eJ7sgVr5ctE4wv/bm+9YSAlstR1bPeywvV0zk5QfGbRQnQRyQsNPfP4fR0S0hPmJ8TU11hPI4ch9gALixrw/zIyPo2LOnfJna14fL4+OYBtDjshK4hdW/RERE5IHT50+r1mlWvYLN+Ue1IDh1/vx5fvYiokSw2oiGFWrK4ZuXx6z19nYBojkArBYImjVbCNyIVeL1THJY6/trN0mXH60U5sfH0dHXV9cyiPyybBhoDbGS89y57bHpAfzSS9swOZnG/fe/FvoYisWdKBTGQnmsufFxtKhquWJX13VsAdBhCnvfHhmB0ttbtbLX7v5EREREVqzmyAijCpgBMBElRhABcBABodcAT9xe7mdq/mdh/sch38buMvN1VpIaCAcV/Fq9t27fB6vb+Cmfz9ddARzEafql8XGkGQCTAz8rzqvxIwC+6QtfwBs/9VOYk6pK7fgZAO/4ylcw+fGPe75fswXAuq5jWzpd7v0LANMjI+gxvV+GYWB1YgKpKiHwJV3HCgCVATARERHFGANgIkqMegPgo4cOl4MGEZbJlY9umrQHHeIFTR7zidOnIh5NcOQAuNHeo3rU855aVQH7sY4zAKY4CbMCWNNmMTW1p64AWNNmAFz0eJ8fAzCFQiEDoPkCYMMwsKrr2CJtd3RdxxbD2HA2gmEYSE1MYNUhBOY2jIiIiBoBewATUaLZVY1ZVZSJy8whmXlyOSeNNOO9Fbsxm18X8dqJy8y/x5254pbcses5Vc/r2FIq1T0uakxhVvYGaWqqA5q2AEBHNtsKTfs2gG4A12FtVzsNIA1NywBYBtAOYDM07S0AWUxNLQC4gkJh0fPjFov7oGkHPY7YANCPYnEFhcIb6OxsQS63gFKp1eNyGpO5DzCwVr1bMgzM6DoyUiWvoigwenuR0nXAJgBOcRtGREREDYABMBElmggkzb125WpfM/m2zRQQmltLAKioBpZfKzn4FT+fOH2qaSeTawT1toAQyzD/TdT7N8LTkJqH+YDRmeLJ8s92BxLCDokXSqWqPV/NpqY6cO7ce6BpXVhbow8AWFn/Wl3/vrj+fRnAEoAFADcDmIGmfR+FQgfWgmEvLiKX+/+QzS4im93k4vZrU9xp2nugaVuQy51GLvc+dHYOenxc/2Wz86E+3grWqnvl93pBUdCm64CplYOiKNBLJaQs+pUbhoFNnACOiIiIGgBbQBBRolj1X5UDBLnK1+67EFTP07gy9xQWr13SiPfVj4b7jabeFhBWk8AB9b2GxsgIFBe9UmthNXtuM73fcSC30zlYOFJusWMlDu/NO+Pj2OrhdH7DMPD2xARe+ecVxxAzl8ttuEzTXsfo6E04fPhKTWMVbvjLFN74WO2783FoARH2ZHhWfYANw8CViQls6+3FZouDALquo9MwsNnUOqIdwFb2/401q20//x8QEVGzYQUwESWaHHiZQ16778LBwpGm+oDQ6O0r3GKFcv3kv4u4VgCbQ0a5ZQWQ7HU8buSDLuYDCXHrm+5lfbys61jRdfwff3kT/lVLC0b3e1ubc7kbMTXVCaC+ALie8NdsetprFXJjSqfTuKrrFQGwoigoqSoWdd0yAFZVFTqAlvFxLKkq0oqCdgCtrACO1Geefx4A8Nojj1RsS3oGB9E9OIjXHnmkfJl54lv+PyAiombSEvUAiIiCZhX6utGMFcByaJbU6l/AesLApKvl/ZQnywMa58OyXUBt18OYgiW/F3YtRLyEv3HYNhmGgcXJSayoKl57KIXR3+QJdY1EUZT1hhiVVFVFi6LAMAzL+6mqircArExMrLV/MLWRoPBdGh5G/0MP4fFnn63YnncPDqLn9tvLv1v9L7DaJhERESUVK4CJKDGsghy516S8k2/Vw9as2SpFzf1/gY0BoBNxmrf8s/wampclrhO3s+ofXK2nsPy+irGLZdm1sPDynJLEzfM2v5by/YKq0pwHsMW3pa0xh7/NUt0eR25fby/vS5A9ga1CQTPDMNAyMYF0fz/DvwZm1QcYABRVXZ+wD8jlZjbcL6OqmJ6YQI+ucwK4GJgeHsb08DD+GMBvX7iA/MAAAFSEv0RERMQewESUINX6SroJruSJ0ES/ymbhpRLSKiz2ot77u1muU/gs376ZWE3wZ9cbUWbumSzaqfhREVwaH0faQ89VoiDNjY+j02F9NAwDmyYmsNjb60v4G3bvWytyD+CXXurC7/7uP4U+hiheB6s+wMKRT9yA9+dKePDBjQEwsLYeTIyOYoeiYEt/f9BDJRde2LkTAPAf1wPg3Q8+iJ7bb8fvLC9HOSwiIqLYYAUwESWGXagoX+YmdBS3OVM82VRtIKyqP52eu5sw3en2Vqfjy9f5EUibQ0o54G+W91VwCmvNr0e1yd6cKue9WvFlKUTh8DP8pWhZ9QEW3pxaRs+U/aR+iqJA3bEDP5icxPW6ji2cBC5yt42NAajcH+gZHASeeSbKYREREcUGA2AiSgy3wWVYy2lUfgWkXpZjVY3qFEjbTfBlfmxz5W8zh8B2z9XucvN7YXcgJa6TwFG8mQ8gOJ1tISrOozY/Po4Vn8Pfc+ey5Qrcavr752p+nP5++4nmRke3OF6fVIqiwND1DZenFoEOzOI3R5Yc778ZwPb+fizoOlrTaXTwoEBsDA0NlSeHIyIiojVsAUFEidIok1Q1GrsqWvNl5vu4eR/cvGfVlmUOdd3cvtpjJlU9wXcQB0dmx8fRxRYQTUfuwx4nV8bHscVifVwYH8ecokCNQaWn28C48j7Onbb3738TL73Uha9+9Ub8yq98D9msffVrEKJqhTE3Po4WVd0Q6v/bY29gFj+G48fXqkq3P/003rzrrorbLIyPY/P6urJkGGhjABwrn3n+ebaAICIikrACmIgSxc+JqpqtQtSJCFWdWmzU2mrBTbsHN8uw+i6Psdnfy2rtUew4tVap9zU1DKOu+1PjkSt/5VYicQiC7dZHv8Lf0dHOqkGs2+X47bHHOlEqtfq+3LhbUBRss7i8BQY07XoAawGwOfwFKicMbFMUFIsAsAuFwkXfx0ne5PN57H7wwaiHQUREFCsMgIkoUcynqZsrVc3Xme/T7JwqPOXX0qkK2KpvJL2gAAAgAElEQVSNg9PjuQ3tnd4nu8evVunbTMGw1fP08tyDapvB05Aa22Qmgx0z1hNlAdf+xux6Ros+3XHpt75cKlX87mflbz0tHCqXs7Fdgx/LHh3txJ/9WXNV46fTaSxa9AFOYQGAfSBuGMaG+ywYGpbxJoDtAYyUnJj3RQSrHsDN9H+fiIhIxhYQRJQodiGhVUBoFT56CSSTyq/nXe9yzPevJahvxvcvKCdOn/I9pDMMA4au4zq2gGhIL+zciRd37cLeixfLEzCZ2R1sqzbRYBQMw8DixAS69uwB4H/bBy+Vu35UCns1OtqJ6en2pmoBAQDG+DgU0zboPxzT8NfafTh//puW99F1HSkAPdK6seeBK1hYbMHYF9NBDpcsWO0f9AwOYu/Zs7iPk8AREREBYAUwESWMU3jg1CbA7rJmDIHDfr7VKrSrjcvpPWrG9y8oRw8dxpniyYZ6TatVjVN9Xty1CztmZmzDX8HpTIG4rU/itP6gev7WEuwGOUGbXDn80kvzOHs2G9hjVTM11RF68AwAK1gL/+U+wClcAdBie58tAFbSlUHvhV+aRHr94AFFQ64A/tD998FqGr+4bXOIiIjCwgCYiMgBPyTUzm0oa9Vj1mtrgmrX8QNffYJ8/RYDWKYYr1PFf1wDyEZSrbLO6UBOtb7dUXnpuzfgn8714Kd/Xvc9/O3vn/OtDURQ2Ad4zXv3rOB/aSlomoZcLrfhPildh2IKe1vTrPyNkrwtyefz+I52AT1brTo8ExERNScGwERE5Dun07mjCnricIp5IwuqV3ba1EfTb07V/ez/HazG/Fu7iNV0h+/hr53HHttte51dy4ggQuSo2i/EgVUf4LbS66ic5q1SyhT2GoaBloC3ZeTM7cG8xtwuERER1Y8BMBER+c7tB6wwAjinvqPkTpCvWxATETAEoFqkANz8ns348Y9uCvVx77//tVAfz8q5c9uxY0f47RfiQFEULExMVFy2CMP29rquY4sp7C2VSkgB6AhigFSTS8PD6H/ooQ2TwBERETUr++ZWRERNilWBwXIbyPr1PsTtFHO6JoVgAmCiWhjrIV4zm55uj+Rxo+j9K1tMp2EY10Lf9+4Rk8JtrARvAWDuyqwA6GALiFgQ+w7dg4MY/fznIx4NERFRfDAAJiIyYVAYLPNkb1Y/m2/n52NSfIQdAPPgTvQmM5moh2BLhL/Lhn31Z5Kl08tRDyEyC4oCue67BSWsbZ02niy5xTA2tAhpMU0iR+GymtS3XAFMREREABgAExFRTDCkbT4LpVKoj8d1LHpPDQzg/zWu4MTpUzhx+lTUw7HUiFXA6YkJZP7xH6MeRsMSfYCF/+drPwJgFseOlaBpWsVtly22W424ziSVXAHsdD0REVGzYQBMRESxYP5Qxg9pVA+x/nA9ipaYbO+pgQF8ad8+TA8P428f+xLOFE/iTPFkxWR8cXivUgAWFhbqWsb7/t2/c31bvyZ0K/X2YuaDH3R122LxL315zCRRFAWtUrDbhb8GMI9cbidyuVzFbVstJoBLsfo3FszbkOnh4YhGQkREFD+cBI6IiGLBXJ3Jas3kawOw5PMyrdqKVAsWua4FQ7zuPYODeOnll/Haej/O6eFhDA0NIZ/Pl197+eeoiCrOK4aBdHe3p/tOTXVgaupbAADt4EHAVDVa+ShtALZC0zpQLN6EqalvolDo9/x4xeK7oWmdyGav4FozFfF9GcCKxeUpaNpDKBZXUSiMolBgF25hMZ3G8norh5/6aDeG//MccrkfALihfBtd19GuKJA7JZdKJSwA8LbGkJ/EtkZsV4iIiGgjBsBERBQLcQiAKFxBnDZtDharYVhQn8lMBpNdXbhtbGzDdRXvwfIy8MADaz+vf7fq2xmlzek0Ls3PI6NunPirmv/+R9fhG3/9aY/3ugpgHsXiR1EsvoPjx8eQy7V6uP93kM1uA3AZKEeSKdMXoGkXsBYApwD8BIC31n/+HoBdHsecXAuKgm3rP38wl0Mu9woKhRsqbtOKtXdN1o6NVcEUDbHtz+fz13oAP/NMxW3isK0hIiKKAgNgIiKKhPxBDfAe3BHZ4ToUjslMBk8NDGDHzAxeALBjdhY7ZmaiHlbNFEWB0dHh6T6LhoGSruO67Pewf/9Xkc22Ya3ydgFrVbjiaxEoTyy2un6bm3Hq1B4cPvy/UCjcibV40Z1sdh4PPtiCHX92BZM/14LV1SWsrqbQ0mJV0fue8k+a9g8AZpDL7QHD30qiD/Ai1uLx48e7Ntym3TCg9PVVXLbJMNBRw0ED8o+X/QfuZxARUbNiAExERJGwOlWTH8qai5dax6BwnavdZNdaQHbPhQt4YefOiEfjH7dNEfRvfxtLHR3Y2tuLX/5lBTv+/F9g8hPeWipks9uxf/+d3ge5bvLn1h4vlQJSqeqPnctdD+B6y+v86kfcqBRFwcLEBJYdbtNiNXFlyJNZUn24zSciombFSeCIiCgy/CBG1LhuGxvDfeunV982NtbQ1b9ezBsGro6MADt2YGtvL5T1CcC8hr8UP4vpNEqlkuUHJMMw0G6q9DUMA5tY/Rs5LxNJsu0PERE1K1YAExFRZPhBrLmlsHbaNVFcVOtLbYyP4yqA9t5eqOvBLyXHgqKgDUCLxXtbKpWwBJT7BIvLlgFsDWl85MzqzKLJTKbi4BQPPBMRUbNiBTAREYXKrlKHYXDzCWISOKIgLBoGSiMjgKoi09dXrvqlZBF9gK1qudsBtJkOWFlNCkfhE6Gu3N93eng4yiERERHFDgNgIiKKhLkKR/4AR82BATDFzdX5+YrfDcNAaXwcs7qO9J49DH4TTlEUtM7PWwfAhrHh/W83DKhsARE5eTJZt7clIiJqNgyAiYgoMvKHNfMHOH5IS74Ww4h6CES2ZnUdLRMTWFVVXNfXF/VwKCSLigLDdCDAjuWkcBQpse/QMzgIABt6k7MFBBERNSsGwEREFBmnkJcf0pJvMeoBEEkMw8DlWQXfH2/F/Pg4Fg0DHaz6Dc3U1OaohwAAeCeVQqvpMsMw0GqxHqTYwzx2qu078OAy0TX8eyBqLpwEjoiIQif69FlN2ELNw+o0a6Iofee7Kr735rvwK59px3UhBL+jo5147LFO9PfP1byM/v4rNd6v9sf0Wza7EJsAuKOjA6VLl7Btx47yZaVSCQsAuqXb6bqOLTw4EAte9iV4cJmCJveiDuOxiIjcYgBMREShY5sHIoqj7swr2Nb7JhTlvaE83v33v7bhstHRTs/LGR3dUtN9xGOJMLhUMte+Np+Ojg6smNrTbAGwYqr2TQG4AqAjtJGRF2ISuMlMpqINhJd+wURehblfKz+W1UEQcZlVuzX5NkTUPBgAExFRJMROKT+MNS9OAkdxs2/lBkz1r0Q6hloqc2uv5n2zHAKPjnYyAF4339EBQ5r0bZOuo3XPnorbKNgYClM07IIvO9zfoCQwF1NYrddOEy7z74Co+TAAJiKi0FnteHJntPmwBQTFzeu73kYbegJb/mOP7a7r/qOj9bWLsCIvL05tIaLSAgDd3dgkXbacTm/oC5zSdSimUJiiYQ585Z9/67OfRfGBBypuSxSUOLU24341JQHXY38xACYiotDxHzkJnGCL4iSFYCvT9+9/M9Yhq6ZlMDW1GdnsfNRDiZSiKFjUdWxSFBiGgRar7RSrf2PHan6B//Tww4DUAoIoSGGHv07hmFULCPk6oloFHcrG5SBKErVEPQAiIiJqTqwAprhZBdfLZtcKIJ1Oo7VUAgDMl0owT7NnGAZSPHjVEHZYhL8MF6gZ2K3n+XyefwNUM7HuBLkO8QBFcBgAExERERGtm59v7urXZicqwBfTaRiGgVbDQNpU7VsqlRDfOu7mJfc37RkcBLA2CZzd7YiCEJf1y1wNL18O8EAI1Y/rUONhCwgiIooFqx1m9n1Ktpb1CjuiuLiysID2ACs7R0e3xLoFRHt7tBPgxYEIgBcUBdsApEolpE3rxGYALWwBERteJ4EjCorTumduyWC33rqdxNDtOs79aPJTGBN4y+s2119/MQAmIqJQ2f0jtwp7+U8/2XiqPcXNEgC0mqf7omaybBhoSaeRTqexqOtotQh6NxkGNqtqBKMjK06TwBGFqdokx/J1dr15zSFxteC4FjxIQvUI4/MZPwMGgy0giIgoVHa9x+wqgCm5WGtIcZPevBld27ZFPYxITU11RD2ESIn4X1EUXHrjDSyz1y8RuSTvy9azD2vXtkH8LL7qWT4DNqLmwwCYiIhCZ1XFwLC3+bACmJpNf795OrF4aW9fQS43i6mpDmhal+X3ZqCI0FdRcMnUE9owDLQwFCaiKqyqft3ez+196w2BieKIByeCwwCYiIhCF3TvKGoMqeo3IQrV4tWrTX9gIpudRzY7j1xu1vK7HAaLrySFw/KHo1YA13d3V1xfKpXA7uXxxL6R1GzqCXH5N0J+E+ujfLan+bt8vdUXBYs9gImIKBbseqFRcpUAsI6O4oQHJaoTAbH5MsC5fYT5PnElrwMdKytY1HVskip+2wHLvsAULfP+wmeefx6XHn0U9z3wQEQjomYVZnsF7idTXNgFvXbXUTQYABMRUejsWkA4TZxByaMwRKGY2RT1ABpctZB3rWJ4M7LZhXI18drlm8MYnisiADYMA1t37MCSrldc32YYSHMCuNhiwEBRCnP9c+oT7Pb+3MemIBwsHKn4/Uzx5IbL5MvPFE+GNbSmxxYQREQUKnnm4WqzIVOycRI4ouYit5IQv1+7bCHi0VUqlUowACym0zAMo3x5S4kNIOJKDsRee+QRTA8PMxCmUMkFDn5MAudUTVkv7neTn5zWJ6vw1+lyCg4rgImIKFR2O65WlQjcOU22Zu+1SvGTArDAgC8ScWkRIQJe0eqhBGDb+nWGYaCdZy7E0mQmg90PPojXHnkk6qEQlVWrsnUKc8MIgYn8ItZJhrrxxgCYiIhiwWoHmaenJdty1AMgMlmen0dr1IOI2OhoJ/r756IeRmSWsBb+thsGNq+3ehB9gEulElYUBZ2RjpCsTHZ1oef2210HwNy/oKDIZ7oB1Vs1yLf3Ep7Jp81zXaa4sGv34ES0geB6HDy2gCAioki4qV7gjkByyadUE1GwWC3mnqiOaVuvBFYUBa3rP7cCiFejChKn2u+YnS1fdrBwpBxA2M05YL6MKChifRTrpNwewhwWu+VHz1Su/+QnfmZrDKwAJiKi0Fnt8HISuObDFhAUNy24NglYEEZHt4RaXev1A36tY5Mfp9G32SvrPX83qWq5GnwxncayYaDdMKD09UU6PlpjXrc/9ZGPlH8WFWgHC0eqTjZLFJajhw7j6KHD5fXwxOlTAGo7Zf5g4Uh5WbXi3wLFBSeBCw8rgImIKFRuqh1YldAclqIeAJFJo7Z/GB3ttPxaXr6l/HXgwG+Vv0ZHO3Hu3PYNX7USQYLYvjf6NrxUKkGOwhcUBZsApNgfOjbEOnfn7Cx6BgfLl4vg1y5QEKEbUZiOHjqME6dP4cTpUxsOTAC1BWBObSa83p+oXlyfGkPq/PnzLMAhIqJIiCoI+VQ4ag6GYcDQdVwXUDXd1FQHNK2r6u28TDyVy81Wv5EHrEaLF8Mw8MZf/RXabr4ZO/v7N1yvaTpyObWux3jssd2215mrb0WI296+Ur6sp+dq1fvL6/TDDz9ccZu2trMVv4vtr916KF9ndTtN68Lw8HXo7Lx2OOfJJ5/EZz7z07bjdJLNzvv+d+aFpil4n/pdrCgKVtNpKIoCYL1lja6jDUA7K4BjQew33Dk7i7anv462c09XvY/oMVmtJytRPeyCMLnS9+ihwwCuHZAQAbDXamD2Aaa4kNf7WtdjrsPBYwsIIiIKlTlE4BHj5rUY4LKnpjbXFSaZD0qsVUf6H0zx4Ee8bL7uOmxRrUPeYvEWHD/+el3Lv//+1zzc+k2cO7e95nX4y+e+jj/+409XXDY19QB+93f3AYDr7bBTldm///fP4PDhyYrQ+fTpR7B//4drGrObgzZBOnZMxX/5nRG8v68PbXv2lC9XFAWXRkfRsmNHhKOjeh0sHNlQAcxtL/nNfJBBhGGiClj+LoLgWtQb/vIgNPmp1n7WFC62gCAiolCZTxHmzmfzSq9X18WZVa9qq8vNl5lv56YiiKK3Mm9dEV4sfhmaloGmXQp5RGtVsbV8dW6b3nCZLJ/Pl09HtvqSid/drK+Nuk0vFl8A0IkL3+3Bcjq94fp3Wlqg26wfFD55Pfvbx75U83IYWFAQ5PXzTPGkZfgLoNwWol5JaL1Dja3W9U8+kMF1OHhsAUFERKEzn1YsNGpwQO4Vi+egab+Ahx8ew0KphG6bast6aVoXstkFTy0eZOb18q67/hybNv1Z+TLRY7LWANfqvvVUAlH9DMPAm88/j8ytt6K7u7viumJxFsXih5HL/Q2OH78+tDGdO7cd+/e/6dvyNK2rXFGcz+frWn+Hhobq/jtzGl/Y7rhjGsAggFGc+8s30GHaNs1MTqJFUbDNtG5QNMQ2eu/Zs7j+ncuuWkAA1r1Wue9BQbJqpeNH6GtuacL1mKIm1kW2gIgvVgATEVHgRGWCvJPqplpBrp7kUeGkOAhN68AFbRRxPgItT2oFAJ/+9Kc33KbW8OzoocMYGhoqB771ngZK/tlkc7mmDQH4RyDWa603rD6vVCgMAXgX7v3J47hicX27rqNtbs7iGopCrUGBeb1n4EBBk/d5rdqQ1MpqMjkvuF9NfvJjfeI6GTwGwEQJxw0pxY043W1oaMjxlGOAH8ySqFjMAtiEPym+Ffsozbz+1bs+nime3FB9xuC3MRQKPwLgJ5HL/X3UQ4mFeoOHOMrlfhQAcNt79iBt0QKitbsbraVS2MMiG36tf0lbjyke5MIH8zpmVYX+/7N371GO3PWd99+6V/16Zrp7amxrLmYGe2JDbBhBYpIQX9glgQmOB0LYBB7ygBKSw0N42Dg5G2JMSE4IGMLmZE2ymwtLEgUWNhAWwhATc8l5PMbhvkHjy4IHG0/Tc2lj10jdM11VUuvy/FFV6urq0q0vklr9fZ3Tp9WqUqlaXVJXfepb31/Ufd2s5TFCbJaNOGbbLsd9w/y/IwGwEFtAcOchXBEZtYMR9bMQoyAY8ga3S78/mhh/udz/APbw7GuLw16Vvsln6fiLZzLDXoUN06nKbL0VaP6lx3Nz2rqWE7bRy+tPrHVLhfqTW5ZFQikcXceyrEGvmIjgBwW7b7xxyGsiRHcvz79uxZU//n7veq4AWs9VHLI/IzaTf3IieJIifF/UCYxx3i7bnRAaNAmAhRhxnQYV6ja/EKPCP1AL/rMP7rj6l8T5X/7gRCDb9LjJ5XIrvm8l26UyYTuLdZ9ly9jsk2rj99kcAy6i6elVU2zbZgFIGUbbNiFisILb33oGgRNisx0/fry1/+sPvBnsA+xvy2v5zA7ul7QLl9oVDHV6jBD9Cvb/DR7jBa9+C4e+UVfGic0lAbAQW5T07hPjyN/5fXn+dVIRPOaSw16Bdep3h1V2cLeGUQuAN2pwtc3UbR2npoo9ffXjC19YORDfwoL7ifKOd1zH3FyGz3xmb3+/BFAsngQsltTqw6MMoHltIZZMs+9li831k0df2vO84c9iObEnNpsf+v71Jz+xYvt7wytf1eoLvNa2OuEBa4ODwoWnh+drtxyxvay3MjX8WD/U7bTfu932iUfp/bXVj7+EGHvBf+Th0LeXEHi7fcCK0dTrP77gZclRlygHR1IWW9uoBW2b7eX518nn8RYQBzKhNhAHDxYolR4Gfp2pqSIHDz7FV7/6LE6fPsSrX31vT8ut1ZIkkzWq1Th/8Aev4c1vvpd9+0xvWpzvfvcQX/zi9bzlLcdZWFDs2uW2GZibu5aDBx/t63eYn89RLq+usB9ke4VGAz7/+SxHj85x5MjtPT/u9OnXc8stf9dhuXHi8Qa33BI9/f773e+/+IvL90W9FlFe/vIJPly4yJ6Df8uRI+7/n5mZPOVyjpRlkTEMACpnzvS0PLG5jh8/Tv597+v7cfJZLAbtDa98FX/9yU/whle+qhWM+eGvv0+7UQNohcPd8PLD00YpmBJbT3j7idre+jl2Cy8varvdikZp/SUAFmLEtQt/17KcUfrwEWItZBve2txKv0vAi9m541GSyRm+8pWXkc1+hxe96HTXxz/44HO57rqHSSQaVCopMpklLlxIMz29xPe/fxkHD/4AgPe+91c4darM7//+CfbuPUc6XV3T+rYL0sT2MDenkc06HDpU4PRpd5d5aqrIoUNf4NSpn+DRf/0RDh0q9L3cj3zkb1bdd/gw/MzPrJ739OlbOHToRF/LP3nybk6enGJhIclNNz3d9/r1oluIFo/DWeu/MjV1mNOn8z0vt1w+wunTy6eH/MrgkyePcOTISb761efy4z/+IE88MYFpHuDZz55hYsKtQG424bWvfQ/p9BKFwu91fJ6oiuOTJ3ewA9i9Z4apqZq3PkXK5Rzv+M83kz2U5Ld+67s4uk7dslb1CRaDFQwK/vXez3HT4at6elx4u5X9YzEIfggcDF39NhD+FW/BthDQvm1a1PRu/Ofd6NBZbF/twt9Ot7sJtzQJ3pbP6Y0hAbAQW8SnCx9aUwgslQ5iFEiVwfb1Z392Nfn8DDt31pic9ANgeP0vfZyHTh+i8tRl7Hv+lzl06Ctdl3XoUPv7nvnM5fv+8i8L3HffLRw8OMOhQ6fXvO6nT+dbAfDHPnYlf/7nP9aaJm14xlOwMt1vbXDixH2cPPkw4G4TJ07cipaCl77gAU6evLvrMn/v927jjjs+h1JVnnoqw8REgh/8QOPQoQutef7t36Z4/vPLADQaMeLxJgCPPnot09M/19fvUC7nOHKk3HGete5TBB/fzRte+SrK5d4rcAHm5q5gZuZ5rZ9nZpannTwJug5f/WocXW+QSsFjj618/O/8DoDe098l7PTp/4XGRR56+F1ou368db9lWdz1+98k6VUASx/g0RCsAC689a09D2wo+8Vi0MKXxwcF20D4IZf/c9BGbLMSoIkoa9kuwq1HxNYhAbAQW8RaD9T8HQb5cBZCDMNb3vJ46/bMTJ7Tp90A+C/+8h0czuU4eP085X+6hhOZ9/S0vL/6q6toNOANb3iCp5/OkEw2OX9e48iReebnU7zvfdfw5jc/zj337OW2284zM7MxPVR/8RdnOXp07ScyJHDYGpqVSm/zxWEudpDMOaNrJehv/MYZqtUfplqFVAouXEiSTEK5/IzWPFddBeWIzNZxJimX9b5+h278kKHXwCzKME/q6Xpjk5Yco8oEdZor7rVtmzqwM3DfkmmSkgrgoQpuf2enpoa4JkJ01ssxmL+PEKx0DLaJ6OXzttvzBJclx4Vi1Enx0OaQQeCEGHHyD1qMg07VD90ET37IjsD4iAG6rvPMq65i8gW9BylvfOP3eNObvkc63WTfPofLL69w5Mg8AJOTS7z73Y+wb5/DDTdc6LKk/m3kdizb8mhqdp+lJWMYVHoYECyRWLnUHTtq7NhR63PNNlZ4MKJ+jef2m2IRCG8FCSChL4fwSikStj3IFRNdvP3OO3saaV5GnBeD0G91pN+3N2pwtnAI5k8PX2Lfb4/VTpfvCzEqorZ3sT5SASzEiPP/Qa/3ck052ytGRb/bcfBgTbbhcdFccal9A/cy61HuqZnNOhtSjSDb8GgLD054/Z138r03vSlyXqUU8R4C4FEkIdhqaeLUAC30OZS2LJTX/sEnfYCHr93ncTAElnYPYhg2+v98u1C43+eJml+OD8VaDHKbke1zY0kFsBAjzv/QW0v4K8GZGBXr2f6k1+p4yH72syQsCz9iCwZtmmFgb4GKun7CXwkdxsPDd92FdeWVbaf7Jy+2ovV8tvqPff/7379RqzN0GatCjB2r7o9FfDZJH+DRc/Udd3D1HXdwwz33sPvGG7nhnnt4OLuP3TfeCKyuspT9YrGVbdT2K+8DIbYXCYCFGHHrqTaT4EyMivG8XFj0Y+5lL6MeqJaLB0IzB9C2QIgWPFDq9Pn6hle+quN0eT9sZZev+GlpC1WAJopFkvfey+srFV5fqfBjX/s6B86c5fQH/4YDZ862vqJOXgTvC97+jd/4jYGs+yAs2M/F7fR7aMX9wfYPQUtbtPp7nBw/fpwbTp8G4DWveQ2lBx7gpQcOcOGBB7jwpS+x+6abuPptb+tY+SgBmBBCiO1CWkAIMeKkAboYB8Ht+A2vfFVr8KE3vPJVAB0HI5JKyvG0FLitlMI2zZFvAxEUbMvz6cKHWiHCsWPHurbskcBhdIVbQCx7Bs+77izZ7M4V96Z0nYZpwhbYbg/fey97iiXeTIVzwMTXvs4i8P8CfPJTJAHd+/m9f/Xf+btMZsXj24XA48CyLK7PPZOb57+JYRhAHQDTNCM/k5RSVM6cGfBaiigvmJnhBW99KwS++5+xfwhc+NKXOPbe90ZeRi/EZpMWC0KIUSIBsBBCiE0XPIkRDHt7GYVeeviNm8uBxKrBtqqwJS+pfsMrX8WnCx9qHeR1u/JCDgZHX1Tgl81avP7Xvkk2O7Vq3qUtGATuBBSw6N2+GJp+9dvexg0vfnHrZ/8y+rB/+Tt4/JZn8eYTJzZpTQfDtm1ecqrBtf/3PEljGvfVcS+VtHCD8TDpAzzafvPLX+bw297GN269ddirIrYp+X8vhBg1EgALMeLWU/0bDM1kJ0QMU7gCOLw9SgXw9pHNmrzkxf9ANptdcX/KMKi2qbYbVeER5dt9XsuVHFtHuwrgbDbL8+6t41w7RWnlpktV11naIkHgp3kFMxziIu5BQC0wrQlkcE/GfK94hH3aYQAmDgEfmwNgp+MAcFHTACgXNV6RmxnMym+iDPC9Vy8Rv9RYcb9uWTRCA8D5pA/waNt900089p73AFLtKwYr+P8+6vhrPcdk/mPluE4IsRYSAAsx4tYTHAQfKzsJYlT422Rwu+5UNSkVwBjEkRoAACAASURBVOPl6FGNXz61h9NZ/yJrl1KKxAZXUs7NZZiby3SfMUI2W4lYnkaj8Qw++MEP8qu/+qsArdv/9E//tXVAtriYYGKivurxsHr0bjmIGy3hyvSg8/kEDcsizsqgN24YHVpHrN/cnLbuZWSzDo/ecQfle6/gGk52nT+Xm6Gem+66XsmawUN/n+Ehrlg1/f3vfz/vec8b17zOg5SyLHZceSWXLl1acX/TtjsG+0umSWoLBP/bQXh/9znXX8+JL32pNU0+Z8Vm6WX72qiTwP7zSAgshFgLCYCFGHHr2WHodgZaiEHpth37AW8w7D1+/Dh//clPSCX7GDr/H3Uap+xV99c28JLqXG6+r/m7hWzZbIV7772Cd73rw8zNwbve9WHvce7tYhHe+c4TFIvRj3/nO91L5F/2srdz113ufFEhsxiubkHuEm61aFATaG5SH+B+tpFOJzv8aTt21Ki+Kr/e1Wo5fPhS2/fan//5R8nlXt3nEvt7326Esmliz8+z98oribGyBUi7AeBA+gCPouD+wdmpKUoPPDDEtRHjbi3HWf3uw4aXG/xZ9oeFEP2SAFiIEeef4Q0PKtRtkCEhRkmnEbj92z4/BI4KjWVnd3wsVavsUqsrKctDagORzTo9zdNLsDw1VaRczkVOSyYfIJebbwXOw9imi1PLKXWuzXpuV90C4KZtrwp6lVJUTHNT1qeX7bLTvOHwYCOqidvxn+uvP/kJ3vDKV22Zz+u6ZWHs3Qus/PtblkW8y2eRLX2AhRAB4X3XYKXusWPH+i5kkMELhRAbSQJgIbaQ8GXwnUJguWRejLqondqoHWcxnpKahm1Z6IHgRFeK2CYFaYM0OVnkyJHbOXHivlXTBr1NF6eK3H7k9shpuXKOu8t3D3R9Rl2j0rnitmpZaBE9Yasw0kGg/9n667/+tQ1d7p13vp1kcmWV5acLH+INr3zVhj7PZnFME9O2iSnFbtxB33y2bRMDOkXmacPoOF0Mlh+unZ1yB2u8IBXAYpNEFSl0uk/GARBCjIJ491mEEKOi37PAwUuEJEgTo67XnWkxHhzc/plhDdzKu1Gz0ZWTa+1N3K/CwQIA+dN57j5594qvYCWwcHXqAQygDAM7YvtMGAY1e3Vbk1HQ71gA/Wybd9317lX3bZX9DcuySADPMAy0iFYPCiLvD3PG4KTVONgq250YD7K9CSG2IgmAhdhi/DDXv8yyE+mXKrYi2Wa3h4lGgwSrw96o6spR0c/l+IOwWFnkT774J22nX1i8QK6cI1fOkZ/J850vfKf1s/8VFQJ/6lufAsCpjdbvOwjdAuAloBER9CqlSI3giYugXk+orac39VY6aZeybRaAeKDtTPDAKN5DRbdSitiIBv/bjezzikELFtj0uu3JNiqEGCZpASHEFtCu+X+nSyy3yuWXQkSR0Y3HXxNAKS6Fev46QGOTBtQalKkBVdZOZCb4rZ/6rbbTd0/sJjefo3CoAMCrb1gekOvbc9+GI/Do3KM8O/lsMsnlqs+fe97PAaAlt9/F7V17AAMNy4IRPlERFvwcvffezvP62267Htbdlr9VlEyTCcAwDKqB4L4eCHO7bQu+iq7THOH2H8Il+xRiswS3q6h2ZlHzrdXXDx5k//w8+8tlQLZrIUR/JAAWYouRf/Jiu5AQeLw1gJiukzZNrEB4opTClkuqN5zfCgK8QeCOuLfta20yM4NpRzEOlFLMnzkTOc2GkQsC+/38PHiwwNRUMbJ/dZT1VAsPU9w0uWgYYJpMBP5efuhrWRapHv+O0gd49JydnFx1n+xLiM0WDoI3w7mpKfbPdx+MVgghokgLCCGEEAO1lS4RFpuniRum6bjVeEFLjGYf4K0o51VyFqeKra8V0+d7r/TcDnqpjEjqeuT2qRkGVTl5MfIWTJOMYWAYBnFgMTAt4X23bZtLfSxT+gAPX7jy0q+QFGLQNvNkw75ymW8cPDiQ5xJCjB+pABZCCDFQUtkrYPkMtKXrJEM9NJNekDZKlZRb2X09VnMKiFW6V7QuAdj2qu1TKUVcgsCRZpomadNk0ava1SwL/corW9Pruk4KSAOJHgaAA++qhTZV4WJwZL9CbAcvmJnh7Pw8/3jkCDfMzMiJDiFEX6QCWAghxEiSSuHx5ke+mmGQZGXFr1IKXQZWEkNQ07pfzB9TimabCvUmW7t6vZ/ev1tRwrKIe9W/QNsB3FJ9tvKotKkKF8Pz0MMPD3sVhNgU+8tl9pXLEv4KIfomAbAQQoiB6rVKRyp5xpvuVdfpSlGPr94dqUmgIkZUWteJtwkOq1K1PrIumCZJ28YJ3Beu8vV7ALcLhtuRPsDDF9xnODc1xXOuvz5ymhDj4AUzM8NeBSHEFiQBsBBCiIHbzBGSxdbQCNzesW8fjdCl83HDYF4upxcjqInbKzbqBEVK11dty2I0NE2TZqD61zRNnIjA3rIskt48/ZA+wKNLrigSQgghJAAWQggxJFEHZHKQtn00A7eVUqsCNV0ppge+VkJ0p5SiCTgRVaLSvmQ0nT97lgxQDdyXCP1sWRZN3AHg+r32QCnVd9WwEEIIIcQgSQAshBBioPwq36hq3/B9UhE8vuqhnzOGgR0KULZ6P1Wx9fS6Y7zgOK12AWGOtC8ZOZdrGpVA9S+4A8AZoUpfv7q7Sv+kD/BwBU8g7/N6pAohhBBimQTAQgghRoZUAG8PUSFJXClU6P7MGi7DFmIQpg8fJtFmWtwwSA10bUQnpmnShFVhb7uK3XREMNwL6QM8Os5NTQ17FYQQQoiRIwGwEEKIgQqGvN0CXwmEx1ezzX3BcNgB6acqBqrexyBuiTbVnk1gSbbbkTFpmqt6+lqWRSIi5E0q1XaAv15IH+DhOX78+Kp9BrmKSAghhFgmAbAQQoiBCh6QdTs4izqgE+OhFnFfzDBYDAQoSinZUREDFXViIopSimSHae2qg8VgmaaJExH02rbNpYj5m0BM19f0XEopkD7AQ3Ps2LHWPsVZrwJY9h+EEEKIZXJcJYQQYqD8A7JeDsyCB3RivET1T9WVYlcoQKkhfYDF4LTr6xul0WFaldHcbrNZZ9irMFDKNNkREQBngHRE0Pu0adLsowo8rCp9gIcmeMJ4v/T/FUIIIVZpV7wghBBCbAr/IC34vRMJgcdTu0GWlnSdumW51XRA0jComGbr53Gy3cK4ceMAzcC2GpQwDLcadMS227k5jWKx0/RrOX36Fk6enGRuLrqjrb/dzs1p5HLzm7GaG6JkmjQNg6h63pRlRfYYbwKLsOZevtIHeHjCFcD7yuW2VxHJfoUQQojtSAJgIYQQAxWsAO7lAEwO0saT3iYYixuG2z/Vm66UIn7mzCBXTWxj9T7mzRgGS21CXqUUtmnCiA1kePTokx2nHzz4KIcOnSAWmwe6hbujG/4C6KaJds01/T0G0NbYAsLnjOkJq61m//x82yuNZL9CCCHEdiQBsBBCiIHqtfJXjLd2vVb94MwKVFbWvcuqRyFUKRYn207zKyZt+1o0bZKTJ9vPK8ZD0rJGLuQVYJkmdptqXMuySEd8lti2TaxcRvUZGgcppbDkhNXQhPctZBwBIYQQYpkEwEIIIUaWhMTjKUbnwbYyhkGwOULcMCgNuaoum3V6aNngVkQeOfIoU1NFr4pSbCWd+vqGtap827Bp3yJi1E1NFSmXc8NejTWxLAsdUG2Cedu2cYDdEdPW0//XV9V12KJ/962u130GOQkthBBiO5JB4IQQQgxUP9U4Urkznn7z9mbHANgBCARrulKRYY0Qo0wzDKodAmKxOVK2zYUO0yeIbvPgOA7NdbZ/AOkDPEy97jNI+CuEEGI7kgBYCCHEQPkHXr0eqEkIPF4KhRqPndrLqUcfbTuPXzlnWVbrvmbo51HwR390LR/4wFV89atuPH38+F4++MFn8thjh1vVk/V6jEce2QXAiRN7hrauortKpdL3Y2q03y6VUhIEDphpmsQAo0NbjlibqwkqjsOlDVoPR4L/oeinAlgIIYTYbqQFhBBCiIHyD7x6PVCTSp3xUig8gyQ1Pvbx/8NPvPCFbeeLGQYXA0FNuC3EKPid31kZYh87dh6Aw4cfa92XSDS57roFAG655enBrZxYk34GgQNIGga2bbe93N8/cSHtAAZj0jRJdunhG2tT5asD2u71X2sgfYCH59ixY/zF/fd3nU/2K4QQQmxHUgEshBBioPo98JJKnfFRLM4A/0SNXcD1HefVlWKXbbd+doDGCFbVPf10hn/4hwMANBoxAJ544goAarVY6/vCQpJC4eBwVlL0LNbn/E0g1aEyvapU38sclHq9/Zrdeed1nD2rYZpp6vUYp08r3v726wa4dv0zTROny4B8lmXRaBPGp2ybTCazIetS9QauFMPVbv9B9iuEEEJsRxIACyGEGArp1bf95HIHyeevQKfGL/xC9+G2aoEQRSk1kjste/ZU+A//wa32i8fdzsbPfOaTACSTzdb3Xbtq5PMzw1lJ0ZNKpdKxN3UUpRSpDtNTuj6SJy7ArU4HmJ1dXRF7112PsH+/g2FUSSSaHDpk8e53PzLoVeyLMk12dAmAHdtmsc20eKOfIQA7iys1sn/37WJ/ubziZwl9hRBCbHejeCwlhBBiG5Bgd7sy6XX3Ix4aRKtTv1UhNkK/AXA3Sim0QCX7qLnrrmdRLE7xn/7Tc3nwwUkajTgPP+xW5y8txfjKV3aztBTjscd28JGPPGPIa9teyTSxu4S/AMqy0CNaQFiWRUzbuI7NlyyLmG3L59WAhfcrgj+3uy2EEEJsFxIACyGEGCi/CkeqcbarKokeL4pXSpEO/Jw0DCypqhMjZonOJyacEW4HcOed3+G2287zx3/8IM997jzxeIPrr38YgFSqyU/8xAVSqSaHD1/ita/9/pDXtj3dNNndQwBMm37Ntm1jORvXZXzKMKjTf0sRsT7h/Yrgz7LPIYQQYruTAFgIIcRAHT9+vPUVRQ7Sxl1/QZhmGCvaQEyMcDWl2PrWEtglDaPj4+KG0bFNhFifS6bJYi/hLxBvMwBcGkhsYAWwUgrHWzcxHGenpjpW/cq+hhBCiO1GAmAhhBADd+zYsbYHX3KQNt5yuSPEiEVW4UVxAAIhSnOEqynF1hdbwyBgTaDWIehrAksSBG4Ky7JQgNFDAGyaJpU2nztJyyId3+DDIl1n4yJl0YtO+w/hfQlpAyGEEGK7kQBYCCHEwHWqAPb5B2tykDZuLvVVZekHxX7oGzMMyhKmiU3ysY/fQ7EYXSXaTreB4EZ1AMNxkLZtSj3OmwCqbaZVSiVijQbVDbzCIKkUMbliYaCOHTvG2++8E4A//uxnh7w2QgghxGiR/VEhhBAD16kC2OcHv1IBPG4axIBi8VTPj0gFQl9dKaY3ac3E9mbbNhVeR6Gw2Pdjuw0e161PsOif6X0m9FL9C5C2rMh5LcsioWnE2NhBADVdp4H83QfF32d49113sb9c5pY3vYmr77iDG+65Z8V0IYQQYruSAFgIIcRQ9HIwJgds46iJ22m1912QlFLooUo6CVXERjtx4gRf+9bzKBYvp1gs9vXYGp23yYRhgFSDbqhp0yTZY/gLkGjz+tu2ja3rGx4AK6Wo4FYei8E4fvw4+8tlXnHyJK84eZLH3/tedt94I7tvvFFOJgshhNj2JAAWQggxFO0OxsI9+yQEHjd+xNLfLkg60Ps300foI0SvrrnmVpqkgW8Ce/p67JJSHVubKKWIyUmLDWOaJlYfnwOWZbUNi+NABfe0lNZmkLi1aug6FWlZMxJkX0IIIcR2JwGwEEKIkRJs/XD8+HGp2hkT6aefhnod/ez/8e7pbxckZhhUvSDFARoSqogNtnfvJRL8gFzuGnK5A309VtP1jgPBiY2lTJMdfQTAtm3TrrFHslTquY1Ev3YZBslNWbLoRTD0lX0JIYQQ250EwEIIIQaq18Hd/OlStTMeqnv2QCKBvX+vd0+mr8crpUgHbssOjNgMNRLkck/0/TilVNegz0Zal2yEkmli9xnYpoFkRHWvaZrEGg0umGZfg1P2qgks2bb83Yck/773tW7LvoQQQojtTo6fhBBCDFSwwjeqIid8n1TtjJ8aGebm0t1nDIkr1QpSuvVcFaJfc+fP0ySGW2O+8TTDkCrhDaCbJrv7DYAtC6XUqvtj3le/y+uVUgp0XQ64Bujs1FTr9oUHHuAbt97KhQceiNzn6GVAWiGEEGJcyP6IEEKIoYlq8RAMiIM/i3FxiGddt0A223+vzYaugxegJQ0DS8I0seEU8IM1PbJB55MSwSp2sTaXTJPFDQxr47gnk3xRIfF6WYAjn1Wbzg9z/+biRb5+8GDr/sJb37pqvqjHCiGEEONOAmAhhBADd/z48a4tHiT4HU/ZrMOrf/EBXvTCPX1X8CpvoC3Lq+bbYdubs5Jim0p438+u6dG1HsLDbiHxsM3P54a9Cm1ZloWCvvv1WpZFos3fpm5ZJDZ44LewScOQ4H8Arr7jDm645x6+ceutvGBmBog+ySyEEEJsVxIACyGEEGJgstksr/xHg2dfOETDNCn3WRmXNAxK3mMauj7SYZrYWh499X2WuIJc7vo1PT6l662BCttZ8k5iiP6lbZvSGh5n2zYX20xr2nYruG+uec06U0pRlZNVm670wAPsvvFGfsULfwH+MJFg9403AvC7J09GPu6l8/P8xf33D2QdhRBCiGGSAFgIIcRIkWqd8ffd37yA+dwaO668krRlsdBHCJxSCr/+L2UYfQfIQrSnqANr7QGslOo6tGFK12nINts30zRp0n/1L7hNPTJtqnwzQNqbloicY4PoOracrNpUfr/ffeXy8n1f+hIAu2+8kc+dObPqMcePH+cbt97K/sBjhBBCiHHVbcBiIYQQYqCk9cM2YxgsnTnDY6UShw8f7ukh/mX0SimmJUwTGyTGZbhb19p1q6xQSlGPCKKGQT97FueKK2gmR/9wwDBNuOaaNT02Y5rEIx5rWRYx3L+JZVnENrEVhGYY1G0bNqHH8HZTLE5G3v/Od55wb3y6TBF3ntern+F37/8oAO99XYpf+8DnAZibW37ce1/3eyt+7kc2uzkDRgohhBCbYfT3+IQQQmwrx44dkxB4G1FKwYED7LJtSqbJdC8Vft4AcP6ATX4YPAjFYpFicZFcboJcbnT7pXZSLE6Qyy0OezVG0AR1Dq7r71rD7SvbaXt0dJ3YALfZduz9+3uet1D4J/L5n93EtWnPNE00w2BijY9f0vXIymzHtldUBm9WCwhwTys0LQs2cAC77WhuTuPSpSSHDy+G7m9fe/+ud33Ym2fj10cCYCGEEFuJBMBCCCEGKtjiIRz0+gO2RIXAEgyPL6UUKMWE1xN4qktIopQCr/I3oRTlQBi8WYrFHRQKDYrFnwfSgEYu95Q3tQ7YQAyo8opX3MB99z2PclkjlzNx458E2Wyco0e1TV3PXhSLCbZodr0prvj856lOTwN7gOq6llVTilSXeeKGMdQd8ELhNG6tsoa7zca9rxRTU4tMTf0C//iPPwaUcBsoJCkWf4JC4Qry+XPk85vaLGEVZZroa6z+tSyLeJvPhgQQC0zbzABYKcXTZ86wYxOfY7vYsaO2KniVIFYIIYToTgJgIYQQAxPu7xv1c3jU7vBtCYG3vnaDYKUNg4ZpctE02dklBF7CDXcWLYuYbW96FXAud4lc7jzFYhWYJpebx92NilMsXg5MeXMmmJp6Gffd91PetDjub5zk6NFP8KKbd6ENsfKzUPifFAp/SC73FXK56Eupt5snX/ISAE5+pIS7Za1dStepdDkh0QSWTJPUkLaDQuEZwE14daksvyObwIu9783AfUvAOWCaYrFMsRgnlxvMoGYl0wTDYK3NGRzbpokbdYc1LIuKUvh/hc3+e8S9QSuHXfktNs7cnCbhsxBCiC1DAmAhhBADEw53/TA3KvD1vwfnkfB3PHSqtNMMg6Zpcsk02dEhBE55YfGEYQysp2o+v5d8vkah8N/I53+B5WrRSyvmO3LkD4A/4OTJu1v3Nf/7HE/eBpquqHjVy3VdH0IYdAyIUyhc5O67JQAOanAt6+0BDNFhY5BSCmeIvavvvvtB4MHWz8GWF1NTRY4cuZ2TJ++mXF6+/+xvLfHU6z5FLvfsQa4qummirbH6F9z65Uab3r4x2yY9wJYMyjC6VocLIYQQQmwWCYCFEEKMJAl7x9PcnMZnPnWE7DNnuO226Hl0w+CiaeJ4vT+jKKWwTZMmbmXdINpA+Nzwt72ZmTwAux5+mIXrrwcg9mtZst70jGFgmiY7bZv5M2eIGQZLgDGQMGoS0HG71Yqgvdk62aMPdp+xA6UUtR5OSNSBBdNk1xB6wq6lx/H+P9nPfnrvGbwRLpkmFcPoGqh30jRNVJsAOQ4rPjM2swUEgKYU87OzTEoF8Lpks5Vhr4IQQgixJUkALIQQYuCiwt1ulb4SCI+PhP4kyS69VncaBgumSWN2FnXllZHzJA2DOdNkr2GgDbGiMqxVOXl9+3n8sPcigGmSAR4vlbj68OFNXbdc7lvAT5LL/W/g0KY+11bz0qN1LttVw40G166i61S7XOpv4/a2HbVBwcrlHCdO3Dfs1QDc6t1OVwH0Itmm+teyrFXT1l/73V1awl8hhBBCDIkEwEIIIdZtbk7rOAp30DvfeYJisf19H/jA59c9Wrf05BtNtmVx2S6LX/k1hf109/l3GQYXANqEwI+c2sfX7j/Ac370Ya7bs/l9gPvxoQ8d5HWvm+k6n2EYYBhcME2mAfvUKeqGse7gqz0/3BxE3LV1VE2TXA70z9vYV02sa1l1pbruYPutS0Zpm/W9613P4o1vfILLLhtepWXNNJkH1vMuML2rAqLaLlRse1UYu9kVwACLloU+YqG/EEIIIbYHCYCFEOtWLE6SzVbIZh3uvfcKjh59ctirJAasWJz0BsVarddgeK3zR5EAePSUTBNME92/HFvpLHo9fDvZbRiYQGx2Fj0UAmezDgevmUIpRSxu0bBtlnB7e9Zxh65aAjRdpwkDDdp6CX+Ddvuvg9ceYtfsLFWl3BBsQwOj4IBfAuCiaZIA0kDpRxw01hcAJ3UdbBu6DATXABLreqbN8bu/+52hPr9pmuxi/dt9HLAgcgC5FFCBFX/pTJtq4Y00YRjULIvkiIX+QgghhBh/EgALIdZtbk5rG/6J7aNd6DroMHZubj0dI8VmuGiaxE2TWiDQ0ZXikmli9TAQmuGFwPHZWTKBEDibdTh6dI5r/2CaR347jekPHOdVYNYti5ht07RtGpbF/JkzxHHDt5iuUwOSStEA0rqOPiKhjGEYNAyDedNkEmjMzlJSaoOC4F0A5HLP24BlbX0XTJOUacKBAwBULKtt3+m+WFbH9g5KKUq6jm2aI7PdjYopyyLRpu1LPzKW1bZ9TNOy2B2aNoiaeP9zb4f8zddMTvAKIYQQayMBsBBi3fzAza0Elh1zIcRKfvgbDjCThoF15kzbQZqCDMPA0nWqp05RO3BgRWj86O83SaLcnqoBSqnl+bzntiwL27bdykvLomKaJIHFeJxYo0FM14kphYNbPaz3EFBvFiNQFZwyTexTp3AMg+kNCYKlAhhgwrKoGEbrb5xSCsey0NbxN1dKUe1hIDjdMEiMUO/qUWB6gfhGvONitt12WiI0LYY7MN8gyMHX+vRyklf2RYUQQojVZB9ECLEu7qX/5WGvhhgyOdgS7VRmZ3Eiwl8ATSkaus7c7CzZHir+lFJYBw4QP3MGKxQC9yoqFA6zLIsl2yaOGyLZpknctkHXiXvhcJXBhsO7vF7BlmninDpFbc19gqUFhM80TTSlVgwGVgGa3v3rUdN1al36+zbAbRUhWiZME62HE0LdWJZFpsP7IxkxbVDviPQAWk2Ms25totyAeLLPZWp978f488v+jxBCiK1CAmAhxIaRVhBCiKDq7CyXurQuqCoFZ89iBaowO/FD4FhECKwMY93Vm/5zrFiXwPpblkXVC+38cDhl29S9PsNNpbBx+w77y9pI/qBxpmmiTJM6sEA//VL9AFiCx6iwUdN1qhtRldvjtnxJ10dyILhhKJkmGAYb0cTH9vqA74yYZlkWTdyez74YDKwVhwMkLWvVIHSiu2zW6SFwHdx+qLScEkIIsZVIACyEWJdg6OtWUMgAcEIIqJsmF3voWztlGMw7DrZt9xyC+SFw4swZvpc8jFI/IJvNklCK8uzsugPgbs8dFQ4ncYMlgKZtU7dtkpaFY5rupehea4lF3MrP9VYP+69ryTTZAdRnZyn38HoXiyeB16z5ecdFxTRZjAgbm3iDh603lNV1al0GggN3kLKptT/LWNGCg0SukWVZmHNzfP5fbuLyrMNtt60O86u2vaoKN7Zqrs0jYf/4kOpfIYQQW4kEwEKIdfFD37VcPieEGE9106RM71Wpk/v3Uz11quOgWWFKKWb1Z/PFzxg846oq//5mt6IuOLjSkmWRwA31mrjBq/8VXtZG8JfTrsWEZVk0vP7DcdumYpo0bZu4roNSVOi/tUSwT3DS6xNcMQym2r6WMbZ7+wfTC83bbZ8VxyHexwmJdpJdBoID2GEY2Ka5papB/RMdQbHQ9zhg+du6d394nibuezSpFHapRCUeB9NsbZ1pr6q+4c2bDCyngduzt87K969SigWl2H/l41xhXAQuW7WuOpAJvd6Jnn/7jWGZJmpDenkLIYQQQvRGAmAhxJq51b9l73ZGAuCA228/SD7/v8nl9gx7VQYim60MexXEiFgyTS7ST0sCV+zAAZ6aneWyHnoB+1KpFC94YZVsdoq0cj9/UoHKvlSbUM2yrFaQFAdqlrUqrML7XvHCrljga8m2iQEJXW9bOeiHzn5Y5f+c8NarDjSUAqVoAove4HQx3BB4wXGIOQ5xb3pD17GBqd27AZienl71nJOBPsGVU6eoG0ZEyDTIWsfRNGGaZNpUmiqlqE9Pk1hnTOEszgAAIABJREFUn1alFLUeBoJTSlHZgD7AF0xzVcjq317ytuF4YFpwO/fvb9h2a5v1NSNuJ/12J7AioPXfb3WWq9wJzOc/PthqQfe2zx2WRaOP936c9gcx2WyWo0dh5xfiXIyYXgPCXWQH/a6Q8FcIIYQQgyYBsBBizboNxLEdFYvfo1D4MYrFBeAMsD0C4I3eFuRkwtbkmCYOsHsN4UZKKXaaZl+X3mezDi/60wrfefdyTBVXioRlUe+wjKjl72ozf6eBpMKClZF+AGf7/YIDXzWWQzk/jNNxQ6lWEKVpxDSNOGA7DvHFReKOQ9U0iVcqPHnxIrt27qSu69Q1jSqQ0jSagJ7JENd1LpgmCdOklkiwAExMTbFkNYlxHtuyIis5g8bxUvVF08Tp0mc2ZRgbUiO9pOtUve253WsdA+bOnmW3d9uvck3gnpjw54mFHhPztqumF8YulUromrbiZEPdmz+h663Kdz+wBUh7JxdawWyb33uzt4OaaTKvFBsdiT75kzVi5sVWyOzTIsL9pxZ2w4L87xFCCCHE+JIAWAixZuH+v0ePSv/fQiFOsbgH+NywV2Xg+gmBuw+c0t8I3mFHj8pB/KBZpskly+LyPqr4whqGQdU0+wqcvnPX6sjqa8UpkuoH5HKD7a4atd5tB5bqI1hOekHgjjbPZVmW228WiDsOFdumYllomoaj65QrFaqWRcw0WbCvoMleLPuKVuWpvzOYBOqBoNLyqkphOYRselXKMdzwEVZWOvs/JwEn7taW+kHkkve97s0Tfm3sUICuadqK4DPct7VflUqFlGmiHziAZVlUKtFXLliWReXJJ5m44opWGOsH9Uu2TZzlXsHB9UtYFg3v/rqmMf/kkyRLJexQMBvzQlv/dWgqxdOmyZRhtF4jWDlM36ptK/RzDVrVrv7rmgpMD1b/trMUqET2G4UkcVs5dNNpuVHP7W8zpVKJncDO6ekVg+81vW3BD67DIXi7gD7Y4CQGXDx/nkqpRCaz/P9psVRiIlBBb5om/9/9N7DLgJfcPLtqHRPQer39++qBeWD5bxl8bJ2VmixXRZumCRzCMKJqlNsbx5MyQgghhBgMCYCFEGsWHPRNRkL23QpcJJf7Brnczw97ZQbGPxHQu8GN0i0237xpQkT4WygsUCzquH04J8jl/pV8/lDb5SiloM8q4LC5OY2HH9nJXvUgtnGxFQitqqBkZWCTsG1q3u04K0MnP+zzH1v3Arzg8qBzKBWc3qm6NBhe4a1HHEgEXg/HcVgolYBAlWdgfZO6TlzXsR2H0vw8tUaDFG4ouTeZ4Oa9n+CQ+TjOQ2mW4nGcRsO9ZH/XLhLpNDVvuSlNQ+k6jhcAapmM2wLDX79AdbP/3XZWn3xpOE4rNHMqldbfY95fX2++pDevv6xqYNlL1SoTu3ZRW1hoXf7fzGRIAI1qdVWbgRgQS6fddfWes3rpEs7OnaS+/30AUpkMiUyGOm41rB/i1YGlCxdoTE6iaVrr/gZueOsH3Skt9H9verrVSzYBqIkJarZNanqaOu27LyulWCyVWttYM3A/ofva0SLmrUXP2qKvM1AP6rR+4SB0xTqYJhw4sHpdA+vW7f3Vbj2auO+beqlE0zvhYts2KlDprJQimUrxnJsnyGYdmruMVcvr9jrCcg9hu0NYHoPWSZeZJ5o89M0Jnv2MJ7n+mnOrllN3HBrez/HAiZAqq18H/6oC/7a/Dacch5p3X8Y7CeF/TgSvkIjaLoMtbJq47/3gPMnQ53M4EPfvC37mdQrE10NCcSGEEKI3sfvuu297jwQihFiTuTmNYnGSo0fdAeDm5jJrCAHHS6HwPQqFXyaf/y/k888f9uoIMRAXTJOkZbErEP4Wi0WKxcsoFF4OOMAZ8vnPkM/f1HV5lmWBaaLWUUk8N6eRLMOeZ41mJbjfDiAYFjmWRbxUWtEqApYDmGCQEgdiSrUGwkrpOnXcENCfL1jxGGTbNqaZxjCqOF7Y6jgOtcVFks0mTcuiUSrhNJtomQyNTIZkJsOl+XnSmobKZEgCiUrFrXTNZKhUKsSANG4o61cDV7zg1V8Tvz1Fwnt8neVqWH/6igArEL4Gv7RA8BoeWMypVEhlMiQta0WgvzA/z6VKhaldu1rzx70vvOUlcYO3GLD01FNoly0PIOaHs3Hvd4oDtVB4FRxcMK5p2I5DfWEB7fLLATek8ytaE7pOJvB72OUy+tTUimXo3vTgjnq7MDJYidrORgVu/egUzpmmic7m98NdmJ0lphQ7DYOLpsnOqOcLnyXaZO5+kzt4brDtRLe2LJ20C5+jWoiEB73zT8LUvCr2VqDtVclHnUAL/tzirX+wQt52HBqh96z/cq+ooI9Yd3+9qiyH1/7yg+sSDMBh5fsgBqQ1jZTjtE7EBNcxDtS6BOKZQAAe/kyG9oF4cF27BeIQ3Z6kXxKIbx0Tjz/O4tVXD3s1hBDbiATAQog1KRbdS/RzufkVt7ezF73oFuAk991XHvaqCDEQlmVhnzmD4Q2oVSwWKRQOUyy+BIiRy30dWCSX+xfy+Z/pebkV0+QS/Q8kNwjhgMbv85vEveTe790aDDcStu22AAgMntW6tF2p5WDQcWh61bgZL+ANBnbhA/tOYZHjDWoX7iv7w7+vWJps8Oj/c2HV7xHz1rMCZLx1vbCwwOLCAincKsDGwgLJRIKm42BpGonJSZpeD+KJiYnWevrr5lfr7tA06t7rkgg8Xwx3gDv/dUnitkSoQesrHFz2G3BYlkXKNEn1cVJhcXaWmGH09VxRbSWWzp0jtW9fa7ovGPQncP/2aU1jyfu7+fO0gme8wMqysJwE55/SqaXTVKtVspfZ6Fp9ZVW6F7jVAceJc/ZJbUX/XzdIz7SWHeRvt1pGa00PhmKVisPc2UyrSn5qV51dO1dG07un6xiTS20z1RhQPX2azKFDkdmr//v6El64WfNer3roMZ0q9MulEun5eRJ79644MRJuF7GWCv3W+rXZTqKqXlvrXI9xxYkMs/9+9YmqrRjob4RBBeDh9i3tAvDw4y3vxFd4+a3leCeewi1iggG44zgdt7FwKB7DPaHk/wzu+zhYJV4LPd5vORML/OyfOPPvC1aI++uT8G43Qn/nqBOKnQLxFO7neNDTpRLpRqP1/yjN8km0BtHvv2TElQ3hqz3C74N2r+1WDcbdE+pPks+/dNirIoQYA9ICQgixZtlsJfL2dlQouDUo+fyHgduGvTpCbKrLv/hFTr/whTTPnEE/cIBicYZC4VqKxf8IVMnlPks+P0cu9yzcw7zew19wB16LnTrVV5/cXkSFt1XbbgW3S5bVOmhvhXO2jY1bZeuHtn7LgCWWA8qkFzpdtO1Wv1A9cHALtFopJL2vBG5IkLasVtDTqmj1wtKmZRHzAmYnVC3rL9dfn2Bg6l+6rgf69NaAB9/nxwLtw81gY4P90S8llmUxBVwslUgBC6US8XKZNJDUNCYch5pSZDSN5PQ0NqB5f0+tzfNalrWiB67fkzYO1L3XoG5Z2F5v4hhuT+IEK0PkhFcJXfd+5/r585iTkxiBv3+3MKCuVN87yUqpVcu1L11C9/rNTgf6zkY+p2WR2N/uFV+WsGD+zHIMlT3QaLUEjgrQbDuGRQLHWf4/HdzG/W0+ASxVnOX3QMVpbY9xIO5UaAAKSFdj1NNp93HN5qrqzbSmkVKpVtWjH1D530ulEvqhQ6S8bSIc2rTbRvy/SSpy6sp5fLsMg4UzZ5jct6/tcqN0CiPD69tLm4iwBnD+VkiyHF51aiER5P/tKhHzRwWcQeHXx7YsUiy3vfFDwPAywe0L3m59gt/bTff5gb7/GdZqdcPqKyBgOSgMLye4njvoHEqGhduFBNvRtAv0J0L3h5dfD7SBCfLfrXWWr4jotD7tBE8ItK5gYPn90G6bjeP2FG+dlAQqut76vPIf3y4Ab4R+Dofi/u2kZXEp0ManVW2taSzMz5OmfcuR4N/WD5xbzxXqBx9cH1julx48cRIM6sNXjkSJ4V6ZEV4vcD/bm7h96KO2wVVXqUScrH3kkUf4yEd+iGLxp/BOdbIcfceh1XypQS53Af9VKRaPAz9OoXAN+fy3yOcnOv4e42Lno48CUDUMKnu2x4DaQgyCVAALIdakUDhIPj+z6vZ25Vb//jP33bc1KwyE6IdlWcTOnOFbT+/i4x9/HsXiNbi9r/8H+XyVXC637udYNE0qwG4vIAof2DpeIOgHqcGq22A4iBcMWrZNHffwKqHrrapbWA49/ABgh1LuZcXec0aFG8mIqt52oawfRvrTOlXtbdUqpSDLsqh4fx+rVKJpWTiOQwZabQ+ajkNDKdKaRkPXwetRqgdCibU+d9DcuXNuler0dGt7qXtBf6uy1R/YLfC3rAKNSoXM9HQrWA9fnt3LepZmZ8n0UEk8N6dxz2cM/t0tT7Cny8BglgXnzqdbPx/YXyOjrYxEgkGRbcH5wPxBaz0IOHNmOYLdtavOrl3u8zteaDw9XWdqcqn1HE1WhpuNmRl2PutZrcDNf+/5g+zByhAzXLGYwA3pg2GSH2AGT8j4r8NF2+Ybn9d4kuvJ55d77oqtrd8K/UHrJ9APfg9P2+hA319up8C+3bSo9QwG+vPlMsmpKaI/cTqzvBY8vXwuRYXItrN80iqBGzwH1zeGW4Edfk38wNupVNwWRd68yUymdXKCwDL8ddQCbXqauJ9RS4H5mkC1UuFCJkNicZH/9Zk4ZTNO2rs2xj115n93/ys13FOaVNkJxJmZ+QI1biLFQX72tif4oWsscrmpVRXTqUALKP/+RsRtPXSFRNRrPaz9kLm5OeDQirY4QoiNJRXAQoi++X3rfNv9H3WhMA3Mk89/HMgPeW2E2Hz//Bdf5c8+8ybgCuBJcrl3kM/viQx+ow66/fB2yTsQqwVCnxhuFZHlOFTn57Gmp9HT6VaFUANaB1j+AF2+pHcZfWugrsCAXRmvTy5A3Du4CVbLurO7AV9rmYHq2XEIZgclWAkb7LdqWRa2V7GbwK1utkol4paF7biVpw1N46LjuJcHexXEMV2nqWks0T0gDk/b22igey1KWrpUlluW5W6TlQroeqsSuRI46eBXIoPXrsCvUA4cXMe9A/KL585R84LkTiHy/ivrkEyuqIKOUo/HV1ScVhqNyKrDlnh8VcXcegUr9oLvoYzXNkLT6uhqZZ2uXz15qVRi6ZnPRA/9rWK4J03a8V+XYJgRFjUIIbgV/NNX14jPX6TWJZTrFHxtps04KPPDwHY6bRdRweOgq4a6VRS3q0jejHVoRtzX7rXx7x9GreZGP6cfYu8gunoXWNFvfXJqCsfrt+zft6pSOjAtKFgd7YTey1GvdfjxO8IrFrGMS08/TWzPnsiAWgUqj31R4bv//OF19AcubQa+k8mQvnQJgF/42Tr7vz3J+WdfACqRn1fB50sCX/7WLHv3foNDz3i8Nc+5R59c9Xu1C/n99fUHlCyxMsSOA6l0mqrXvsj/ewV/D18CSE9OuifklKLmPSZ8AryJ274jWDHdANLe69tgeWDJOm7LK4B77/0OhcIVwI3kcqfJ5U4D3yOXq5PL/XDEbyiE6JdUAAsh+ib9f5cVCgUKhb8ll/tt7r77Z4e9OkJsqkJhN39fmCAOHMqe4PprP8fPv/zHqDvLl40nvUrcmt8z0DsQzGgaVibTqrzNaFpr0DK/Yi+paStC2Yrj0LBtdns9VMMklB0P/kkCv29xzbJo2jZp3ANO23GwvL6ZS5rGtKaxQ9eJ2TZNXSemFBXcg28/xFdK0TRNLrD2XtLVU6dIh8PjPn8n27ZplkrEvPYPfk/kJNDw3iv+eye+4BBLNmkovXVhcEKpViuLZuu74uzZ5cj38OE0UW8Fy7K8fsxw5kw4KlmfmZnl5U1ONpmaWnk4YRhNDCP6ECM2O0tzHYM8rlWsDta5WfQhPLcYjGFU+fbK9nqeB10slZhqM2BnULd3byxi2UHhHsH+93DAF9QpUPSndztZEmzJ0W6Z/VjL41OAxfL/hvn5+bYtIcJtQ9q1qyA0T7pLD+JgtW6nZbZOWHvrpkJtpNqtR6fnbDcdRm8f6k//9K/Yff883zzwexSLB4A9uH9B/x2wRC43Sy53DngM+AZgUSwWyefz6776zO23PMXc3CHuuMO9Tz9zBnv/fogN69SgGDfHjh3j+PHjQ3t+qQAWQog+xSsVrv3jP+bR3/5tisX/DHyfXO7pYa+WEJsumz3Hs3IVbr75fp7/vOuBozhAOp1u7Z6nvQOXFXWOXo/bYMXNqksqGw2aXrWav5u9A6idP0/NstxK0MC0hq5T8aq/uh38+D/7FcSp0MAyjdBjuo3W3mR9gy+N2kHXsPmvR+t1CVUNx2ybnbjBcFwpMrjhaRo32LhkmliAg1uBG7dt5h2HjOOwY+/eVq9mm+UK3F7+BnVdb4Wo6/mdHMtq9T9eoZdKZO92guVKvCXHoeEk3QuFKw72uSXimbr7/vBDcdz2G3VNw3biXHpSI6ZlWtt6PLM8KFxGy7S29259Mtfr4tmzlGFFP+ZBKgH62bNoEf2YowK6KMFB+qLEIuYLB2FBnS7v99vQ+JV6/u12ul2230to1+vy/MEt/fmCt2G5r69/v3/QWW/z2dnpczy47r1Us3fr/+vzP9tTuJ8P7d7rnXo8B5+n3aB94de9VTGv69QajVXzdnqeyOnelQd+9WYm1A6g12V3u08FrorZDJv1vzG41Ak5ATSyrrpqPy+ypvilOxzcgPcxL5R9AshRLF7tfeWAn2T5qss7uf32V5HPf498fn3Xu9x7b4y5uZu5994Y+fyHyOcPrmt5QkQ5duwYwFCCYAmAhRB9KxanWj1/5+a0bVf928hk+Pbb306h8D2KxZ8mn/8v5PP5Ya+WEJvuZ2/U+OVLGudf2edAh+sYzK1uGMRNk8waD9qCFWH+QXi3AZv84Caqf6NfsekPvuT3CvSt2LEKDO7mi7N82XLwMsxwz0W/p2L4UtlGm0Fqwj/7y+03+PYvSW0XfPsH6Ha5TLPuzpEOhALhL2DVpf6+qJHlo+ih0KEKoBS2v1yliHlVw7Ztc/FsCsP6LrHLLmNxfp7F+XkcoNZokAamcMOepOMQ84KShq67JzM0jbpXte6USkzF4yQCwWA4yPEHTfK3i6hgxDl/vjVPO8HlxwPfg/xLu+1KgkTFvbA/2K8S3D7GAHHbpuE42I5DpZqkdnGJpcDl8v6yE0C5WiXjLWMB93JggIT3vQmkMplWD+06sGjuool78qe6VKdSWX5XNQG7WseyVjazKJVKTMbjGJOTNE2za4gU3P5SQGwN4Zy/Pv7ylFJUHn+cWCDojgpnO61b+Pm6nQzqVonXLjT0Fg60v8S703ON6ommUT34HM1XS4jtxUyfXdHKI5fLBSp7G8B3Ab9a97sUi1WKRQ24QLGoUyzWyOXWNjB5LpfjSy+Hb3/0v3Hs4r+jUHgdxeLT5HK/Qz7/uvX8WiPPDyRhOKHkdjSs13lU/wcLIUZYsOev2w/4yQ5zj69C4ZeBk+Tzzx/2qohtZKiXuMZh4WW411OG9Fo9B/1X0FVKJZbi8bbViZ0q6BKBKsp2AV34eX2qw7Re+KFg5HoFBs0JVsz5/HUO9+qzbXtF4NTuklynsvoAaCnQry/qMeDuGDqBEDj4PDHALpXcS15xL1/2H1sHEpnMqspuWO7d6vcp8H+fcK/bFSPcBwbXgUAVYSg0Dobcuw0D09zJ/Q9lufraffzo1W7fxR3xOHHLIoEbojZsm6Zl0ZiaIq7rlCsVlpruM9Uch+TiIgkg1Whw6YknqO3aRUPTWoMH1nBDbV3XQde7VmbWKxVsf/6AtQZ0DQsyjeVXOr2vQSZiUZd73y0L7D5bQDymTvFd9SiPTZzCcSr8kOW2wviZp9xWRyWSLFWqbquKdJ1mJklSy7T+tvreDAndfR1rwHdOVfnGl3+EG15YJXdlud9feUOZuL1G1TpOTAkhhNh4ve5r+cFwoVAgn38uudyFDXn+s6+BXa95DvfxNIXCn1Ao/F8Ui38NFMnnx7fg6fjx460QeNgtCraLYb3OEgALIfpSLE62AuDwYHDbyXvfOwU8Tj7/YWBlNeSo9qDr9/JW6BzQ9Xp5K3QO6JpeQBcMutoZxuWtUeEcgecKDxYyqMtb2y0zyO8j6gefqQ2ooGs3vZ+BgoLP11Mrhf37oVSiGXHZdqf18p6g5/6D4emjWEE31eN8m3shv2vPAJ6jX0tLGi+8uUE2O4lhLIfF0222Hcuy2OENQqiDW0lcrxPXdUzbxllYoKRpTOg6WqD9RMKy3BAZd+CyJm5lcjJikLon41dhz9n88HUbsz1VKhUcx92qTbPBZZfpKNV+665USkyERobStN2R837yio/zqSs+tur+s3wTgPv4KEefvo3YuZ/myvhB6sB0ts7evSufX9ebrYF9kkA2u5srr/o+bqOOXrfizWEYBs7s7LquTBBCCLHxOg5oGmEzr8DM53+EXO5jFIt7KBR+nkJBI5+/j3xe+gGL9ZEewEKILWluLrMtA+C5OY0UE9x83ed5ce5KrNnZVfN06z8XnL7egG49/ed6ea71Xt7aab28JxirgE7+sW485Q3ydcm21zygl9geslmHbNbhmj+Mceod3edXSq38HAlsX5OWRfOxx5gyDDdQ9/oRx3SdhFLYuKFvwgt9G5ZFHLcncRw3DE4rxfkzSb798DP54et+sCG/YyaTQdPcit5ksvulrtPT06zOv1d+mj60s8hH9hV4aGex60m0z+39W2qPPMkLSzfxwvJN6DptB3zzZbMOP3edhj6jsTF1WuvTMAwuzc6yQ/qBCiHEyIjHN3bA0vVyK40B3kSh8GYKhVsoFGLk839LPn/VsFdvw0gLiMEZ9usrx6lCiL7MzWkcPbo9Wz74slmH1+ZN4PnbMgAXYhgyhgGnTknVnujJqXesf5gipRTx6enlAdxCg9MlAGybhm3jmCYp26ah6ySBplJcsm004KprdqN2Vde9Phvl7NQUZycnecGM28v/oZ1F7rj29r6X8+XpLwFwFT/Z0/z2le7XKFBKYZvmmgf5E0IIsfHCbZ5GRT6fJ59fpFD4TQqFN1Io/DLF4tPAS8jn30UuN9F1GaMs2AJCjDcJgIUQfZmb01bc3o5hsGOaZLMSQgkxaPEDBzg3O8s+qdoTA7KE2/IhHBL6P7fuD4XDAE3bpm7b/OgHnqJ2ZZyz6iw1XaehFA6Q8a6uGHQA+Y2D3qjmXgDsh7/1r0PiBavnb8xAvM1A6F+e/hK7L3+at9DnwJAjoGkYNE2z1ZtaCCHEcMVG/CR/Pv9z5PM/oFD4ZwqFXwIe4PbbF7n77o8GBqvbmoZdmSoGQwJgIUTPisVJcrnlwVuCYfB2ku6lZ6kQYsOllGJaqvbEAC0p1XdPwnA4fOb33PsTXEMCNyBueOFw2rKomCYx26ap68S8cHgJt/3ORm7nXz94kG8cOgTADadPA/CRfQUAqndB40GoP9f93nCz4VbwG38upO+MXu5nLzvOW5ytFwArpbDk80QIIUZGbIt8FufzP0KhcBvwTuAqCoWXcffd54a9WkJ0JQGwEGJN5ua0FWHwdlExTfdSdCHEUDQNg6ppSmAjBkLT9Q3f3lb0HQ79P7EsiyXbJgHEbZuKadL0+g7HvF7YZQscZyea1t9J2P3z85wrl9lXLrfaP3x0X4Gl90PtE5D46eXgl3lgEmIGNL4P9S9AZR4yfxS97I/sK/Dac/m+1mckGAZIFbAQQog+3Xff+wAoFj8LXA3sHOr6CNELCYCFED0LtnyYmxvNHk2bbf1dJYUQ66GUIiZVe2JA/O1tkM/XblA6y7Ko2japeJyYU6EyP8/SWZvq7jRLjRQO7qB07SqH95fL7C8vn7j1q3+X/h7w/qXHpoApSFwBaNAseyHwE1D/slsdHH/u6vV+aGdxvb/6UCiluCSfJ0IIIdZoq7d+ENuLBMBCiJ6FWz5ks91HHx8ntmliAduz8YUQo+PhuWfx0GcmeP4LT3HtNWl0CW7EJooNewU8fjhsWbCwGAcmSVEhvS/NUmaRqm0TB2K2jW2aJLy2EimgohQ2bkVzMOhsPOiGvrEr3LCXeYgddH8G774MxA4DFbcauF0A/NDOIs+5uPUOhOOG4Yb88jkihBBCiDEmAbAQoifhlg/F4hT5/EyHR4wXy7JoAIa0fxBi6K68so5pfh84ja5WB062ZZFgeSdn0QvGUrruBmTe/RXbhsDPS5ZFWilirKz2b3pfdaAR+FnX9dZ87a4OkKrCra8BI18h2q1yGJYHpbNMk4xt80Tqy0yehafqEN+LWwW8F5r26uXHD0L936B5dnN/j2FQSlE2TZoj/jcWQohxJ1daCrG5JAAWQvQk3PIhm3WGtCZDYttUgB3DXg8hBNmsw+urGvHHc5yPKDgMVwTvbBPqhMMePeIEjx+exXB3mmzbJgYkgCUvWI7jhsd+uBzDrcJcAha85URVkfoHOnEAL0xu4gaOhG6DOwheMHDWdB1NAqvNt8Vf4/CgdH44/JUjp6hb0HTc7SlRgUzV3Vbj34VaGpyngP3QWIAd10DD2wB/VP0b37Sez3SixLz3PNX570N861UAA6SlClgIIYQQY04CYCFET9wKYPcwr1ic3FYB8CXT5GnT5NA11wx7VYQQniePDeZ5VoXEbQKiqPA4zA+Tg/5/9u4+upH7vu/9G+ATMLtLgDuSFhJJ70paU7Yje+E4klN3rVWaB2/teq06rpsbOyobN0mT9ibrtFexnZPeuHFt2Xmo2tR1e3Ps0k7aNLm2j0RFjdw2qWVtnFrOrWdjpbZpyVqa4Aor6bcLPg0AkiDuH8BwhyAAAiSehvy8ztmz4MxgMJRmBzOf+c735wXK/j/rvtA5RCkgLmSzm4GzNz0XDlMcGioFyJQqPENAMRrdrGL2B8b95W0vAOvlaeu++dFotOp2H/iqyGi435X2AAAgAElEQVSU9Wx234WDr15KcvGQA4cAFzaOgVf8WyxfIRRXKbWFALLfhsgojH0NvvXc9xIZgkVGKL70EsVlGIy9DJa687vslWVZvGgMIdfVTRURkS5RBbBIeykAFpGGpNMREokr3d6MrtgwhiNq/SAie1QtSK0arrbheOO67mbYC6UK5mz2+rP+YWC9HCB7J4eFclVztjwImj9o7gcK5cDYHzQD9FkWhfJrf9Ac5JC5z3Xb8v+lm+bjcQCKBopXrvf9BQjFrv9dXCgNABcagLVXwdxrYf1bQK5UPdwPWEsw8b9tctkZwtEoWBZ56g9K12sO2TZFVQGLiHSF67oUdfwVaSsFwCKyo8r+v/5q4P0ubwwZ4GX77MJfRA6WhsNnvx2Oe5UnkV6Fc62gOUSp73IfbAmaN1wX15gtVdBQCpr7gI0avZY7FTRblkW+HIIH3Xw8zlePH+eu2VnedXmS337NFwnZsDEDeKFv/PqAcETKfX9XSvP7f8y3sgiEIlC8AU4eTjI0Pr45y3XdLYPS5YwhlM0SikYJlwek67Vw2LIsrmWzrBpDTN/5IiIdtbS4yEaPfB+I7FcKgEVkR5X9fw9SNXDOGA7pQlBEZEe1gry9Bs2VdhM097kua7AZNEOporm/3Ks5TKl1RrH8Hn8/5gHLwr12jYJlbX5mECua5+NxHj51CoC7Zmc5O3eC3z4GQx+F1d+C4ncg/L2w8ZflN+QohcL9EJ6A/nfXXverl7b2/t1pULo+gGyWjXI4HM5mN//7F8sBcaT837aT/y1HbJvVmZl9V+0tIhIEhZ0XEZE9UAAsIg1JJPKAF/4ejP6/a8awgKp/RUR6ya6CZttmsMasvhrTXdct9WQG1iyLDUqBb72gOVxuteEas9kyIwSEs9nrA/r5KpqhFDIXKQXN3sXvGqULYS+I9gfN2WyIXM7b6mrDC1Y3mslw16VLfPXEic1pP355kv/0mikiU1B4stTuoe+NpXnF8oM/oTiEXw3h47XX/a7Lkw1vR61B6eB6uF/MZilks/S5LqvlgLgQjW6Gw0NtDIeXbJuoMVj67hcR6Zi1tTX1ABZpMwXAIrIjx4kzOTkLlKqBD0IAbIwBVf+KiBxY/nAxdMstZLPZ7ZWtlWybodpzq/IHzZ5+YK0iaO4vTw/nwhQXSkvnXyyQvwz55TUA+rJZCpRC7UKVoDmRydA/OEjhyhXc5WXeat7KV7Nf5tvWDOGTwJHq2xg6XHv7f/zyJBxt8peuoV443E/pv9VGORwecl3y5dYSxWiUkGWRoxSe76W1hG3b5FQFLCLSUav5/JbvQRFpPQXAIlLXQar49Ysbwzyq/hUREXg+HSH93BC3fU/rvxObrWguuhA9VqovHiLE0C0bDI1cj3r7K/72uK7LDcBPXLxYmhCN0g/8yjMf4WO3/hp/dcQhtFQKj733Di2X/g6ztT/z+mypMjm5+FruuvEkueNzhLhezRwGwuWKZn9/Zthb64wtAXzF97PruqyV+w6Hs9lS3+ZsFsrhcDOD0m2MjZE3hiGdA4iIdMTGxgahcHjnBUVk1xQAi0hdlRW//mrg/WrZGHKg6l8REQFgcfEo3/zOIW77nq2DwS35Bq/zX7YWyq0MPCHf333ZLHmu9xr2/q4UAvq8vriUgtk+y2LVhbXMIEUgt9hHPrNGdqMUr3rr8fdRLFa83qiYFgJ+6blf4fdumeLxGx6lAKyWK4HdGhXBhWPwt6/8HcYHj7MeX2XD3mxwsdkio5LX3iEM5F2XI5a1ZSBAgKzvvyeUgtwCECoHxv7BAItAfznILZT/DFAKml1KvYSjts3MzCr/9tcWuOOOS3xvskgECLlLWEDIsghHo+SAPBVV32aQI7eOcNttCiRERDpBFcAi7aUAWER25PX/PSjW5udxIxEOdXtD6kinIwAHsjpbRKTTkskMiURu2zH3SK0bhTWmu65Lge0n4P6+wv6uvn3R6OY0r4q2QIhCpPS9PHIsy8DwEYrRgS3r8/c1NiZLNlv6Rsvlqn9nhIAfmH8P2C8jBPzxDX+0uR2VPZJ/4OoPc/vMO8o/rXItXeDyxtqWTx+xXCJDpRjaC20jvs8KAUXX3Zznj1j94XSholLYH6SvXrvG2rVr296TL/+Ol78b5jf/zS0s8mqWSfDdmQ2+9ugcYSBX7nVxPYRfYQgXl2NEWAJgiRHe8oPf5NxPjei7VkSkzULA0FCzTZREpBkKgEWkrq39fyMkk5kub1H7DUYi9B86hN3DFcCOE+e739ng7jf8T5LJ5M5voFRx5b94rvZ3pVqDMew0SEMRKGSzDQ/m4H1+kdrbUu99tbYrVDG9mcEldvOendbX6cEtWvF53RiQYwOI7KGHp0irveIDIV4RzvPND+1tPbsawK6KSORQ+W+IRjeo9/ZsNkQ2a5WXr/85Z1f+LgBvWvm7/PENj25Of7l7BwAn3QkAZo9cj2yHhotsRCqOFCMjHLLbe/QYGh+vOj1e/vvmu+E/vQOmpr7A1NTtvCL5pySTEa5H0CHKddXlP1FKMXUfpUg6QTJ5K4nE/j/vERHpthClHu4i0j4KgEWkLn/VSzq9/+/KrhlDzra5pYfDX4Abraew7oREItHwe4Y6HaZ1IbxzKx67bjaArjet2jKur2qvkXV603cKuevNX3NdNthaMdfM+xsJ2P3bOFB+XH23Gvldi77XAIVwGFwX15ga76r9/6fyJkKtmwr1lql3I6Kv/P+82s2GAtsf5698zH9Ldafv82B7tWMl//sbvVlS+fj/Tmq1I2g2yqv2ud4+OwQU6hwfvDYFzXxG5XYXqK7e71E5YJr/5y//k/KL2rvkjp9Rq+9ts7LZELlcn+/nQp1PhVwuv2X5Rv1A6oe3r4vSOcHq6vVLiHy+QC5X+fm9c74wOfl9TE4C/GhT77vtt0J85wDc9BYR6QVhoH9gYMflRGT3FACLSE2OE6sIgCMkkwtd3KL2WzEGe2Ki25uxozesFwkdvplcYrDbm9JTOl0xGulGhWoXbk6oDrcxez2p6sWTssqbKo0K1XgN7OmGQi2V8WPzcWdJrf61O6n3+3o/5+usu972Vq5vIxemkOvfnFdwV+vfDMjmwbe8XzFf+o7fqDavziqLS76AN+QN9eb7yHAB161ey1XryZNGb2rsdPOm2rph55s34Y0NiqEQE3/wB3zrx36Mb/4tKM5sv3nj9WP22+nmjV8zT7r4n0SpdXOmmfXsZllvUL8QMEjwbt40o903b4JAT97sT47zDFNTV3noobu7vSk1hYCQWkCItFUvXmuISI9KpyMkEle6vRlts2EMhR6v/AUwxpB/eZhbxhX+ikh7HbQwIAi/b58Lh1auPwNw2N4gWmezI2SJbGzvav/xH3wv/+hP/iXZgWWstcN84c5P88N/9W7CxT6ejz3H4XycPzr173jDM/fxMvMKQoT4xs1f4fn4d7j98XdtrmcoVmRopECoeH2bonYRq80tIFrJf0F06Z/9s6brl3vxgqoVN2/8Pxc5eDdvvGmtunlTzW73nWL5/2+jN2+qPYVS9cmmKk/eNPJEVCPq3azZy82bnZ682bKuip/3+82b//LoS/zuHxZweTMFjvLme6EPlwKHt71z+82b7wK3c/59L3D2bLq5Dd+FMDCgAFikrXrxfEVEeoS//y/s/wHHFgNS/RsHMgEIKUREpHf9oz/5lwBE10pBwJue/nub825euBWA/+Mr79/ynlc+/3pe+fzrmWUrf/grvSEINzNa6aD9vt14GqgX6cmb66oF9X9r0sa1FpmamgXWmEgaYMW3RLVbAl6U/BKJxCFiw51pheMF+iLSPr14zBORHuEPfCvbQew3hYBU/wIsBCSoFhERERGRxrX6ZsbkpMXkJExN/Q6Tk+8AjjT4zkPAC5z41xtcekP7b/LlXJfoQbuRI9JhCoBFpKr9HvhWumoMNwYgVM0bQzEgQbWIiIiIiHRfKfxt3qWfD7NgDP3Aouty2LI40oZrkTBQvXO8iLSKAmARach+HgCuYAzhoISqrgu6Oy4icqBFo413hoxGo00t34iRkevri0SKLV+/iIj0jqFyr+SI6zIILBvDADDUwuunMGoBIdJuCoBFpKp0OsLZs1e2/LxfB4AzxnBTAKp/XdflxWyW4+Pj3d4UERHpEssCy2o8cG12+UaMj+syXUTkoIhYFovGELYsllyXQ5ZFIRolMzfHIctioAVB8PLiYpWB6ESklRQAi0hV6XRky+v92g6iYAx9Aan+jWSzHA7ItoqIiIi0kv/cdDf267msSCf0A5Zts0ypUnfdGOLj41w1htDMDJZt76kiOASst2hbRaQ6BcAiso3jxEgmr4/4mk4P7duT5ivGcEsAqn8BVjT4m4iIiBxAFy7YLC/3N3U+uj0wjrVse/xPyYkcBJZtk5mbIz4+TtYYNiyLF2dmGLBt4hMTLBhDfmaGftvG2kUQHAbUTEikvRQAi8iBtW5MS3tXtdM1YyAg2yoiIiLSSocPr3Py5EqTBQntGbtir5XIIoFlWRRcl6htk5ubY2RsjEVjyAMx28YAS8awUb5uaebJxcLaGoTDbdt0kW44d+7c5uvp6ekubkmJAmAR2aay/6/jxJmcnO3iFrXHFWMYDUhF7SFgqdsbISIiItIlvfI0Wq9sh0inxW0bMzeHbVmMjI+zMDfHYdvmmjGMALZtg21z1RjWjAFjKNg2sQaC4BCqAO5V586d64nwMsimp6c3w2D/62rLtZMCYBHZ5iBUNqwZQyRAFbXXjOFYQMJqERERERHZf0KWRdYYorbNgG2zmEoxMjaGm82yNjNDaGyMo+Vq4CvGMGIMK8bQNzZGxLJqr3d9XYPAdUit8FHawwt1/eFuZdDbqf8nCoBFZIt0OlLR/3frz/uBMYasMYwFJFAtGEN/QMLqXrh5oMocERERaaf9PECySD1HbZsrMzNEbRvLsmBsjJVUiujYGFnbJpxKsWTb2OU/xhien5/n2NNPs3L77aUq4WoKBYaGhjr7y8iO1agKi/em0YreTlVYKwAWkS3S6aG6P+8HwxCofrrrxhAdG+v2ZuzIcWJNXRC1LywuDfKSTC7o4kxERGQfSCTy3d4EESkbsG2W5uY4Mj6OZVlkbZtsOQR2bZv1cl/gIV8QDJAxhnVjWI1GS+Gxj7r/dl61ylTZ3xQAi8gWpYrfhZo/B50xhgVjuC0g1b/GGPLRKLfUeWSqlyQSuSb2l/buV71QjSwiIiJ7l0jkcJxYtzdjkwJpOciO2jYpY4i6Lv2WVar0BfKpFNbYGCvlvsAx1yU6Pr75vni5IngtlSJi24R9BTmhDTWA6JRmAl+Fw/uLAmAR2aJUwXml5s9BdwQCVf0bAxYCEv6CLohERESkPXrpHENPGMlBF7VtcsZwuHydYts2V4HVcgjslgeDG5mZIWfbHC1ff3kDxRljiMzMELJtLNtmCA0C12nz8TgAo5n91e5RalMALCKbqvX73U8nuMYYMsZwe0CqfwEWjMEO0PaKiIiItMNO56T+kern43F++QMfYOqBB3jq+HEA7p6d3bL8U8ePM7qwwKeWlnjT2Ni2+SJSm23bzBpD2Biscrh71La57LocKbeD8ILeEWNYAo74inD8QXDfzAzF9XUGBga69NscTPOx0lMVCoAPDgXAIrKpst+v48T2VQB8GAJV/Zs3hlCAtne/tQsRERGRYPAGKvr4mTN89S1vYeT0ae77j/+Rc8ePc/T0aQA+dOHC5vLT09N8IZXi2Y98BIB/C9z9wAMd326RIDts26waA76evreMj5Oem+NwOQSOjo1xJZXi0Pw8fVV6/3pBcBjYWFzEHR7etoy0h256HTzqtS0iW/TS43WttGAMc8bUHnm2F7luoB6F6rWbBb22PSIiItJ+/+LDH+bZBx/kU+XK36sXLnDVF/56fqVQ2Jw3pfBXpGm2bZOPRikas2X6sG3zElBMpQC4dWKCvtFRiqkUVyuWBXBdF6u/HzccZjGVYqPKMiKydwqARWST48S3hGb7qaLzkDGMBCj8dV2XdDYbrMBaREREpAump6c5evr05qPM1QYump6e3ja92jQRadwR2yabzZJ33c1plmVx09gYVymFwK7rYts2obExVo0hWyXgHQBuueUWEhMTXAPcmRlcBcEiLaUWECICeIO95bZN2w+WjWHNtgMVpg5lsxwO0PZCqXr88ceP7fK9ra/WTSTyqgIWERE5IKYeeAAuXtz8+SdnZ3niE5/g2QcfBK63iVDgK9I6lmWxEI1SMAZ8rRssyyJr21wzhqOpFO7YGJZlYU1M8PzcHINAn+9aZ9C3zsr+wMsBu44T6VUKgEUEKPX/raz+3S/h2aAx5AN20uAGcPC3RCJHMtntrRCRg2BpqZ9UKsrcXJQf+ZEXur05ItKDHn7XuwB408ICX33LW6q2gRCRvYvZNkupFPgGhINSkGuAjDEceuYZeM1rALh5fJyrxjBsDP22TT6fp9rwb14QnDWGdWNYrdJDWEQapwBYRDb5+/9WBsJB5RpDLmB3jZfKFctB1Mw+4x+tu9FlGnmPiOx/R46s88pXLvHKVy51e1NEpEdNPfDAZtUvqPJXpF0syyJT7gXsVoS0XgicvXaNfmM4VL7GOVqu8D00N0d+YID+8nqqiZeXXUulGLLtLZXDItI4BcAiApT6/05Obh0JdD8MCNdnDMWAnSQMAavd3og28y7I/IGu/yLNUxn+Vr5HREREpJpz585x9PRpoDQwHOX+wCLSenHbJpNKEatoBQGlENiNRllMpRiMRhkoz/fC4ZWZGUI7rN/fFiI6MwO2vaXaWER2pkHgRHrYuXPnNv+0m79y03Fi+6IFRN4YVgJW/Qtw1ZjAbfNe1Nu/dwqFRURERGpR2weRzrAsC6JRChUDwvnnD4+NsZJKkfXNt22bwbEx+ldXWWpg0DfbtrEmJsgC+ZkZjAaKE2mYAmARwXFiFQFwnLNnr3Rxi1pj3RiK3d6IJhWMYeAAhL/+ELdeoKuwV0RERHZjenp6swJ4VNW/Im0Xt20WgY0aoaxlWQyOjVFIpXB9IfDAwAADkQhZ12WtwUDXtm2GJiboo3TN51YJnUVkKwXAIrKF48RIJoN/krxWHvgtaJW0q8YQjUa7vRkdMT093XAQ3MwyIiIiIv6niObj8S5uicjBYFkWoWiUa9eu1V0mb9ts+ELgtbU1BoCbxsdZolQQ06i4bbMALKRSNYNnESlRACwipNMRkskFHCcGQDK50OUt2rtVYzgasPDXGMM1jW5bk8JfERERadT09LRaQIh02Oj4OIyM4NYJY23bJm/bFH3LhPv6gNLgcBkgPzfX8Gfats3NExNcA5ZmZsgrCBapSoPAiQjAvgp/14whZ9sc6vaGNCkGLCj8BRT2ioiIyN54FcCjmQzzsZjaQIh0SLxc4UudYhxvALhwOejt6+/fNq84M8PG2FjDxTH+geKYmWE5gE+DirSTKoBFDjiv/69XBbwfrAR0ELXFgG53q3gXagp/RUREZK+884mvP/10l7dE5GCxLItMNMrqDpW4tm3jWhYrly4RqjJvxbZZS6VYaLKit7I/sAaKk245d+7clnZE3uvKvytft4sqgEV6xGc/O8rhw+tbpv3cz31l8/Xjj5f+9g/WVks6HdlxGW896XSEdDqyLwZ9g9KgA4UAhqh5YygGcLtFREREelEnLqZFpLqjto2bSrG+Q3s727aZO3KE8Opq1XluNErWGNag6YGy4+Vq4FVj2ADCutYCahfd7HTMVJHO7jUTArfzv7MCYJEeURn+1tJIuNuMRCJHMrnQULAcBBljsCcmur0ZTes3pu5jUgfB9PS0LtZERESkpV59552g9g8iHWVZFlnbJmQM7NDCoa+vjxClat3+iushy7KwLItrxjBsDH1NXi/520IMzswwaNsMHfBrLo8/bPReVwaQnXhCs92hZzf12u+lAFgCL52ObPav9ULMRCLvmz8UiNYG+6UCt5sKAa2idV2XF4HjAdz2VlL4KyIiIq3ihRlff/ppuPNOmJ3t9iaJHCi2bZMyBtt1ie4QAg8NDnLFdbmJ6pW+I+UQd3hujoHx8V1tixcEF2dmyNo2Iwf82ssfTnqvawWW7Qxpey0k3c8UAEvgOU6sZgWr194Aej8Alr0zxnBTAKt/h7JZDh/wExARERGRVvJuLL9pbEwVwCJdErVtaKAKmIEBRsfHSc/NcRQYrHJt5A0Od3hmhkITg8NVrgPbLrWVMIZFb9oB0mzgqoB2/9AgcBJ46XSkZvuCdHpo37Q2kPoKu3gkqFe4B3zwNxEREZFW80KLL6RSXI7Hu7w1IgeTbdssAhuuW3OZQqGwGUwlxse55rrkagzcZts2y+XB4a7uYXC3kfJ2rRrDhgaJq0nh7/6iAFgCLZ2OkEzWvqNfCofzNefL/mECGqIuG8NaALe7HXSCISIiIq3iby11iyqARbrmiG3j7hCy9vleHxsfZ8V1WakTAg+MjeEaUzMoboRt29w8McE1YGlmhryCYNnn1AJCAi2dHtphfoREovHeuqWWEfXX6WlFsKzq5NZYD3D17yCgWxQl/pFQFQaLiIhIq3whleLubm+EyAFlWRaXjSFsDFaVa7Z8Pk90aOs1eNS2WUylWAdiVd5jWRbWxASX5+Y4Bnu6Fgxyf2An7my+TmaSXdwSCQIFwBJopQrg6v19S72BG7vb7w0kl0jktg0gV/s9jQXF/s/YLran9+8lQN7be3cfWbYj9H7BGG4JYO9fgKvGkAjotreLwl8RacbaWoiBgWK3N0NEeow3CNzVJ5/k6BvfqBvMIl0Ut202UimoEQBvVPTztSwLxsZYTaXIRqM1B5G7ZXx8T4PD+QWxP/DU8amaIbD32ok7PHTxoY5vm/QeBcASaM1W+FZ7f6lPcJ6zZ7evp7VhZfcHoqseQjf63qGqr5v//MZD78r3Tk5uH7153RiGevyLuZaCMVVHuT2ovAs1EZFmKPwVERHpbZZlkYpGGTSm6gBv1XqTeiFwIZXCrTPoWysGh/MbKVcD541hAwj36PWaE3dw4g7JTJLJ2cmqFcDnT53fEhDLwaYAWAKr3uBv3vxqoa43zwt+a1UQ70fdqhi+bvf/rR1ne3Bsyn2fRgNaQbtqDHZAt11ERERERKRRR20bN5ViPRrdFtLWGpzKsiyMbRNpMAQeTKW4atsc3WNo628LMTgzw6Bt93TRkdo/SCMUAEtglQLc+gFwtWmP575B+o6vkHi9+u/u9m6gd5ex24ah6mNEQXDVGHLRKNFub4iIiBwo8/E4AKM7DIo1H4/vuIxIEBx94xsBtZgS6TbLssjaNiFjoMEAGK6Hu5Eq76tczo1GWUmlyFLqI7xXQe4P7OdVCsvBpgBYAq1WL9rK/r9exe/jr//3pF/xP/UYRCts78bQVpX/r40xLBvD8YBW0BauXWNoZKTbm9FT1P5BRKT9Hj51asvP/+iJJ7Yt8/EzZ7b8fN/Fi9vC4KeOH+dyOUyGUmBcbV0inTQfj/OppSV+8sgRRjMZ7nrssc156gEs0n22bZMyBtt1t/T1LUbrl8V4IXB4bo5onV6/3uBwz8/NMcjeBoer/PzK/sCPPprGcX6chx662JLPEGk3BcASWI4Tr9oTdvtypdYByeQCTiLH43GHyUuTJBdaewfsIN1RO3/qfLc3gSMQ2Opf1xgKGxt173SLiIi0w30XLzIfizG6sMDDp05VrfQdzWS4pTztqydO8NXjx7cvs7CwJQC+76IugKX7fvkDH+Cuxx5jtHwz4uqTT/Lsgw9y9PTpbcsqEBbpjqhtQ2U1b1/fju/zh8BDOwz4dvP4OFeNYdgY+lt4zej1B14xhm98eRZnJr7zm0R6hAJgCaSd+v/6w+F0OrKtz29yIXmgAtv9xhhDxhhuD2j176Ax5IFEQAPsdvEGgdMFmYhI+4xmMpth7l2XLlVt8+APc0cXqvfvn4/FNkPi0YUFtYuQnuLd2Hj2wQcBuHrhAnA99NVTRyLdY9s2V1yXIdclbFmsra0R7m8smvJCYBoIgY+Ww9pDc3Ns2PaeB4fzb4Nt2+St5xnhMvkAD0ouB4sK0CSQ6vX/rQyH/T+r9cP+cBiIB/hLdgk4HODtbxddjImIdNbdszs/SeUPjLdMX1hgdGGBu2dnFf5KT6p2XuHdYNaNZpHuOmLbuMZs/hxq4r22bbNsWaz73l9v2RXLophKYRpYvhmOM881bmEZyM3McK3F69+JCtqkWQqAZd/xh8OVvYA9OlgGV8YY5owp9WEKINcYViCw299OuhgTEQmO+ViM+Vis25shsoVX6bsTLxzWzWeR7rAsi0UA1wWaD6a8KuK1BkPg0NgYRWO2hM7VxOPO5p+dDW2uP1J+MnXNmJYHzSKtohYQEkj1+v9Wa/kg+8ewMRQCHJ6GXBcrwNsvIiICtVtDiHSTv9dvvVYP3jzdfBbpnrhts5xKsbS01FQFsGd0fJzn5+a4ARjY4frKGxzuhbk5Bmos/xd/McIP/RCcani8mz8AiluWf+EFl//2KHztT78H++QZJien+I3f+Mfcf/9TDA6uks+Hede7fp177vkSP//zj1Ao9NHXV2B9vY+VlVfzmc8c5/77az+dk2mykC2ZSbbtKejK42u7j6c6Zu+dAmDZd0otH64A24NiJ+6o+jfAFoxhORplNMAB6ko2yw079KsSERHpdQ+fOlWzh7BIt41mMnWre/0VwAoURLrDsixS0SgbS0u7XsfN4+NcmZtjBBhs4BrxpjqDw33f910D4NKlyR3XE4873HuvA9y4df03Wfz1H4SnnkozOFiqJP7Qh/7BlmX+4i8+VXO9v/mbO370Fv8D+GDc4cyZezen+UPitwFTza2y5/iP5Tpm740CYAmcWm0dqs2rN1CcBEs6PcSrLMN6gMNf15gd704fNN4Xeq0vcv9gLfqyFxHpHXdduqQqYOlpGuxNpPcdtW2Wl5dhY4pfvQYAACAASURBVGPX6zg2Po6ZmyMCHGrgWssbHO5wlYHkMplkQ1W2s7PwxS+ukEwmuXjxoW3z77gDwjl44olJMpkBrl0b5NZbV/jYxyY4fdrw+tcb1tfDxOMOQ0MbXL4c49d+7c0MDhY4f/5PuPXWUhuJWKx+9e4TJ6Y2t7uaeNzhV4FcNszv/M6t/NRPPbfj79aoymOsrtd6nwJg2bccJ1Y1AFYFcDCtLb7E8rgd6N65IWC92xvRg2pdoPmn6WRCRGRvnjp+HGhs4LdGtGo9Iq3k9QCej8frVqcrHBbpDZZlETp8mI09Pk0StW0WUynWgVgD14u2bWOAwswMjI1hWdZuPhWoHVxvREp/x+NrxONrADzwwMzm/L6+DbLZ15DNgmXBRz7yjfKccTKZUjC9Uxj9qyemSGaqh9AAnz4+xdSJKR6KbrQ0/PXT8TQ4NAicBE69Hr+OE98yL5HIX5/Xpt430hmRhRcpdnsj9iiEBn/z26lv1PT09OY0nVSIiOzN6MKCKnZFynReIdI7LMtiLZvFLQ8It9t1DJcHess2uB7btmFsjGwqxeKuBm6LQuCvUPfGu1bzX7cF8TMOCgXAEjjpdKSh5RwnrhYQ+4RrDJnYjYEOT5eMYaXbG9Fj/F/g+jIXEWmPp44f5+FTpwC2VEQ+fOoU8/F4yz/v42fO8PEzZ9qybpFW8YIEnX+I9Ib1oSFCuwphr7Msi8GxMQqpVMNhsmVZ2BMTrLkua018vuN4xWW7b10hjdOxujUUAEugNNr/t9pyTrl/TnKhcy0gHvjcAwBcMpc2p20U9/Ylcf4Pr48y+qVvf4l/+tl/uqf1BUHRGI4FPMxfRdW/lapV3+jLXUSkdebjcb564kTV6QDzsVhLPsc/oNYzH/kId126tBk6e5/38KlTm39Euu3cuXObf0Sku1zX5ejwMIvA2h6qgKEU6OZtm2ITITCAPT7OMlBoKoQ+ROkZT5FgUAAsB04newB/7Ec/BsAJ+8TmtHCouX92j339sS0/P/TO6/197nn5PfzGO35j9xsYAGvGkLdthodv3HnhNnOcec6ff5Tz5z/R9Hsbq1s/WKqFvf4QQURE9mY0k+ELsRifOn6cn73nni3T77t4saV9fL3j9rMPPsiHTp3ivosXN+fNx2KqCJaOOHr6dM15evJIpDet5fNsDA5yxLbJ77EKGEpFNznbptjkukZsmwyQn5tr8B0RIL/jUiK9QoPASaDs1P93cnJ22+uge8ur39LtTeiqVWOIjI2xuta9bZiaMjjOq3CclwODwP/i3nu/j+09n8JsfwyojzCr3JT430xOTnP27NlObHLgVesHLCIizam8mdbOEbore7b7203cPTurQeOkI7xB4BqhgYukF7TzuBwUXg2tZVlcNobDrlsaFW0PvEHewnNzRMfHm35fcWaGjTqDw50/Pw2cxnEO4zgZksnevsnpxJyOFsJJb1IALIGSTkdIJK7UmH69RYB6/+4Pa8aQs21sy2JxsXvbMTlpMzV1GccpAKeAx0gm/1d5rv+xn1CVaYeAfhKJIolEogNbuz9Ungzr5FhEZO/aGf76gzQdr6UX6dxCeo3/ybd274u9vr9vRErPS8Ztm+VUisMTE3tepxfmhubmiOwiBO5PpViwbWJV2vglkwUcZwMY7vnwN0i8fxO9vK8GmQJgCYzKkHfrvKHNeY4Tq7qcE9ddr1ap/O9Y2V/ppcuXGR4ZqbsOr3Y2BFjRKFCqnw2V//zXL93GS3+1xJ0/+GxP9M6dnOxjcvIlpqamSCaTJJON9nIuVUCF1mH095OktAs2RF/6IiJ718kKx8oKYJFe1sngTaSaTj2h4f+cXt7fvWtDy7JIRaMMGMNQC64B/SHwUJMhsBuNkjWGNWCgYlsmJ/8258/nmJz8M2Boz9u5F07c2XmhDmrFeUAv76tBpgBYAsMf8m6ft7U1RCJRvRdPNwLgdNrr/nqp4QrQZhrWZ7NZYGvNab/vZ/8/8oJvvf5OxP7X3vv6yustlKcVyyFtEQhjyM7NlaZXbM96Ps/688/DxgYhIByNUiyvpwgMWhYblBolRCvm+R+xKf2/fjnw7E7/CTpqcnKyoeXu/omf4Knf/d3Nn4v9kPqJNm3UPuKFFfrSFxFpnW4EwSK9ploPYN2wkG6p3AcP8rGz8pryqG2TTaUoRKM1WzA0wwuB+4yhv4lQ2bIsLMvimjEMG0Of772lgqAbmJx8Yc/bt1955x5vm7wfgEemPgPA2ybv55Gpz2xO93jTvOWk9RQAH3C7Oelp5supleuv1//X3xqiVv/fblUAp9MR/urLeazsn/L6N9zKDbZNGCiUw08ofelVqyf15g9YFgXfNP/rsG+5IqVQtdo6oBTG+jXyhVrtILFx3CZK7TuowydP7rjenSSTGSIpyI0Fs2TWH/5K43QhJiJSnzeY2nwsBsDowsKW16OZDPPx+GYPXu+86iCHC3JwTE9P89SlS8zHYlv6UMP1ijK1K5GDJCg3O/r7+jZfW5ZF1rYJGbPnXsAe27aZn5vjJrZX8+5kxLYxxjA8N8eAr4r4oYd6P/xNLnTvWrpyn/MHvpXhb61p0loKgCUwavX/dZwYyWRmcxnvda9IJHK4d65iDb+KW5LXD8D6x7ez3Fi3t0A6wV/54F2Y6YJMRGS7+Xich0+d2jLtqzVe33XpkgZekwPJ2+/f++Uvc/v73sezDz64Zb4Gf5NestM5b7UbF/XeV+08Ogjn1n0VP9u2zfPGUHTdllQBA4yOj3N5bo4baT4E9qqIj8zMsF5ncLiDrl7ou5t19fp+GzTKoA64dv+DatX66/X/3bpc/f473bgDlrgpx8DaHDckktvaJYjI9uOEQmARkepGMxnuu3hxs8rXm+ZV/M7H48zHYlyOa0AakX/65jfzyx/4wLbpCn+lF9XbL6vNa2Y/7vVz6uXFRUK33rpt+mCLq4ABbhkf58rcHHFousewf3C4q7bN0R4Yp6bXVN6sqNbqoZl1SWuFd15EpPvq9f91nPhma4habSK8xuhOrPMN0t2cy0o2S3Gg4x+9r+wU7sv+0Ez/X29ZEZGDxHusfTST2fLa+/vu2VluyfTW01Ai3fCz99zD1QsXOHr6NG9aKF0f6LxBelXluW+tx+WrhWnV+lsHzXqVabZtswisNTE+TiOOjY+z7LqsGNP0e23bZmBsDNcYsrt4v0g3qQJYAq+RymAoDQA3dWKKqRNT26b7/4atlcJ77Rvcn81u9uztpl4bHbRR1wfRk4Og1mOZ1R5lqzZdRERQ6wc5kOZ9le+jmQyf+NKX+Nl77mHk9Oma71E/YOk109PTfPLzn+U9b38H73n7Ozh37tyWwbG86Z/8/Gervj+IT9FVG1jcc8S2WTWGgRa3XIjaNoupFOtArMlKXsuysCYmeH5ujkHYMjicbLWb6l8NBNc+CoAlEGoO7ObENgNg/+tKyUyShzIPXX9flYrgzWl1gtJqYTFsDYynjk9tWcfo/wdXjsP662qutrYvnoHZE7t4Yw2XmlzXiUtVJydyCRKXju15c5rRaNAvB4P694mIiIhn8mMf467HHuOZj3wEgGcffJC7HnuM29/3Po6+8Y0885GPbIYKzfRTFek0/775nre/YzNA80JgL/j1QuDKMDiI+3KozjzLsrhsDIdct6WtICzLgrExVlMpstEo0V2s++bxcf70TwzHojm+5w0qWqpmNy0gFP62jwJgCYRGw79EIt/QclWD3Ip8uV5IXFlFXGv9AEdcl5uGLIpNPI2ZTkdIPvILJL7/W3DmUuNv3MmZ5iqCkguvrT3vFdsH5BNpVq3KXhER6Q31BhTS0xjSa/wDvn31LW8B4M70ZW4pT3vb5P01+6lqP5Ze4QVm/mDXm+YFvt48LwT2QrMg7svr6+t1n5iN2zYrqRSHJiZa+rleCLyeSuHuYmA3x3H457/2BiYmbuBfjf8ZRdvW4HB75A9/g7gv9zoFwNLz6lX2+iuDa1UJ71YjITGUQmEvJE4uJLdVB2fn5nAtCzvb2KMhjz9+jGRygcT354Cbq36myEGmkwERkb2Zj8d5+NSpzZ9HMxm+/vTTHC0/Kv+FWGzL8r/W17c5D+BNCwt8vPz31QsXePjOO7nv4sWObLtIPV6Vr7/irLJCsnKebj5LL3vP298BsK3a1z+9VjuIoAgD6319NedblkUqGqXfmKYHbtuJZVm4Y2MUdxkCwyCWFcG1LCJdGBwumUn2dKvHZqt//e0fdL3XegqAJbDS6chmMFwa/K07A54kM9tDX798Nku0yS+BysDb64PrOLFqi+9aZX/dRCJHIpGrOpCeSCc08kXvX0ZhsIjI7tx16RK///u/D8Az5WlXn3ySaxcuVF3+6oULXH3yyerrOnKkHZso0jCvz68XitXjtYEAAh+cyf73yc9/dlv7h/34iHytHsCeo7ZNPpWiEI22vMrWsiyMbRMxZhdtJsJAP7Zt40ajpZYS0PT1f7s5cScwhWXqAdw+CoCl59Wq7E2nh3wB8FCnN6thf/joBj/9T3b/JeU4MdLpCCdPrtQMZtUfV/aLRh4n9oe+Cn+lG3ZTLdbIQIa6oSGdMprJMJrJ8CHf4/LVeG0evvqWt5Re+5b396UcfcMb2rq9IjvxblxUC3QrKycr+6gG+dF5ORgqqyjrVVUGcR/Or6wwODBQdxkvpB3YVUi7M9u2MUBobg5rfLyJd/YBBcL5fFsGh8u4GQrFAmuFNb707S/xzte9k+X8MtnVLCOHRsAF4rC6vspg/yB//uyfM3FsAvtw6bPNsimvCB79y0c5YZ/g1aOv5rmXnuPWG27l0b98lLe+5q0UNgr0hWtXYTei8vx4NwPAATomt5ECYAmsUtXvwubrs2d7ryftp6e+yx88+gru/kGHZLJ2lXAtjz9+jEQi15O/m0grVX7BV+svqZMA6SWVg7J4jxH791v/iW8jVWbav6Xb/Pug91ixt097r70wzaMqHekFI74WJc0I+uBZsj9Vti1phFc1GcTz5bXVVTYaWM62bdLGUHTdtvTa9ULg8NwckfFx4g21VggBBTaGrhek3Tw+zlVjGDaG/j2GwHErvvn6na97JwCHhw5zeOhwaWL5P8Ng/yAAf+32v7bl/V4QTBze+pq3bk6/9YZbgevT9hr+VvLOHXYTAqsCuH0UAEtPc5xYzdYOpRYQvR2M/oepHwG+y9TUwzz0UOMBcDod4fHHj3H27JWOVfd67SBUTSztVqt60h+a+Xs/nTt3rmbVbxBPciXYau2/n/z8ZzeryrxA2D+vGu270iuqDTjk8fZp/3w9Ni9B00gQoXMK6SWVvawbWT6omokeB2ybUJuqgOF6CDyy9Cinzvxm3WWvXQP4JvG4w5kzf2vb/M99Dv7Xf/ppxl97lHB4mFwuwunTF7jttu/wqU/9CD/5k/8VY2z6+koVxwsLMf7H/3gV//2/n+Dv/32H173uG5vrWlioniXcCzhAPO6QqdOWshO846d37bZbQd6Xe50CYAkkfzBcb5C4bpqaClHqCZQFXrardZR6/pb6/lb2663Uqv8GyaRCYOk8/6At/sd+/KqdSOhCTTrFv//5L8gqL878g7LU441Er31YekGzQYP/fSLddu7cOW5/3/vqLtPI/q3jsfSK3VZOBlUIWG1wWdu2ueK69LsuA20MgVPmDYT/1GLAV8Ebi22tCD5xAkrX+0UuXZoE2FI1fPvt8OztfSQSOe699/HN6fG4wy/+olN+vfWzT52C8+cb39a3AQ8Bp05Vf9MZIAN8Me5w/PgUs7OT/Ot/fZKf+7ln6e/fqfNyd+mY3HoKgKWn+ds81JNI5DuwNY1znGeZmkoA14AvMDn5vQ2/16tsrtb3eLcUMkgv8j9K7O2j/koz/6P1lY8ce2Gc9m3plMrK81oXZv4BWqotU3mjQ6QX7DZo0L4svaLW4IWN0H4svcZfGHEQhICBwcGGlz9i26wa07YAGEoh8MzcBImMtdnLt7LC1nEcoMCJEyeYnZ0EYLbiEv71r4eTvx7i4sh9fPGLNxKJbPD932/49//+Nn7mZ77D7/7ucUZHXf7G33iRZ545xIkTLo88cgvvec9jfPSjP8wv/dJ/q7mNsZhDJu5wb9zZDKArxeMOZypaWfz8zz9TddlmVWvZ1wpBbmfS6xQAS0+r1ebBPzBcrUHiuimZvJ3JSYvfn4rzyuTwrvr/VqrVE7WeRpYR6Rb/oCzeo/P+6knvy98/Wnfl/qyTAulVtS7avJsalaPQNzJyvUgr+Y+nXvh1UMIG2b82Tr6c8DPfbuo9GnBIeo1/cMKDIFQoNNQD2GNZFpeN4ZDrtq0VBMDo+Djzc3Mcgx16+davpH3m/yrNv/feFzen/czPfAeAn/iJ6znGyZMrAPzoj86TyST5mZ95sW5bh0wmyQfj53FgM4CuNDsLP3DmXpKZJPfWWGYvWhX+1tvfdWxuHQXA0rNK1b/V+/96LQrqLdNtjnOCAb5DMrmy53X5qx0rpzXyPpFeURk4+EOvagNe1OtLKdIt/hsSuwnMvBsc3gmtwl/phloDFooEWbPhr58CBuk2/6CbndIL4VoIGOhrbhCyuG2zaAzDbQyAoRQCvzA3RwwYqhoCh9v6+b3Kf03nPy+enp6uWoRWGfDu9ORF5TpaXWV8UB3MvbVJe21iLbuTTg9Vne7v+Vtrmd6QI8ciMNftDRHpSZWBg3eyWysM8w8M59GxWYJO+7D0goNUaSb709VyC4iNky/f9Tp0PJZu8/bB97z9HQ0FXa04dnc7UHNdlzAwEKk/3k0ly7JYBPLGtGW7/G4aH2fZdVmp+ll97FQBvB9VXo/5n1auNbC39weq7+OVy1TbN3Wc3htVAEvPaqT/bzod4ezZ7S0iesFfOXEKjLZsfXupzvF66ED3v+TlYKu8m+uvcNhp8Cx/Pyj/+kSCTPuw9AJVAEvQHT19utubINIylU8Y+dv0VAt9g34TbwAI9zcfTR21bVZTqRqVua0VtW0WUynWgdiWz1NNJVAztK1W2ONdD/rf00iwq3PmvdPeKj2r1P83t22648QbGhiumxzHIcoSRZyW9P9tFR00pRv8gW6tL3ev/UO9XqiNVkOIBIH/Yk3VDLKfaH+WbvAqgN98zxmgdM7QaB9V3QCRXuSNg+Hfh/dj+AvA2tqu3mZZFqu2TXau/U/cWpbF8NgYRWPIuS4AjnMV+CqO87W2f36QNPIEfWVg7G8jUW3MF10DtoYCYOlJtcJf/3R/K4he4zgA68CllgXAe/ly14mtdJM/0PV/edcKemudMHgBsX9/9vfH9v8Raae9PlFReTzXSa10ylPHj/PwqVPMx+NtPVbqOCyd5q8AbqaveuV4BCLdUu246T8/qPa4fK15QROGpgaB87Ntm4VsFrccyraTZVkMjo2xlkrhui6Ocw14OY7z5rZ/9k6cuNPRz6v1Pb+XMYv0xHL7KQCWnpROD9UIgLdOTyTyndysJvw1YI1ksnVdVvbaAkIHUukFle0fvAod/+t6+7p3oVbtrrH2cekk74bEbuimnHTDuXPnuHv2+mjj7Thm+h/pVAgsneRVAPvV2we9cw6dO0ivqAx0q53jVuuRWmtekIQplU7t1oBtE+pAL2AohcB9Y2MUUyne+c4TwCqTk5c78tm9zt/719sP650r1zpn2I/nD5W/U2URU7Vl2kE9gKVnVQt3/X2BHSfO5OTstmW6KXL5MoTDQJJBZkkml1uy3unp6Y6OBivSLv4eT/7gF0onCP4eZ7Xo7rB0g/8k9W2T9/Oet79jW4++Ru2LxzUlMPzHzHaO9u4fAEak2yqDhWoDz1YOTiTSDZXntQdxXwyx+wpgKFUBv+S69LsuA5bVqs2qybIsjG3zvQB8HfgzYLLtn9tqjbRpqNaOofJ1tYHfGrnBVhn+7scbyLV+l1rnZO2+zlUFsPQkx4nXbQFRCoIzXdiyOjY2mPiN3yCXSOA4N+GyArSmH9G5c+f2HBjspwOpBFu1O8L+6t96gVq1eZ28ayoHl/+k1Lt5sddK3oN4kSfdVWufq+wzuVsapFO6aTRTujaodjNCN96k19TqddrqzwiCvr4+otHontZh2TarHaoChlLovGLbPPQrLzE5Odmxz92tZltE+I+h/v2yXljrL5SA60/L1Spkq/w3EJT9tRn1/k3XauvSzvMnVQBLz6k9+FtsM/RNp4c6vVk7C4f5y9/6LQAcp58QJ1u26r1UAPurG0R6gVeJ429N4t+/H5n6TM1grfICThVn0mk6lkpQ7VT926obGu2sMhapxjsP+NTx49xX8Uh8IyGw9lnptnbuf0F4cq6wvpcGECWWZfG8MURdl3AHqoChFAKTnCA/N8fQ+HhHPrNVGrlhW6tCt3Id/us5r0iiEdXWvx+v6Zr5t9fuf6eqAJaeU6v/79ZlrreC6DWO42CxBHyuZQPA7eVAqF6T0mump6c3w99qJwiN7rP+C7aD/NictF+rW/B4+7iq16UTdnq8fXp6uqXnCjoOSzd4+7l3PP34mTPMx+M7Bhtq/yDSXfl8ngGg0IJ1xWyb5Q5WAUMpBF62LPJzrXnyt1OauXaqPE56lbuV0x+Z+syWJ5e9Jzwb3RbdjGs/BcASGI4T79nQ189x7mCDwxw6vEoikWjJOnUglP3IC9UaDdf8lTv1Ltj070V2q9a+6D959U569zpyfOXALSLtVm8/220LiN0OMvvU8eM8dfx40+8T2Ym3P9538eJmSwjYOiiRjr0ivcN13dJj6S2qAl4E8l0Kgdc6/Ll7tdtjYL2B22r18a08x65V/KCiiPZSACw9p1rQ628L4TixHSuEu2uCaOwFTp9+sWUBsMh+1Gx4tlOFmi7kpJ2qnZD6BxHyB2iV06rNq9b7T6TT/BWT7X5iyL+/X47H2/pZIv7wF65XpulcQXqFdyO4nftkEG52rKys0A9srK21ZH1HO9wL2GPbNi+4LoWAhcB7UatFROV+7a8E9p//atyAzlMALIFQ2RYikch3cWuqy7kuWWM49T1X+fQrnuT//L57d7WeauH2XkICf9gg0gu8fXGnyl//ycJeKi1FGlVrP/vk5z9b9cS0MtStNa3WPJ3sSi9p9yBZ/v39vosXuXt2tq2fJwfXfDzOU8eP894vf5n3fvnLHD19mrsee4yjp093e9NEOi4I5xobhQLFFq3LsixWbZtsB1oyTE1Ncf78HTjOAACj4+OkXZf1HguBk5nWtKWspdo+5r/O++TnP1s3JK5WFKHsoj00CJz0FP9Ab5W80Ndx4kxO9s5Fw6rrsmoMOeCG8XHu4LvM/Z2r3PF9t7XsM7wKnd1U53jvUYAmQVL5eL2/0lKk0/z7YrMXUpUDWwThQkxEJKjOnTvH7e97Hyff/36uXbjAz3384/zbCxe4+uST/IsPfxgy1a8zRKR7Wl2VaNs2aWMoui5WmweEc5wYjvMNksnSAPCj4+NcmZsjDgzZdls/G0rhrhN32v45fju1b5ient5S8etN8/jPif3nxqoIbj9VAEsgOE58szK2VkDcSa7rYubmWJ6Z4WoqRdi2uaE88mf62WeJDAy09PN2G/76Hz3WXTTpFd4d38qbEtUekYfGBxAQ2at6Vem7PYaq168ERbPnGbopJ71oenqao298I6OZDFMPPMCHTp3i6oULPPvgg/zsPfcAqiwT6TV90LIKYM+AbRPaYyVuPO5s+7NVHxACtuYTx8bHWXZd3B6rBG6VyvPZWsFtZY/gegGvKoA7QxXA0lPS6Qhnz17ZMs1fFew4sW5s1hau65J75hlcYHVkhJhtb95ZzBvDaj7PwNBQSz/TXwH8yNRn2t6nT6RT/MGu97rW4/EKz6Td6t1o0P4n+12z5xfeOYlIL6vW51rHc5HekcvlWO/rI9TiAirbtnnJdel3XQaaqAL+L/8lwdWrQ7z73bOcOnW+7rLF4iBTU5/g733Pxzkz8BxMADdAJpNk6Tb4j58ocDX3Q/z4/c9x4sSlLe/NZJI8++xhbr99eXPat76VIBIJ87WvHee++/6cTCZJKNTMb915tYLbWsdZf+WvX7Vp0noKgBugk4TOSacj236uDIUrB4jrpLwx5IwhcvIkEdjySInruqwYQ/rFFzkWa09QXa23ZK2LNV2USdD4HwHScVdEpP10sSX7jdcCYr5Kv1/vqTidY4j0lhCw0Yb1WuUB4ZoJgN/85vTm64sXHyIWq91eIZO5CITInHw1mVeVr//LxcBHjkD8ZYfIXLoDeG5b9XA87nDixNb1eT+fOdPw5vIfgBPAqVPnqfW2+4B4+TMzLeoHXNnGoVKtgLfRaz0dp9tDAbD0jMr+v+l0BMeJbQl/SwFx5wPgFWPoM4YV28aemKi6TH82y0Imw43Dw0SPHGnLdlQbaXOngbTUd1KCwn9CoH1WRKT9Ki/cdPNY9ovRGr1+3zZ5/44VaiLSWcX+foai0Zav17IsnjeGqOsS3kUv4EwmWTcwfeSRx4EQs7P3c/HiDdvm/8C3QqTvK7L40it44onz/Lt/dxv/8B9+B4AnnriBiYllfvu3T3L2bJp77nmJP/zDm/npn/5jHnssyd/8mxf5pV96O7/+65/bss7KQNqJO1AOdi/5ttUfOJ8pv47FWhcAe6qFv7WOrQp9u08BsPSkUuXv0Jbw13Fim32AO2XNdVkzhmvA2MQEkRrLGWPAGNbzea48/zyvfd3r2rpd3gVbtfDXq2yo7KMqEhTaZ0VEOscfAlcGwv4bz9X6+uliTXrN9PQ07/3yl/n6009zX51lRKQ3RCIRwoVCy3sAe2K2zbIxDLdhMDjH+d+U6pcNsD0ATt9X+q2K5e4WXvgLcObMSwB8+MNPb0575zufJ5NJ8tf/OiwunuKXf/nZbYFt5c+PMMVU3OGh2UlGfPNmZ68v895T53HiDvfOTjb/SzZJx9fepgBYekY6HSGZXNgMf6u1ekgk8h3ZlqzrgjEsAkdsm7EdvjCGgZlM1mgnOwAAIABJREFUhtVcjnVgaI89gNPpyLawu/LCq9bB1ethqYOvBEnlSLBeuKCQQUSk/SpH5643v9YyIr3g3Llz3PXYY7z6zjvh4sUtNzS8tmnVRp8Xke4ZhJaPoeOxLIt5YxgyhiHbbvHa+ykFwNkWrzcYat00lt4V7vYGiHj8oWe18Ndx4m2vAHZdl+zcHHljKNo2x8bHt/T5rSUEHI5EGIhGGTp0qKH37IUOrrLf1BoxtrLtiYiIiEgt09PTXH3yyR2XU/gr0kP6+tq6+hHbJm9MG9YcoZQEBIMTr93PeLd0HA0WVQBLTyhV/2aqVr56/P2BW80tV/xuAGHbJl4lwK0coM5v8bklyA3y0txVXsjVX7aeTre4EOkVuhATERGRvfIGgfNoZHmR3jfQ5vVblsVcNMrQ3BxD4+MtXPOtACSTre2rGyT+46uu53qfAmDpCel06ZGPWgGo48Ta9tmrxhByXYq2zeEalbuOE6sZTm8svsSlFza4cWiYTPYQK/mNzd+nGc88c5jTp9txZ1IkOKpV/OriTURERBoxPT3N5Mc+xvz73w/oCSKRIOhj7y0UdzI+Pk56ZoZh123h07rtjq57n57WDBYFwNITEon8jtWv1dpC7EXOGDaMIWvb2DvcCXScOJOTs1Xnrc08xy0JWMmk4No8L3vNy+HeJzh/6nxpu33N2JNVRt1MLpSmLWdOAa0f/VQkCGoNNCQiIiIiIvtXp0KpAdsmZAy0LADu/rV7ciFJMpPEibW+vcNu6FqutykA7jFTx6eYOjG1LSicnJ2sGh62y25bGLTrM0vzWhMAr7kuq8aQsyzsiQl2Ovw7Tqxm+wljDEuUxvxcBlZDIYaHhviFcvg7eWly23u8wLfS1IkpnDsWOOt8pOHfRWS/qXbCoDvKIiIi0qiR06erTn9k6jOAelaK9JLFxUX6gXw+3/ZxdGzb5iXXpd91GWjBZznOTAu2am+SmSQPZR6qu8xO8+XgUADcQ6YuPcfUw6dIRD4BuQSJXIJ0JI0Td5jKHOds5FjHt6mTPWkTiXzNea2o/s25LhvGsADEbBu7wYN+verfGIBt03ftGisvvkgfEImW7gQmM0kmZyeb2MKvNbGsSHM++fnP8p63v6Pbm1FXZdDr3UFWCwgRERFphHe+cPL972c+Htco9SI9bn19nTCA68LISNs/z7Jt1ozZcwB8/vwHgH8MZHCcAZLJtZZsn0g7KQDuIel0BH7hX3GWe8vBYZ6p44/gnJhi8uJDJDPtPyDuR67rEjaGZUoH/JubONjXq/4FuGYMN05MkJqfZ3h4mMvpNAODgy3YapHW6tXw1/+YUGUPKfWUEhERkWZ4PYA91c4h/OceelxZpLtyuRwhIBrpzBPIlmXxvDFEXJfwHkLgycl3cv78OlDAcf6SZPKVrdvIFpo6PgVsfwq51U+Xq2AnGBQA96BaLQJkZ+l0hMcfz3H48EvYtuHkSJZh22bAtrlhFwf4ur1/jaHPtlkwhuVcjiGgAAx16MtLZD9o5KJLJxQiIiKyV2+bvH/zfELBr0jv6BsYoNDBz4vZNivGcGQPAXAymSSZ/CbJ5BUmJ3sz/HXiDlMnprZNb6RtxG7omNr7wt3egIOmsFHga3OlR/3dVZeXVl5io7jB1ZWrW5ZbzC0CpTtiLEA2mwUgu5plMbfIcn6Z1fVV3FWXb7/w7c7+Ej3s8cdXeXQqx+f+YJWZr4RJr60RGx/fVT+hnap/MYYicAiwIxGWFxcJh0KMdODRFZH9olrbh7dN3l91noiIiEg9586d4+qFC5s/+wOJR6Y+s9layru5rMBCpPv6gWIHP8+yLBaBvDF7Ws/k5Engwo7LdYtX/fvQxYf44hNf5ItPfLGj40pJ71EA3GF94T5eO/5aAKxBixsO3UA4FObooaNblhuODAMQiUQgBtFyX9noYJThyDCHhw4z2D+INWjx8pte3tlfokc5jsM3P30rd/AQHx8t8vqzNzI+Pr6H9cVr9h42xpCi1Ei+YAyLCwvk83n6Dh3a9eeJHESVF17T09PbBmlRECwiIiKNqDyvqHaj2fujJ4xEui/rul0JpUZse88BcDLZz+TkHS3aovbxh74KgA82BcA9JB1Jw4lLVf9R6h/qzh6e+iG+Vfw6I8e/Qcxe597VOIlEYlfr2qn6dxgYtm0AUrkcQ4cOsRoOExoYaPvopSL7SSMXXqrOERERkUacO3eOo6dPAzCayVS90ez9EZHeEOrrY7Bc8NYplmWxEI2yuscQuFve/al389EvfJRP/dmn+OAffRCAD/7RB/nwH3+YT//PT/PBP/ogY98eA+Abz3+DYrFUY71R3MAZdMit5fit//5brORXePDxBwH4sd/5MQA+8PAH+LNn/6wLv5W0m3oA9zgn7nR7EwLh01Mr/LlzKz9+579i7eYJ8u+9kcwec9ha1b8AV43h2MQEeWMYGhkh9vzzFHM5wsPD+n8mIiIiItIF/qre+Xic0czWgg5/5a9CYJHe0EdnW0B4xsfHSc/MMByNBq6I6/d+8ve2Tcte+H/5vx98evPnqRunAHjlzdd7FIdDYbAgMhDhF3/oFwF439n3AfCff+o/A/Dh+z7crs2WLlMA3EPS6dLgYV6vFifuKExswNTUV3h06t0M8quceI3Ni/39vOqDH+TSRz+6q/U5Tqzu/IIxDJSrf0NA1LJYXljg8OAga4ODu/pMEdlOF2ciIiLSSt55hc4vRHpDX18f4WiUjQ5+ZjodIZ0eAsCY27hhbomifXPd9yQS+V19ViKR29X7duNBX/jrd/7UeaD0VLnypYNNAXAPSWaSnL14fTTG5EISZru4QQHxual3U+Rr/JN/UORQ/zBLodCuw19PverfNWMolgPgZWPot23mV1fJAjclEqyyvqfP7uSXhEgvq9bHTxdsIiIishtvm7xfFcAiPajQ4SKqdHqI5eV+Tp5cIZE4zELaYA1fY8BXBewFxLV+rr/+iO+n+sVltd/XfC4QiaQBiMfjACSdX2AyfmbrQrEYSc6QzkeUOxxACoB7SCKXUK/fJj08Bcus83M//G+wj76Gq8YwVA5nd2On6t+rxnANuN22ybouC8BwJkPf4CC5pSWO7PqTRWQnulATERGR3fIGmVX4K9JbNmhdCwjHcZiaepJk8q1MTp6oudzhw+ubAejw8BEw81iJ6wPI7y0crV1M1i7pdITXv/7vA/CVr/znzelneeWW5c7mt/4sB4sCYAmsT09d5vemzvCut/4/JN/6dshksHM5loeH97TeetW/R2Cz+ncgm2XYtjkCmNVVooODRKJR1lja0+eLSIku0ERERKSV/D2CRaT7QoDV19eSHrznzx/Bcd4EvA3H6WNq6hCwDhRJJi8Da5Ti5jXS6RCJxCqwQjKZ59mZGX7wnpt5RfJwICtjE4kc8XiceNxhdnbn7a+sNpaDQQGwBJLjOPz/7N19nFx3Xff/1+ztzNlNdpKTNifJbnfbLmm4KTmALQVSGuRuAd0UrIg/kYw34E8BW3kABrlEwJ8XVRDrpeill+KAeolYlcZLXVE0wQhFLuSk5SaEabvLbtoJ5GRns7PnzN7//piZ3ZnZuc/M3uX9fDzy2Jk5d99s0zMz7/M5n+9noj9MJ5/n1a8f5HrD4HvA1OOPszNzy0Pt+6x8e4brulgHDwIw53lgGOmZQzs6CHZ0EAwGmW5iAJz7gVXBmGwH5f4d69+4iIiIXI3CsFcXl0W2L9v+XWz7jUSjO4Hd2PZ5oJN07JW+V9dxTCAdNsfjAG04zjJwG7NeB2HL3ZIBsEg1FADLluM4Dr9+3yuZ5Lsc/8H/Tdj8WbyJCaYuXmSpo6NpM4gu5Ez+BjDl++zr6+PxCxdYmJtjrqB3kdp5iFRW+EUs94uavqSJiIhIrU6ePMnHch6XK6DQ5wyRjeN5Hn4yydz8fEP2F4kczzz6GLb9Kmx7L1A4eduFlUngcu/83fc38NUXBNMlySLbVMtGD0CkFtHoBX7xvnM8xXW84uDPMRyJMO/7jKdStHd2YnR2smvXrpr3m70Folz7hwXXXXnsuy5LoRBTrst8KsUy6RtKgkHdSiFSC1UAi4iISCPV0uJB7SBENo5hGLC4SOvC1U2iXigSiWTC3/Ju+LM/oyWVrvZ96nVg7Uup+le2NVUAb1HZq1bFWFbhVa7aZq1sBsuabcjJtA2LWX6ZHt7Cd40dmKbJvOtiBoPMAkt1ziBa6fdz2XW5DAxmKoDbgKBh0JVZ3trRwSIQCoXqOr7ItUpVviIiIrJR9BlEZGMtsXGh1Hfe+MYNOrLIxlAAvEVlA8tyFau56g1fr6Y5eG6o+uCDB3jb2x6re19Z3/hCO938K69+fZif+bmfB2DadQmFQniJBP7cXF1VuPF4kKGhiyWXd7M6+RuA57qEentZdl2CQHJ6mp29vTUfV0Ty5d6qqXBYRERErla5zxb6rCGy8da764JlpTa8QE5kIygA3kYKJzErVglcSqmA+Gqqdht9+8T8+Di99vXc+06fHb33AJB0XVxgn++zPDtLa50VwJVccl32ZyZ/8zyPSWDAMLgyMUF7MEh7ZyfBcLghs5dCOjwv9vvTB1S5lujfu4iIiNQqtwcwlJ9EWZ81RDZWAGjpVBhbi/vvv4UTJ75Vcnk47JDQfERShALgbSJbqZsb+tZyVaswPK58nNrC3XLVtdVYcF2mDYOfftkY06a5ErR2ALtNk4Tr0t7ZyQ5qb8NQqcp50XXpzKn+7fB9dmSeXyHdVn6ho0MNtUXqlFt9U6oXn76giYiISDWGh4d55VR1d0mqAlhkYz36tYvsCvbSEw+q/26VyoW/IuUoAN5ErvaEl0y28eCDeyquNziYrPsY1YxxcHCG7u7GNXKfcl0mXZde02TKNDFzwthJ16UtFCIFLLN2js8sx3kCx7kD2/4nbLu2q2Ge60LOMZc9DwyDGddlAZi6coVgMMhSzX8zESk2O3exEFhf0ERERORq6fOEyOZyyZ1hdL6fgxs9kC0kHHYArqrKt9Qdx6Vkv5/p/Fm7Wn93zfxdKwDeRmKxbgYHkwwNXSQW696wcYyM7G1Iv98VrksH8F3PY39f38rLs67LQijEbsNg1veZDQZL/oN2nA6i0f1EIk5NAfC063KR1cnfAC77Pnv7+ljI9P8Nkb5tRRPAidSnmjc3fdgQERGRahS2gChcVkihsMjG+dXEK3j0GV9k95VH8Hb2Nqyl4nbW0+MwMBBldDTC2Fikrn1Y1qxC3XVSqsCpmGb/N1EAvElczWRrxVxNle/VH7urYfuaGx/nSiiU13YhV9AwWHBdWoHFVIpFaOibRiewK+e4U67LNLAXWPQ8ALo6OpjJ2cbpcRp2fJHtrpY3OX1BExERkUqGh4f5ybExLvT0cCCRqLi+PluIbJwHj3yJ5wcNpk2THRMTeL3rEwLXMl/SdpUNJvUda/No9n8HtS2VTcnzPC7FYozPznK979OW0/c3y3VdTNPkMtATChGYnaU1WDlIb02lYHm5qnF8L3OMrC5WA+GU79MKLM/NMTM7m7eeiDSWPpiIiIhINU6ePMndZ89y+9jYmtcLq7BqqcwSkcYLZH6apsm0aRKYmMDLFFrJ5qPzZX1qaf/QzN+xAuBtxLJSDA7OVF5xC2jzfaaXluheWiJZ0PcX0hOzLYVCJF0XD1jwfdo6Oykd6wZWtw0GIRDIW1qs/82S6xIsOO686wLpgPpKZq+Bjg6Mnh7driJSh9w3wz/+mweLvp59rg8cIiIiUouP3XUXu48cATTRrMhm1dadbl9pmibLvb0sKwSuS709gWs5B+p8Wbtmh7q1UAC8heXethCPd27gSBormZn0rRNYDIWKVtbOex4hwyAI7DZNvpdp/9Cza1fDxuFlwt5cLuk3poDvkwKyjTZ2NvC4IteKbOCb/SDxU6+7Z+V5sTdJfeAQERGRWtw2OsrlM2fyXtssX8RFZG0gZRgGAYXA6yJ7LqzmnKjvYfXL/u5q+T03631KAbBsOsuuy3woRAsQLtFW4ZLvY5omc56H73nMAwtQpgK4tGLhedJ1iUNe+DzvupCZ6K2ddH/gBWAOCKn6V6Qmf/w3D/JTr7uHP/6bB9e8weU+L/VYREREpJLCNhAisrkEgJ7O/O/j2RB4SSFwUVNT9VX6FlpaugFQuLseTp48uSkqrTUJ3BbmOA4jI3M4zs8zNPQhBgdfhuOcJZmsbgI4y7KwLKtpY7Pt2k9Mc67LgmlyneuSLNL3F2DBdQllgtkrvs91psnE5CStweCa9cNhh54eh3D4euA1hMMO/f3RvHXi8VsA6O//FgCjowO85Wdey2t/ZIKXvjy97sc+9gN85Su7uf/+v+T66w2SuLS3B5gLLPOn//h69sSf5O1v/7uVYwIcCzv0k3+sYqam7Lpv1xDZqrLh70+97h4ein4SKN4CotlXQUVERGR7GR4e5vc//3ku9PQAq3cW7T5yZKUauNjcAppvQGT9tQFLnWsLsgzDwMuGwE2YGM5xeoCesusUaxNZet3Kk8rVsr/18Ed/9Ee85S2vqGkbnSebr5m/XwXAW1Q0GsZxXgt8GJhjZKSF9PWz51C5DjYA/DQnTlgMDQ01dFyOM8nIyA4c571EIscBMkFw4ZiWCx73Eo9f4Drjuxx+5jOZKtL3N2vJdcE0mXJdZoA9QHcwiJeZ5fe3futp/MIvfJvFxQCHD98HQDj8SmCZcNhhYMDJ29/o6F0ADAycBuDUqQg//qZPMvSDv8nAQHqdD384ythXoP95mW1c6NsH35uGd/7C32HeDPv3p5eFgX8DjoYdCOcfq5izZx/ACTvwj6+Cw5+quL7IdpL9EJENf7OBcDbwzX0D1IcNERERKSX72eHmEyf4zOHDHEgkuG1sbPX197yHXf/+7/zWC1+40pNRny1ENlYAWCyxLBsCL0xM4Pf2NvSu22Syje7uhTWvZ0PaeDxIPF58gvncdbKyj0uFvOnl5QPn7HqVguJg8DCTk3dx8eItxOOr+4zHb2F09C6+9a1bSKVWXy8WTsfjnVjWbM3nQJ0ztzYFwFtUJJJgZORJRkaeBxzDsl7F4OCdwBMMDiYpHbguAwNY1h3Ydrhh43Ecl2j0eTjOM4F54P8QjR6tcS+/zUtvO8gXnX/lntffWXQNz/O4BNxgmixmqoUXPI9loD2YPun+wi98G4DW1mVOnz4FwOjoU5mfEU6fjuTt8+zZ9MkxEJgCIBQK8rIvt5F8yWt585v388Y3fodvn4exJxK8LBnG8zz+8ws+575yE3QGmE9OsfdgB295y5cASPRH+UDYYWw0gl3F7RmJhJ0Oil/1j7X8skS2vNzq32z/X1it1FFljoiIiFQr+/nhrp/9WfaPjq60f9BEsiKbVyvly9eyIXByYgLfNNldokisVoODSWx7Ku+13EC3XEVvtoVktRW9+fstv03l5bOEw99iYGCMixfzl/X3j2FZY8zOjpFI7FoZa6n5omqtSNb3sK1PAfAWFom0cuLEPhznlcCdxONBBgdvyATA5QWfOsRSS7p/bSPYtskDD4wSjT5CLPZCzpx5CZHI/5vTBiJ7tS5QsGX6eTx+A8nks4Aw3d2Jksfp9H26Mif9Wc8Dw2DO92kHyp++uqv+u1hWCn413ef3jW/8DgA3mS67M+81Ad9n8BaPQzd8mR2hEN956imefvvtK20cEj02p8IOd9fZ2sGyZrfVpH4i5RyLvGnNa7kTEhS2ghAREREp5/Tv/z6P3X9/XvB78uRJLuzYwXvPnGG4YJkuMItsrJb29rLLDcOA3l6mJyaYAnoaEALb9lSmDcRa5cJfy0rV0cphqvIqNQiHU5mxzAKrYx0b6yeV6ueWWx5mbOxQZp3N1XZCNpYC4G3Atm0cBwYHZ0quM/DxjzN2/DjLgQC0tJDa15yxRCLPZmSki3vueaBiD2BjbAyvvz/zbIn+P2xn7Ie+S0v3IZZK5J9+pv0DwLTvs8M0mQJ2AlOpFKHMJG1rBYClOv5GadmwGdL/0ywDPsDkJIFg8VtDRKSy3MpfWP0SpkodERERqcdj998PlJ9IVheZRTaHttZWOov0AC5kGAbGwYNcGR/nCrCzASFwbtCbW4BVqhirXBuHSi0gKi0rNqZy2w8MjAKj5JfBzbJcqRuoXNMUAG8izbw6M/qTP9m0fRdTzQRwq+Fv2thbllnwoK3E+f+y6zIF3GiazHseM6SDX590tW5b2SC2sPI4X6Wm7VO+z76+PgAWPI+A79MRCjGfSq20nhCR6uUGvbkTvRVW64iIiIhUq1gbKV1UFtm8WindA7iYnX19TDUoBM7NX6rJYkZGSn/vL7f94OAM8XgnyWTx+C23RUQsVvzO5dx1nvWsZRznOAPZCYsyRkf7KYhYRPIoAN6i0s3BK880udWUu2C1E1jOnOQDvk+PadKSCWJTvk9rMFhydlDHeTrwr0Sjo9i2U1VAneW7Lks5lcUzvk9PKMQU4KVSdO3aVfW+RCSt2Be0wspfBcEiIiJSq8LPDdV+jtDnDZH1t7iwdiK2Snr6+rg8Ps7lVIrdBw40YVRrjYzsxfdbufXWK0WXx2JdJbcttwwoOhldoWybz1ism7vvPsvhw5/g9On3V9xOJJcCYNkypnPaPyxmWjK0ZpelUgTLVuIuAgeBK2vC30phehsQzATLvucxTaajsO8TDAYbOhupyLUkt/L3WORN/NTr7ina/qFUWwh9URMRERER2Zo8z2Nurr5ZiYKmyXdiMVqXlujJ3KnbbKHQYsn5lqqZh6kRRkbSP0dHB+jpcZiaOrqyLJWy1mUMsnW1bPQAJE2TfqWVqgCecl1cwMzp/xsKhZj3PBYzQWy56uFI5LvAMpHIs2sek+e6K72F23yf9lCIBd9nZyhE+Xb1IlKNkydP8lD0k0Dpqt9sCKzQV0RERERke1ien6ee+5oNw+C6AweY8X3mXHfN8me+7320pDQBmkguVQBvM5VuLyhlva5YVbLg+yzAmlYOBrArE/76nscVYI9hcGVignAoxMXJSbrLtGKw7Xls+wkikUhN4/E8j8vAjTnjCRkG077P9UACUHQvcnUKZ+EeHh4u2q9PIbCIiIiIyPaxPD9Py/IyvufVfGetaZpgmiRdlwXXxcjpCfz1D36w0UMV2fIUAG8jg4NJYrGuukLg9HbFG45XPmax7S7WvC9IT9VWrJJ32nUJ9fYC0JHp+wuQBK4zDLp9n6UK+37ggXDN4+nw/bzm8rOexzzpied8YCGVWqkOznLCTs3HqUVuMKYgTLayWidlURsIEREREZHtwXVdnnoqyWNj17Hcv4M+o5bp4FZ1myaxr3+d2BeeJO5OAxew7WeTThbKVwE7jgPcRCTy4rqOLbKVKABeR80M7ixrlpGRvWXXSfe6LTc75doq4Gpmwyxcx7Jm82aprGYf5SQz7R+elrkiuJi5OjjveaSAJc+refbQQqXGmO01vDIW38c0TRZIVytTZuI5ESmv2ERw5dbLPhYRERERka3Pn2nh0Ud3cNNV5q/J+XlGPgeO86PAQM6SZVbLzHL/BEgnCEvAe4lGbyASSWLbX8a2b16z/8HBmasb4DoZGBgDbtzoYcgmpQB4C8sNLS0rxdBQY3vc5Ia45dfrLPscri4Ebgd251ThTvs+IdOETCXwLOlTeDOC2Enfx8o0lfc9Dw8wSbeBcCcnaSk78Vz90r/7qabsW2QzKRboVvuaiIiIiIhsTaZp8nSrm+tv+QZ7jU7S37TrY9s2J04EiccfAf4B6AFacJyzpMPePaTjr3bSU7obQCuO8xCOY2LbF7Ht2aLh72YXjf4FkciPbvQwZAtQACwlVRvaXm2Fb67C9g+e5zH+2GPccvvtK8+vAKZhMO/7hAyDZdelEyq2gCilVNA95brk1kS3ZQLnec/DB1KpFLvK9B0WERERERERkeIWdrVy481Bpj0vPcn6VRR1WVaKfXt6WG7rWXnNtveX3cZxngOEsO16pqJrrJGRc4yMHAJagSukK5QXSYfWC8As0MbIyCFs+xWEwwOcOvV3OM73iEY7ufvux3jlKyEcdhgb27i/h2xeCoC3iUrtH6pVbdUvVB/82vZU1esueR4tOT11AxMTdITDuK6LaZq0+z7tmeULmfYMHrAjUwncSLkTz2WFDIM516U7FGIhGKw7dBYRERERERG5lgWAzo4OQqbJ/MQE8729V3Vn73KNCZdt23UfqxbLy/Ctb+2gq2uBvj6/6DqO4+A4TwNeQLq8LZDzp4XcGZMc5+UcPXoKxzkKfBC4hc985hnY9iPce+/ppv99ZGtSALxNWFYK2976LQOWSJ/aIF3t65O+1mVmgtglWJkddN73wTBIATuzbSFKcJxvA4exba/qsSy4LuTsM/s8CViGwazv07YB/X91K7yIiIiIiIhsdUZXFy2k2zm6ponhunlz8GwXgQAcOjRddp3/9nNv4IOvB++mL5ZcZ2RkL0NDF+nvj5BI2Jw+/SjR6CiRyJcIBuGVr3wICDd49LJdKABeR80O7mKxbj784YOEQvnToRWb3K0Ryu13aOhiXfvMawHh+6TI7/+bcl1Cvb0ATJM+tU2SDonby+zXcYJEo7cQidxLJBKpOA7P83CBvpxjJ0hXBc8Cy57HQipV9n8gO7E+VxNFREREREREtqLsXbWmaeICba5Le5niru1qYWf6Ty1s2+aBB9K5w7lzxSuLRbIUAG8jsVgX73rX+aYFvmuP11309XQ7ivoCYADf9zEMgzYgBRzInPw9z2MKuMEwmPc8ZoEOIBgK4ft+2QAYdrO2w3Bp7b5PIKcVRbbv7x4gbJrMeh4Ltf21RERERERERCSjMJAyTZNL4+OEgK5rMAQWaSYFwFK3UkHz4GBXQ/bvuy7hnJN+u++v9gfOTMiW7YIzDxV6BQWoZZq43FYTAC2+T49prkTIKd+nFQjlhMQiIiIiIiIiUp0A6SnPchmmydzEBF4odFX9gEUkX0s5+ghoAAAgAElEQVTlVWS9WNbGzzy50Zb91dsWplnt/ZuVG8qGDINFL93Tt3I1bgvZAPjZ73wnvZ/+9MqSYhPUTbtuXribbaoxlzleCmgJBvWGJCIiIiIiIlKHFqBj9+681wzDoKO3F1x3Ywa1RaVS1kYPQTY5BcBbVDwe3OghNEW2Rjflumtu+fBz3gAWMkHsPBCkmtre1RkzH/nIR5h4/etLrjnlulwhv6J4PhMIp3yfNuBKKoXiehEREREREZH6tLQVvyndMAx8w2BufHydRySyfSkAlk0lG+QuALsKAuArrFYEz/k+oVCIhUwrhs6KrRhWA+BcxYL0bqCnyLEBkqQD5zagvQntH+wpTRwnIiIiIiIi25ufKa4qxTRNLgOzm6QSOBbrIhbrLjkX0nobGBjd6CHIFqMewJtEPB5UC4gchYGu77p5k7JNA72GwRRQruNwf38UgHD4mYBNOOysvAbQ2RlkdPQu+vv/CYDRUVi45JJoO8QnPvH9/PZv/yWT3/UYeex5/OvHXsY7f+kf6e+9SLDDZ+LKLVy58hi33jrKX/3VK/jhH/5s5lgOR3OOXY3RqtcUERERERER2foCrLZbLMbq6yN+/jw9oVBeO8hGiMeDxOOdxY9bkM10dy9k1k8XkEWj/Zn11raTLGdwMFlTgFw471J624tF192ud4lL4ygA3sIcZ5Jo9C9xnE8xNPQhBgdfhuOcJZksPjnbqgFgFMuysKzm9IlxnEeIRpdwnPuIRCLYdnWVrcnxRWaNVkxzPG+bNiCYOeHPex5zgOd5pIA9hsF8zj6+8AWTF77QJRx2GBiIAhAO/ySwzLFjDgMDTs7aA1iWz8DAJwA4dSrC1x/t4DU/9GEeeujDAFzfAW//+U/zyz//iySAUBJaWmHwuX/H/v3pvbzrXdGVPR4FfgVgYPW1SpyEDRyuen0RERERERGRrerKlSvMzcywnCofou7s7YWJCTh4sOFjyA16c8PgYsGwbSdytqs++E0X+62uXxjq5o+n/H6TyTYcp4fR0bs4fvwTVY9BBBQAb0mOM0M0uhd4EfBhYImRkezS76NYq4N8Y1jWpzhx4o6mBMAjIztxnNcDXwT+jWj0xQVrBEpsOc0OnmKaLxKJOHkB8ILrQrYtg+/TEQrRTrplROHf9oUvTN8ikkjYnD37QOZxK7DM2FiEs2dX9xuPBxkdvYWzZ58DwOzsIQafNcquXXdy9ix8/OMv50e//1N8r8UiPPc9/muil+de/01SQPecyZkzN/L5zz+NgwfPcdddlwA4dfg+TgEPZI5djTEAvgpkT/o9VW8rIiIiIiIistXsaG+vGAAbhoFrmrSMj9PZ19ewYxeGrbVV8041bBy5KlXxZgPr5z//dFOOL9ubAuAtyLa7iEQuAo8RjS4DNzE0dIJkchBwGBy8TPkQ+HlY1lEsK9yU8Q0NXcG2HyUa7QJ+Ctu2q6oAbgHmXQhaN/PSlw7lLXOB3py+vCHDYMn36QyFWPQ8KHE7SCJhZ362AkucOgUDA3bO8iDhcOfKeocOARwikbm497rXfY/vne+jrbeX6Xg7Bw/u57sTSyynUiyEB9m71+CHfzgJ9JJI9AJwquDYVQk7ldcRERERERER2SaqnZTKNE0mPI/rXZeOgvl66uU4PWUD11oC4WrbeVbaZ7XHLNf/N6xsQUpQALyFRSJtRCIfwnEc4PnE40EGB8NlbykA2PUlmD60h4UmFplGItcTiYDj/HzV7R9mPY/JiQlu+/1duC8y8DKv+65L7mlwPhP4tpAOghc9r8jeCgWA1pr+DllXSPcbjgM7AR8IBZvQX6d/FLix8fsVERERERER2WRagZYqv1v39vXhjo+zMxSivQH9gG17isJK3mr76Ba2iCjVS3jtfsuHMNn1KgXBo6PH1QJCaqYAeIvKPSHYto1T6SLP0hLBixdJ7dvH5PObO7Zc1YS/vZ/6FACjw8MAfOEdLn19qyf0NmBXzlW+Od8nZJosuy4YBsuZ5+V1UKwqutKJeiYz+ZzvefiACcyRjpP3NLgJvYiIiIiIiMi14KGH/oOO2AA77DA7q9wmZJrMTUww39uL0YTv46WC11ism7/92/2EQuWmrKusUrFeNRXAQ0MXWV4eLbqsXGWwiALgbaCqq1QtLaT27Wv+YOow8YY3AOlK32KNK/L6/wJJ0hW5M2661+8sUO7Unw7HHwW+AwzgOE7VVcmdpCefa/F92kMh8H2WSIfAIiIiIiIiIlKfpdmdPHV5J4NVrp/tB2xkisHWSyzWxa23TjE0dLGGbbobPo6Rkb1A9WMQyaUAeBsZHJzZ6CFclVL/GBPAvkwAPO95K+HrUqbydwoqXP0bJRp9Hemeyb/CqVMfq3pMC5l2E62k200ESIfCraFQ1fsQERERERERkVXHjr2IgcdnuLTzv4CjVW9nmiYusHDhAjsOHGjW8K5apWrf+vbZ1fB9yrWj2p7bIk0XYG2ThinXJS/W9n06MuHrDOD7PpXardv2ALb9BDBPJHJbTWOa9X1CoVA6CAYWPW+lKrjsMWuZAE5ERERERETkGvOl275Ksq1t5e7eaoVCISZcl8T4eJNGtrlNTRXPG2qaiF6uOQqAN5FaZpm8VnSR3/8X0pW4nucxD+wMhViqYj+RyJPABSKRSNXH9jyPK6Sri1eCYN8nqOpfERERERERkasWCoehxgDYMAyuP3CAOd/nSo3b1msz3XHd3z+20UOQLUgtILaZWKyLWKz62wLqOYlVupWh3hNjAEilUvTkBL7Tk5N4nZ2YOS0gMAzagXnSE8IV6xtcyLa7eeCBMLBQ9XiWfZ+WTNjrAfsMg0tAwPfXtd+QiIiIiIiIyHbTAnSGQqTCYVrHxwn29VW9bbYVxHLBnEEiUpwC4G2knh4ztYTFuduUa2g+OJisayydpslO1yWUCV1nXZdJz6Nn166VdeYyfX+XMq0g2ki/YVTDtouHv5ZVvIlEkHSrh3nPwyddEZwE9sBKMCwiIiIiIiIitQsAncEghmnieh7LnkeohmIr0zS5DKRcl2ATQ+D1rP41xsaY7+lhPhxet2PKtUEB8CYRjwevevt4fJbu7uorXAFse6rO1hPNn3ly2fNoC+b/XpJAr2GwkKn8bWVt3+BGmctUG2f7Ds/7PotACmh2/e/V/nsQERERERER2cyWWf0+HzJNlly35rttd5sm065Li+fRUeO20WgUuJ5I5NU1bddMXn//Rg9BtikFwNuEZaWIxztr3i4dNPY0ZAyVQstIpLY+NfO+zzzktX+YyyxbIt33Zznzs17xeLBkBbCXqTbG9wkZBgawSDqE3qMWECIiIiIiIiJ1C7DapNEwDCZclzbXpbPGat6Z+Xl++X3/ivP1YeA20lPGL5P+Bg+rUXPun38D7gC+SjS6g0jkCpFI4Kr/TsU89lgXBw6k+M53DA4enF6z3HESxOPxisV5yeSLcByH/n6wbYhGvwRMEokMNWXcsr0oAN6CCoPWasLfUiFnqdfrM5U3pnrkVvPOUtDeIVOJC7CYqc7N/my07ARwpmHg51yF3BkK4fl+w48nIiIiIiIicq3wPI8AqxEtQG9fH1Pnz7MYCtVc6GXfdh207wQuk54xKFDiT0vmqC/FcRxgJ9CH4zyK47Rg240PgW++Od1Colj4G4/HiUYfxnHuBYpV/y7n/AwAzwHemnntvcB9RKNTDA2txnvhsEMiYTds/LI9KADeBrKBcKkwNx7vrKs6uNrjFre2qnhoqPq2EXOexzys6f+Tfb6Yqc5d9Lyq91mLQE7YnK0Ennfdld7DIiIiIiIiIlKfbMwaLPjOv2CadNTYCmLfdRaRiEW6jGyi6u0cZwLH+R6RyDdIN5hcf5ZlEYkcJR6fwLK+iOOcJf3bCWV+GpmxtRCLPZfBwUdJJNq5997f5iUvGcK2HycSSRKPq3WElKcAeJuwrFkcp2fN5Gz1TMZWi1LN0Os97soNGr7PHLAv59aP+Zxq32wf3sXCHTRIO+k3Is/z8EhXAicnJugOhZgv80bkhJ0mjUhERERERERke0jNpgvYCr/Tm6bJRc+j0/NoqTIEXq4zu7VtG9ve2EpZYxRu6w9z818tce7X9mPb+0uuOzKyh6GhZ5BI/C1Hj36NaPT7GBhYAIKMjKzbkGWLUgC8TVhWiljsQE1VtvWKxbqKPs51tcFzAGgvqLSdy1Tiep5HinQf3sTERLpPb4Nlw+Z536clM44ksNswmG/40URERERERESuPR2da+9W3mGapCYmMA4e3IARrS9vIP3z3K/VPr29bdskEunHmkheKlEAvM00u+K3mmOMjOyte9/ZU96s59FZcLUvCfQaRt5kcPNARxX7ve++Z+M4n+PUqevWLCvWr3jG9zFMk07fZyFTCeyTX4UsIiIiIiIiIrXxPI8rly+zo8RywzBwTZM216WjCQVfIteilo0egNQnN7RsRn/fjeb7PqGcCuDc0HfO91cmh5uFGprDt1e1lud5TGf2m9uSoiMUYrlgXCIiIiIiIiJSm65gEGNujqUSy03T5LLr4jVp3h+Ra40CYNmUfAqC3ZzJ1zqBJdJBbbXtGBwnDEXWLnabRLvvr7SfmMu82XSQrk5OFo5LRERERERERGq23NFBucYHO3t7Cbjuuo1nq0skNrafsWxuagEhm86S77OzyG0eoUzwukw6hG2Hsm8W+QKwUkMMz3rPe/jahz5Ucu3ssVKZVhD4PsukJ5+rhq0Tr4iIiIiIiEhJgQrLDcPgSdcF123K3D+1iMW6is6BNDg4U/O+1qN1p0ghBcCbRLE+tNeiZdJVt8GCk/tCTu/d7OPcVhDVWQ2Ay4W/s5n9Z1tB7DEMfNelPW8PIiIiIiIiIlKvlvb2infYhk2T+SZM/u44PTWtn0zmx2eWlSIW665r8rUzZ0xise6iy0plQwqN5WopAJZNZQloNYw1bwKzvr9ywl/yfTCMlbYM1fsKcGPFtZK+j9XXx4zrrrSdWPR9gqEQC+vU/1cXBERERERERGQ7a61ineyEcP74OKG+voYcNx4PYlmzVa6bnnOpWABr24m6x1Bu23Kh8sjIXp7//LWvK0OQShQAy6ZjFAlZk0BvJhT2s+tk2jLkct0OTHOO/v4o4bCTs+SrwAKHD9+Xt75l/QyHD//ByvM//MMf5dvf/Bw3XXo2x+/+F97xgRP8z/95H8fvP8GRF/xfjr3hJBMTz2bXLp/f+Z0f5aMf/Qi/93vD/NzPnQRgEjgKHB+Icjjv+MUlEjZjY5GK64mIiIiIiIhsJ9UGUqZpcsnzaPM82hswJ08tYenGBKtTZZf295dfLpvT8PAwJ0+eLLs8q9x69VIAvMU5zhjR6GVs+yzwq1VvF4/HAbAsq0kjA8dxsO3qe+FmZ/dM+j67ck7q855H7rW5FOm2DPO+v6ZS2DRXmzSECwLY97///JrXDh16OO81z7ub6/aZvOc9H2HqPHz0o2+gtRV+9f97AzfsAK8bbrppjk9/+of5+MffyP/4H2/nl37pg6vHBP5t5Ul1ATDAnN9ecV0RERERERGR7SAALAWrb59gmCazrtuQABjSlbSVZMPf//zP3Vy+3FF23Y6OJaByq4bsevUaGrpYcZ2eHqemCeEqBZPZdaA5waSknTx5sqr/FvVSALwJ1NMzxnG6iUbBcV4M/BGO81GgkwcfLN5HJi3bYr0V+BJDQw8SiRxteAicTM5x333fwXHei23bOSFwYYv3lrxnnhfGm3yKl73mmezK7e+T0+vX9zzmMy/n9gUuNDYWWVNZ+/7393H06Km8186d28vp0z+x8jwSCzD25qOcPv0zzJw/T6C3l2XfJ+F5jAOzhoFpmjz/+XD69Gs4fBhOn/6hle3Phh1ecvg+IqMRIjVU9naE5qufYU5ERERERERki2vtKB+q5jIMgwnXpcN16WhAP+BSQWqxfCaZbOPIkUt5E7594xs7qj5WtZlP7nrFguJsCG3btzAwUPXhZZOoJthtZsCuAHiLsu0kMI3j7AO+DfwN3d13Mzj4RGaN3OYIyznPF4HrgR4sy2p4+Os4IX73dweAUeD/4DhHcSoXwmbM0U6UPQe+uBIae57H1OQkk57HbtNkKScMXqx5dPlTuBU7CY+9efX3dgXYZxgs+D5Bw2BxE8w8KiIiIiIiIrIdFJaIVdLb18el8+cxQqGKk8fVq1jLh46OJSxrNm/ZRrSGGBnZy9DQRTI3dDfMRgeTsj4UAG9B2SbkkcgSkcg57r//OQwNJTlzxudtb5upsDXABQCu/6eX8N0ap1GrxLZ9jhz5HIODe4hGX0wk8o5MmDvD2lA6/7HneUy7XRy+bWhlyYLv07q0RDAYxMi0fVi5DpYzMVx1Y3tW1ev6nodfMFKPdCC8OuplLkxe4F+++S98/6Hv54bdN6QXvA+8V3k8dPYh/vxLf86fHP8Tujq7WFhaoK2ljScupUP6QCDAgDnAJ774CZ71yvTYlpeXV94FP3fuczx939PZ37O/6nGLiIiIiIiIbAW1BsAAAdNk7sknYf/+poXAm121E9iJ5FIAvA0MDQ1h21PE4+V7zQD0fupTTLzhDQB895WNDX+zjhx5OkNDF4lETlVcd8c3v4n12c/y7XvvxfM8Lo1d4DkP7+Opu9Nj6yAdHQdzJoYLZU7yKaC20/1C1Wu2+D4dmWPOex5eka0DBOjd1UvkhZGV15weBz4IxqjBscPHOHb42Mqytpb0/2437rkxbz/HX3AcpyVdJh0IrL4FvvTQS6ser4iIiIiIiMhWEqgjwA2FQoxfuMBe171mA2CRerRUXkW2k2z4u1lMP/3pfPvee1eeL7Uur4S/kP4HuggrJ/bFzERxwEov4Oot41TZj6KV1aB5zvcJwkrrCRERERERERGpXz3Vv5DOBvYcOMCS7zObkw80U6WJ3dbb6Gh/0denpqqf+E2uPQqAZVMprEle8jwWSV/lg9Uuvp7nsQBVXfG7777HgQdxnOmqA+D5nDcSHwgbBlc3V2d5Tk/VjZJFREREREREtrTOjg5aOzvr2tY0TVKhEAuu2+BRbby2qSlu/cVfLLtOdj6jHuUIUgO1gNgGcvu/xGLdVW+32a5iFbMEeUHvUqbvb4DqK4AjkQHuu++ZwH8RiUTylpVq3D6fOY7veaRIX50M6fYSERERERERkas2OTXF0qxJIB6sa0K1/X19XB4fp83z6NxG39UXenp49Nd/faOHIduQAuBtIB7vxLJSDA7OEIt1Vb1dLNZVU2Bcm4sN2cuS7+f1/12pxvW8qqevs+0WbHsa2w5Wfdxp4IBhMOO6dIRC6dYT6/ymEq/zjVBERERERERkMzt3/jyzE6+gf7mLH/zB+r73Bk2TOdddEwC3eh6LDf7+Xm8B3eRkB4lEOzfeOFNynZGRc8TjM8CTpJtgwur90as/Y7HnEo9/hXPndvH853fxgQ88i4GBUSKRgbrGJtcWBcDrbHh4GICTJ0/mvd6IoG9wMFnHSakxQW2zzAHBzInby1TjQrpCt5aevJHIOLZ9V95r8Xjx203mPY9sTXVn5vjz69RbSERERERERGS7C/f00GOkuKXvMSBc1z4MwyCR6QWcGwJXE/7ed9992PbrgMfX3CncSLt2zbFr11zJ5fF4nJGRczjOvcBAxf2dORMB4CUv+SDwXuA40egykciVRgxXtjEFwFuY4/RkfoY5c2ZP2XWTybX/qTe6unT37jmGh59aed7G2h7A86z+I132/ZU+vLU2r7btGlrM+z4dmXA5e7yFTEsIEREREREREanf7Ows1q5d3JqaZ7FvkTnXpaPO79uj4+NE/9e3cb7+E0AP6SndW4F20slBC+mmjtnHZJb/B47zy8AHcZxJIhEf217/jMSyLE6cuIN4/CzwUMHSAKvT5QWIxV7A4OCXGB1t5dix9/KBD0QYGPgPhoaslXxIpBQFwFtQNsw9ciTd8Ny2pxp+jGxT8WbIjv/MGTOvzUFhRDvrecwDezNvBB2QV/XbzJ682X3PZ1o/ZFtPVMvW7JsiIiIiIiIiRXV1dDDb47HXNLk0Pk470FNHCGxZFlafheXehGVNkm6hMAdcYXVWoQWgG5jN5CfLOM7DOE4btj1GJDKNbW9cH2HLsrAsgPI5QjzehW0/k1TqKY4edRkYcBkbCxOP568XDjuMjTVtuLJFKQDeJuoNbEtVAa9HdXB390LZ48z7/pqJ3lZC3yb25J3N2fe874NhoE68IiIiIiIiIo0RYPWOW8M0WZqYwAuFViaAr1a6ghbgkQpr+jlHDuA4BmBi24vA9plETqQUBcCbQKletKVY1iyO07NS4p9MthGLdRcNU+PxYNH2D81WTSB95MglhoZKR6vtQDjnCuBSTjC7cNUjLC3l+xiZ4/rATiBVQ79hERERERERESktAAQy3+8Nw8Dr7SXguus2+bptb927dlMpa6OHIFuQAuB1Vjj5Wz26uxcYHEyutH6Ix4MMDs5kguCuvHUrVfIODpaeibJe9c6OCWt7AC/lPJ4v8bgcx3GA0id3y5rNe+55Hj6wxzDws4+LjEtERERERERE6pf7PdswDFzfp811ad9k8+80IzdptI2e40k2PwXA20Qs1sUXv2jy2tc+ufK82u2aod4QOLcP8Jzn5U28tpgzEdtylZOyOc6dRKMmDzzwmaqu8C37Pi3Zat+cyeCa2W9YRERERERE5FoT7OjIe26aJhfHx+kGujZZCLyZDAyMbvQQZAtSALyNhEKLK8Hr1VThXo1YrLvubVvJvwI4B5g5watPui0EpCuA26lGG+km8NXpBIKZY7aTDn6XmthvWERERERERORa01Li9R2myWKd/YCrVa5lZalK2pGRvUB91cAblc+I5FIALJtW7huC53mkACs7ORtU+WYQoFTH4Hg8uKYFRG7LiUAm+F2ostpYRERERERERCoLULxUaz36ARfOw5QfCPcU3SZb7JZb9FYYJHd0LFHK5csdJZcV2zYbGhduZ1kpUqniAXYisXX7GkvzKQCWTast52Tfzuqbg+d5zBbdopj03KKBpSVafZ/FCpO5Lbou5EwAl/2p+l8RERERERGRxmgBOoLFg8xsP+CO8XFa+/oafuzsfEqrCp8Xc7Hh4yhXiVxOOFzNeEXyKQDeggqvVm1XuRO9Lfk+yy3pmuB28it1C4XDTs6zlwLL9Ox+hN5Dj+StZ1mHsawp+vtHAXj44SC/87F7SLWm+NM//TQd0+OEevfwyc+9iJZv+bztbZ/m3LkbOXToCVKpdoLBeX7nd4Z5+9tXJ/YbHYgCcKzHgR6HaoyNRda8pgbuIiIiIiIisl0FKD/ZummaXPQ8drguRhPuyK02fG3md/N69x0OKy+Q2ikAlk1pyfPYnTnJe55HwnWZS6XwPI8l3ydYUMn7kY88jXe849u0tEB/f3QlBB4YeCfw0xw/Hl1zjHD4OP39p1caqJ86FeHoq/+Yl7/iL3jGM+CcD703w/Gf/BMOP4/M/vL38Zu/mb/fXwH+DWBg7fGKSSRsxsaqWlVERERERERk22ivcIfu3r4+Lp0/Dw3uBxyPB4sW1hUPhdMtIaqd72hubm1342zQu3v3XPWDLNg2Vzjcw+HDNe9KrnEKgLc4x3FwnASxWBeW9YaNHs5Vy14BnPF9dmRO8AHSk7N1BIMYhsGs76+pAH7nO7+98nhsLLISqiYS+4FFPvGJCLad3w9ndPQwtv0czp5NP7cCN/GimIE7/EL+43SKJ5+M84u/9OMMDX+WxUAnV6608fjj3TzveZMAfOITL+Ob39zBiRMjhMPphhEP9Uf5QNghMhrBnrIzY1AfHhEREREREZGs1irXM3p7WW5wP2DLSpWovi3eWmF1ArjqJ3PLDYyzfXwr9QHOyg2Rv/GNnXn7fN/7vkkqM/Rw2FFBmVRNAfAmUTgZWSWOM0c0OoXjDAER4C+ADh580CIdmZL5mfs4+7MD+AeGhr5KJHIUy7KudvglxvgI0WgCx3kfkcjaALbQkucRd12SngeANT+PZVm0kG75kA19Wyl/q0hu4Hrq1DOAp0gk7DVBbCq1l0QisPI8NABPvhWYvZVZ12Vu0eLtP/MYV7iZ6WmTQABuvhkSiX4Ajh27xLFjl4BbSCQyx+sHB7h7au3xRERERERkfV0IhzmQ/bCe8xrAgURizfIL4TAXenq4XamKSFMtl+j/WyjbD7htfJzOJvQDrtbQ0MWaAuBm9AweGdmbmQSufH6U3xZTJE0B8BZl2x1AP46zi/R/xkfo7r6LwcHsf9Llgp8tOc8XicdfAHy1aeO7776dOM4x4LcBn2i08jYhkvgEgDCW9d+IROIMDQ0x5/ssAqHM7SHLUMPtH4tQYsq4cj1/WoFQk2YcFRERERGR5vrP/n6eDIe5EA5z99mz/OyLX8zNJ06w+8472X34MJfPnOHyF77A4Hvew91nz/Lx6WkAdh8+zG2joxs7eJFrQG65WiWmafKk52G6Lp1N6AcsspkMDw9z8uTJyivWSAHwFhaJJIhEEkSjL8OyniIWm+Ztb5uoYQ/NaxnxwANXiEbniEbvAH6cSCTC2rrdZWBh9bGX4LK/yNz892FZh7DtdECbnfQtG/oueV4Nt3+0kg6Ba7OcOcZCTccSEREREZGNNDw8zO4jR7jt7/+eu8+e5e5svzdg9513cvnf/50vv+Y1K689dv/9/BNw84kTPHb//ew+coS3vvvdGzBykWvPPFC+C/Cq/X19TI2PsxQKqVhLtq3h4eGm7VsB8BaV2zJiaGgIgFhso0ZTXCSSIhK5Hsc5gm1XbpjuuTDpeRzou4L5+QHcTGeKAPkR7kKxjUsK1LwFrNYML/k+oTquMNpq/yAiIiIisu5OnjxJ5Dd+g8tnzvCzr3kNJ0+eXPlCfeuznsVnPvShNesPDw/z2P33r66rAFik6QJAe5VtILLaTZPAxAQcPNicQYk0WaXq3uz7UDOqgNdOTyjSYJV6/wJ0x2J5t3+4L5duUw0AACAASURBVF59HCBdAZxtAYHvrz6uaJF6AuBU5hh+zVuKiIiIiMhG+rX//t95ZW9v3msnT57k4/39XD5zpuR2zay8EpF8iUSCeDxe0zaGYTBjmiRiMbzM3EEC8XjnVW2fDRyrWU/WRzNaQCgA3gTK9aK9ViQHB0suW/Q8FlltAVFtnOs4Do7zMeCbOM73ahpPdj5Qn1r6DYuIiIiIyEY7kEhw+9hYXvVvs3oqikjtEokED3+5nb/7pxfUnIeEQiGeuHyZ6Yla2l9uf5/9bPoW6sXFVgBmZto4d24HTz0V5J//+Xp+67eeVnLbkydPVnV+1Dn06m3k71ktILYJy0pVXmkLKOwSnH1tKee5T7ovcGXPzvz5L+CJNUtL/c7mPY+5zDHmqzpO49gJG8LrfFARERERkW0uNwwutkxE1tfBZ4SZSl5mfr626lXDMLjh5puZd118162rZWOtBgdnmn6MXDf8+Z/znR/7sZLLEwUtJ//jP0xe8Yp0NfX09K2Eww5dXQscOpSe3HLfvhQvf/l3mzdg2RJUAbyNDA4mN3oIV6XUP8YlIJjT8mGB6qpybbsF254GLgHVVwAv+T4dodDKTxERERER2Zqy4W5hBXC1FW8i0njhcJgXhnbymh+YYg+jNW9vmibtpknKdTd9K4jHH+8ikWjnP/9zFx//+EDJ9eLxeOYuZoeTz3zmyuPcP8lkEsdxiMfjnDoF7373Gzh6dB/T05/noYf2c/lyB7/xG2/mqaf25ew3HbD/9V8faPLfVDY7VQBvA/F4J5aVIhbrJhab2fJBcKHFnInYPM+rqSo3ErmE45hEIpGqt2kFQoax8lNEmidbiZP75ayY3C9ohduIiIiIVEP9K0U2j8v7kuzbOYDregRcl2CNlbymaeICi64LOd/brZERkjfeSPKWWxo84vrcdFO6evj22ye5/fbJouvE43Huv/9hHOftQDaoDeT8XMr8bAOy1b/Z5pjvZWTk3cA8x4618e53/y/C4ac4fz691LLSU9z/0A9daODfSrYiBcDbyOBgklisi5GRvet6zFyxWDdDQxcbeozFnMft5LeDqMS2Z3Ccx4Bn5L1ers/QgueBYdR0nGbIBvvFKACT7aLaf8O5VTvlbuEUERERyXUhHGb3kSNcPnNGnyFENqH9fX1Mnz/PUihU8/w7pmkyCTz5+OO0GAaWZREfGsJxHHCcsts6jgMMAj6RyMvrHn+jDA0dwrKmsKyvkm6EWfhniVjsJgYH/4t4fA933PHrwBLvf/9LsawniERS2Ha1MybJtUgB8DprVnCXG/o2qgK4lr7CsVj3yjbJZCuO01PlMWYrHmce2JFpxbDg+3TW2JYhEnlG5ZVyZCuOFwquJK6HeLxTPYDlmlSsErjULZu564mIiIgUGh4e5uYTJ9h9553sPnyYm9/zHl4wfWXNOrB6YVmfLUTWV7auFWDONDHq/P49Oz/Ph37zKzz69fuAfaRLyL6P/ApaCh5nf/4y8PNEozM88EAC296YuZUsy2L4+yzednaaWGRP3rLp6Tbm51v4h3+wOHJklhe/+FbOn9/Bm998jq997blMTt7Do4/2MTo6Czy+IeOXrUEB8DZg21PAVN3b1zrrZjHZ2wqqP+baRu+BIutlWz5krwSuxz9YHzBI9wKutaG8Ey5/lVFESiv84lXqy5i+pImIiEgl73z1q/lyfz93nz7N8PAwxyJvgtfdU/QCsz5XiGws0zSJex5LrktXHZO6veYHb+VA3wLwKJblk66YnWNtFe38ymPH+SqOE8C2x4hEprHtjZ3/Z24PxH5xec3rO3akq3rf+MbvMDKyF8NIx+aG4XHwYJLXvnaWG298ck0mEw47ayaLk2ubAuBNopZq22L+/M/7+LEfG9+QYzfqmMUC4FZWO9tkNbMvr+d5zAB7DIM4YKkHsMi6KPfFS9W/IiIiUouTJ0/yC//wD+y+807uznk9t/1D4fwD+nwhsv5y486dpsnSxATUGABblsUb2yyGTmRbUWanl68U6L4cx3EybRM29+TvDz+8m6c//QrJZBtPPhnk1KnrePjh/83v//5vMDpqcPZsGMu6yMWL6UK7t771d3nLW9QOQvIpAN6C4vFg3tWdkZG9mObcuvb+bRTbniobQLdBXsuHtdfD6lfsuO2kA2fP89iYmz9EpJAqfkVERKRW73z1q7nQ0wNjY3mv5/YBzg2E9XlDZH0tQl7PX8MwcE2TtvFxgn19Ne3r0svqG4Ntb40K2TvuuAxAd/cC+/enOHr0e9x77/9DImEzMOCRSCQA2Ls3nRN97GNv4+zZBzZsvLI5KQDeBiwrxfHjP0E47HD69KmNHk5DpXyfzpw3hZnJSSZJ3yLSFJkew+3kTz632ejDqVxL9O9dRERE6vFkOLwmAC6sAlYFsMjG6AqubUVpmiYXPY9Wz6Ndd+OKNJQC4HXWrA8Wf/ZnL+Ls2beSSNxc1frZSduKudpJ5N72tsfq3rawwrc157UZ12VuaWmlUXw10rd0rL2qV6wHMaTbUIQMg6U6JpsTkcbQ7NwiIiLSDIVtH7Kv6bOHyOaxwzSZn5ig/eDBjR5KnvQd1/l3Xcdi3TXnJ/XmLYODM2teC2sOIqmBAuBt4rHHBnnrWz/G1NTTNnQcv/u71QXQtQgVtIAIVRnMRqO7iUZfwwMP/H3Vt3YseB4YBq00t9ewiOQrVX2j2zFFRESkHgcSiXQLiByFnyvUAkJk4xSbAwhWW0EExscJ1dgKolrRaD/JZPk4rLt7oejz3FaStYS5hfvLLcqrZl6mWKxrzXYitVAALJtGsf6+C0B3JohthZqqf9NvKXM1bbHo+4RMkyXXhToDYLsBM21a1mzJKmWR7a7U7Zi6RVNERESqdSEcXmkBUarvr1pAiGycljLLTNPkkufR1sRWELl3Lsfja9tR5KoUFtej3u/88XgnljXL6OhA5nkQxwkzOJjEslIkErYqg6UoBcCbQKWTTTGFV4gOH976/4MXuwI463l0Z/r9BkiHxEaVbwCOsxe4WHG9XB5wnWEw47o1bSciVy/3i1f2C1luNY5u0RQREZF6DA8PcyzyJh6KfrLk5wlVAIusr0oTvBumyazrNiUALsxTqqnAbYarab85MDAKwNhYCstKYVmzDRqVbFflLrrIFpNoQOXp1bra/sGFOnJO9gFqrQBeJh3pwp7Pf77i2p7nke2qs+D7VbeaEJGrV1iZU6oCWF/MREREpFr7E4mVxw9FP8mxyJt0MVlkk6h0r65hGMwaBnMqzhJpCFUAy6aWOxFbm+dVvEoYDjv09DiZxz8GdBAOO3Qdgy4eX1kvHr8FgP7+b6289vWzHh0h6O//Al95wuJv/vIFvPrVX+KWW5L8wR+8iqmpRd797s+urJ9MBunuTvGnf3oDr31tnO7u9FvYUepvxp7e7gV1bSuylZW6HbNYBbBCYBEREakk2wP4QjgMwLHIm4C1dxTpDiORjbEzWPlOaNM0SYyPsxgKNXSOno2q+BXZSAqAZVOb8/2VKuBZ0hXAxSpz3/GOZ/PRjz5CT4/DwEA08+obOXr0EY4fj65Zf3T0LgYGxlZumxgdHeD/fv6HmOYUP3DsKxy8FaKR+1fW/73fu6/kGA8fXn38fuBXwg6ES69fzADw/tG7eP7eERznVXpDkmtOqS9fpSZqERERESkn2wP4wNQUwJr2D9mLyuoBLLIxFqu847bjKufoKSaZbMNx8ieJrLeFwkZ9d8/t9RuPBxkcnKmwhVzrFABvA47jcNddGz2KtEafdFoL3hSWKN4D+KMffQSAqSmbs2cfACCReC6OM7/yPNfYWA+zs7NMTaVP1vF4EHYeYge3Evvak3ztWwtcurKf3bvTLS3+6I9eyde+1sOb3vTPPPe5k0xPt7FjxwJ/8Aev4o47/okXv/i/0jseiPIB4PhopKa/5+Gww0MAYxGO2om6+kKLbBelZuRWhY6IiIhUK1sBfCCnDUS2F/BPve6eNevrLiOR9VVsDqBiDMPA9X06XJf2zPxAjeA44arXjcW6mZsr3UG1u3sBgN27VxtbVJo4rlxwnN1fuW18/xaCwR7Onu1RfiBVUQC8RTnO13Eci2j0FuDvGR19OeCRSGRPFLnNEgobJ4SA3cB7iUSOYtvN7R3sOE8Sjf41tr2j6LFKHT8ejwOs3OqxTOVG8Wv7IE8X7Y187txegsEpgsH0CTQYhJc9BxZ6Bkj9+w5a9nu0tPSR/bx4zz0Xueeei0A/iUR/5ljwIz/yFPBsxsaeDcD7B6LYCZujY5EKI833EFGiPMGJlFXTdiLbhW7FFBERkUbKVgAzNpb32eKh6CdXqoFzKfwV2bxM02RqfJz2UKjqSeHLOXLE5ciR6nsLf/jDB7n11ilise6qtykV4mZlA+JiwfLlyx15z7PHHRqKc/vtk8Tjndxxx7cIhx0Cgamix+vpcTbFPFGyeSgA3qJs+5mZK1bXAzfjOK/Atr8KPLNgzex1tcWc11qJx10sa6CpY4xGE0SjzwVuBM7iOO/NWbo2yt1JnCt0ATtI/9N8mKGhvyISOYplWSwDwRomZnOcXVR/XREWMneAzAxCiMbPNCoipRXekpmr8BZNERERkUqyFcCwWvmb9VD0k2sqflUBLLK+qv+mntZumtDgVhDVunAhxLvedR64uO7HzhWLdatdpNRNAfAmUO//wJFIgkgkwf33T/IjP/IuBgYCBAKdVW1r/2QA54G76zpu9eMLA+eJRp8FfAbbvj6n2nft6b7dm2SKIIYRArqJxzuwbRvLylTF+j7LNQTAaUngupq2WPS8ut5UnDonfhOR8v191QJCRERE6vHlgYGVHsCQDn75/9u7++A47vvO8x/wERhSwpAjr8YiGdAWLcmOLY4vtiPbeuDuXiJk7Qy4MHyrVDbwbLDejUq+HLNVa8t2Uo4rjq24vGumKhtv7gp7I1ztxXuLQgmTTQ6OLxfQ4nplaTcayrc2zUA2EJLyKBaoAUUC4CPuD6CHv2l0z/Q89dO8X1UoADM9Mw2g0dP96e/v+1N1tS/HF4D/Gg1/pfVWEOcWF7V1cVE729gKAugWBMAxMDg4KOm0p2W3X7iga3v3qvjv6jVTaI9cbptyudPK59+vXO5nai57bVG6qFWlUru0dXlZNxLSwL99uxY2qoVvSE3M/Pm81iuQvas9UANAJ9gnYXGakIWTMwAA0Iijp05pX7msQqGg8anJyu1mtS+TwAH+u1AqqefKFd1+4EBDj9t/4ID+v2ef1Z63vlX79u3r0NptdujQJd9ey4tSyVvhH2By72KN0Gqlwfe1vXvbuCbe5XK5ususLS+r99Il7SyVdGMj5134tVtBdXPBrHt1tVvl9fWVFfU1XGkMoBMIfQEAQLOeOXxY55PJqpDX+pCcg2AAnVUqlfSn/8+b9Jf/7zuaevyegwe18/JlrSwvt3nNgHijAjgGksmi1vwp6O241d27dcVlOMcNeb9iUSwWJT2iTOZeFYvFhia6W5GUDKCvENDNzJMutxMwhmgCAIBGPHHiRNX39uMIqn6BYLznPW/StYV5SQMNP3bfgQNaOHNGfQH1A/bNzZvSlsZrNpeWmPgNzqgARmjcrHP/DclzZW4+f5ukSRWL5Y0w2Jvl5eUaNcP+aqXSG4gaey8+82tCXwAA0Ix/88gjOp9MVr63VwAD8F86nVbmXZd16D3XtHL2bFPP8ab9+7W8shLvKmCP4W+SuYjgERXAiIwbWm/87kUu9xYdO/bTkv7Ksf2EW7h6c2VFO1ps/5Apc8UNaIW9GpiTNAAA0AyrB7DF3grCvA2Af9a2SHv27NHF5WXdXFzUrgYndUskElpJpXTDoQq459o1rW3f3s7V9UWpVFKxuL6/cmtXOTNzpwYHX1WpdK9mZ6VkUvr854+pt/ePlE4vKZd7n49rjKghAA5Yu6o8M5lTGh9/QqXS3ZXbWmlUfujQ5SYe07nG6CvLyw31AM5ktiiTeUOZzI6GXmenpJh00wAAAAC62jOHD+voqVOVEUVDuVFN5yeqLjAz2ggIzm2plNbOndNyX5/nYi9LKpXSG5KuLC9rp/FYL+Fvo20im/UHf3C3HnroNb3jHRd1+vRtSiav68AB56rlUqmkfL6kUumL2jw+2kopejQzsyapR9L/uHHbTUm/Lel/Vj5/Xfn8GR0+3P6fBdFHABwTmUxRv/M7/0anTr2t6va5ud1NPd/c3K6mHtNMcOzFFkm9DVbm5nI/VCbzdxt+rb449xECQooTMQAA0G5mBbAV/kpynAQOgP8SiYQWUyntarKf7+Vr1/T7vz+t1y5mJX1fmcxdWg9Er2h9DPHaxvfWbdcl3VA+/4eS/qVyuQHlcul2/TibfOITL1e+fte7LtZcNp1OK5f7aZVK/7ek72/c2lP1MTd3UIcOLahUeqvuu+8ZDQ19S5//vDQ7+1FlMj9QLvfflck0UjqHbkIAHEFuwwEsL76Y1Ozsm3TvvW/o/e9f1J491xp+jU5W87qpVXm7VfV7BNs1Wv0rSTeWl+PdSB4IKSv0tZ+EcVIGAACa9cLA+gRT+8plTecnKscb1jEHxxlA8FKplErLy7qtiVYQkrQt8Q4Vv/Uzkoa1Pv1Pj4dHfV7SZ5XP/33l8z06fvyMMpmrrkv7kY+k02kNDkrSdknvcVxmvQVEUsVivz72sf+mZPKvtWfPcc3OPqJ0+orS6XdK8r8nsFm8w341vAiAI2h5eWvV9/PzB/X00x/T6mpa8/N3SpLe/vb1q0vf+c7ems/VSAuKesFzMwYHX/W0XI+kXh+C2RsrK+pr4k0HQGfYQ2EOKAAAgFd3lcvaVy5vGlnE8QQQPLMALH3ggN44c6bhVhDpdFq/9YHblS//jU4/tVB1X63J4IvFoorFrcpk/ly53L5GVz0SksmiFhbqLxcljNpoDQFwBL344h6dO5fQr//6nF5/fbvm53fpgx88rzvuWNJ9972q//pfk3rPe8p64YU9ymSW9O1v79Ujj7wW9Gq3pEft7c3rFmavSKL+FwiW/STNfKPnTR8AAHi1b2lJ55PJTZW/bjjOAPxzw/b91v371dNEK4hrDyd0+uHNaUGtHr9+9P/1U6nUq3T6StCr0VHWOSL76eYRAEfQBz/4WqVy9sqVrTp48HVt23ZN3/nOvZUK4JmZ9c9/8Rdvqvq+HbxUDXupFs5kljxXFV9ZWfFlcrZVSXfQAgIIFd7gAQBAM6wWEI8//LCk9T7AtXDMAfinzzbHTyKR0PnFRd2xuKidIRuV26m5jtqpEyO2vTLncCGgDS8C4BBo9R/1gQd+oCNHTkh6i7Zt875jCqLPby21evz2aPMbRLPcAuyV5WW5d/3prGKyKKk/oFcHgmfvG8UkcAAAoFVHT53S+WRSRzeOLabzExobHtm0HMceQDjsO3BAPzlzRrsabAXRjcrljJJJ//v9uun0fpT9dOsIgGPi4x//3/SzP1vUyy/vkiTNze328Kj2VQWbzJku2+Wm1PE3gJsrK9rZppC5VesXBQiE0T28Ds0EAESXvaWPxa3Nj/W9+dlcHqjnmcOHJa1PAic5TzpLoIAw6aZjYbep2nY12QoCwfNj2+2W/49OIACOid27L2lk5D/r1KmPbtzibXK1dmtnqwmTvT9QJ+xQ7Srkeor94bn6BkQVV3YBIJ7MoaFu9zndX+txQD3v3ZgBqdZ2xLEHwsLPIfRhCJrdAuBEIqHFlRVtXVzUjg60giiVelUq7ax876V37ve+d5v+9b9+W9Uo6h07vKUHzY68jkLbCb8Fvc1GHQEwImGHT5W5DDMBAABor3aHa2EILhAd5/v7HSvJgW4Vll6tteb4SaVSWjp7Vjf6+tTX4XN0Mwx281M/tax/9s9+6Gk+JLsLF3ZUPc5rcPz883s3PebQoUsqFvtrrke5HK8J7qTgt9W4IABGJDRTmXvs2N+qWLyo48cvbZrl06nv8vXlZYaZAAGy3tQ5OQOA6LK3bTA1u3/nfQHtwnaEMPNjXxem/4F6k7xvT6W01oFWEOn0agvzMC21dV28sge+XqqWG2W2Wap3wayRMNbevsn+OrXw/t9eBMAR08wVpzjY0dSjHpH0Q0nf8bT0zZUV9YVstlGgm3i5ssuVXwAIv1bbNtj39fbewbwXwKt95XKl/6/Fafsyv2b7Qpw59WEPylXVDqSsVhDbFxe1vY3n6fUqaGtpPjiu9ZztD3ObZRbkmJ/bwdzmhnKjnrbBMGynQejUexEBcMC8DDfoFrWqfG9I2trwM26R5H1nuiKJ+l8geN36Rg8AcWffv3s9uTGXI5xDq+wn1kwwiDCptw06TYpZKyxyui8sFzq8tF9MpVJaPHtWt/X1aUebKoEzmSXVquR1Coe/+93bdf58X9PBcb3Hee0TbC5XKvXq4MGmVsdRp7eJQqGg8anJqtuGcqOazk9oKDdadbt123R+oqPrFAS3kVL1vm8HAuAYKJWek3Q46NXoqOtqpgp4i6zW8vf/i3+h737lK1rbssU1dF+VdActIIBAmG9w9qE+YTlIBQDUVm9Y51BuVGPDI5Kk8alJ1/17NputWtb+3EAznLapeuEZEJRaBRFOE2c2UkARte29L5XSjXPnpHvu8eX1nKp8n3rqXn3iEy+39Lxzc7taerwk7d59o+lJ5YLktM1Zoa89/LVus4e/cdtXO7XJcruvXQiAI6xYfEX5/G4Vizt09GhK//AfPqxy+XtaDz6t8HOL7ePqxuc+Sc9pcLBXg4ODvqxvPv9fVCy+pGLx68rlHt9Yv1sfNxZ/oit9t21cCdy5sY5bVCqtKp1+RYODg0qn0w28Yo+kK8pkMnopU7sR+rXl5QZqhWvLLMWv6TrQaZyAAUBwzOCgmf2wPXiwV6jZg7fxqUmNDY84Vva4PRd9ANGK5wcG9OzcDzVtXEjoxBBnIGzCun03Mvl6IpHQYiqlnrNn1XvgQAfXqrZWg9d2BLdzc7s33dbfX5T06Kbbk8liy6/XLvbK32aEdVtuVJA/BwFwRBWLZ1QsflDF4l2STuqZZ35F0j+2LWVvq25+36NMpqSG8tQmFYs3dOzYPZLuk3Rc0nXl81bwe8suvaLLusvhGeaVyfz+xvq6r/DmHdw7JV1WMvm9qlt7e+9Vb29JyeStYR9n5pd19fqKpHu0uLhDqdTVyn3Xr/do27bq3+W/+ldv00c+cl4HDy6rXN6uZPKa63oBqM9r+EtIDADhZ+2nraqe6fxEVQBsX85kD4utZcanJtn/o2XmhQSOKRBmZnGEddFMUtWFNWuY/NjwSFXANjY8ErvtPJVK6bXlZW1dXtZ2Ru1GjtnSwani14u4bMtBIgCOoHR6VZnMPcpkfqJM5qqKxbuUTB7X5z73tE6dOu7pOf7ON3pU/pmMrt7R4ZWVlMls1ezsy8rne5TP/6VyuU8pkzms9UDa+pCuL76sq319m64G7jpzULc9/NimoRinT9+m++57o/L94cPHqu5PJu+XtHXT7a+//sjG8ickSfPzB/X9H/ySlq78uX7t8d+pLPfccw/ogQeec/yZHnlk822zkv5S0hHj9cplb9XAyWRRR/SIDnpaGogft9lmnb4HgsBBJ+LKreK2EU6te8wTPPNrpyogM9xwCoqt5+P/EF5ks1l97Vvf0gsDAzqfTOq98/N6JZms3Gf/zASDCDNz3zo2PFJ1Yc0Mf+2fLXHaphOplC7OzUn79inl8+TtUWy7ECZx2g6jjAA4Bo4dk/L5xh7zt4/aq4Pb49Chy6735XJryuV+z/X+i2e36loioVQqpS2rq9q5uKiVffukjLTeobeaGf5KqoTf60MgpNnZv6sjRz6l+flc1XKvvnqvJGl+/i0bnw9qx+336b0H+zU//y5J0unTB/T1r/+M0uln9MMfbtGf/3lGicRryuVmtWPHFfX2XtHVqzu0Y8dVfeELv6nf/M0v6JGNCuRaoa/bMIzPbXz+gaTPf/7tesc7Luq22667Pg8QZ24hMAcOCIofw8650IGgtbLd2bffWkM9zXDCDH69rNt0foL3A7h6fmBAXzi8Pi/KV/7sz/TI44/rwsmT+sMvfUl7HnxQF06erCxr9pe0h8AS+2GEixX6mvtWexWlfb/qtH2HSalUe3Svk0QiofktW7Tn/HktOxSOIVy8TlToxrzYgfYgAEYo3eztXQ9/G2AFr2YAOzv701pY+AdVy5VK/Uqnr2hh4f2SpJ4e6f3vl/Y+m9bCmx+QJPX1Sf/kn0gLCzlt3Sr9wi+sP/ZHP/p7m173F39xPXx+eiCv/MG8ji/klPFY+Wv5jcPHVJT0pKTPfe77kqSZmTsbeg4gypyqf83bw3jgiu7iZzU6AQSC0MyFjmb78tqrfe0hsBkMm1/zPxFf5zcqdPeVy5u+Pt/fr/ctLFSWfX5gQPuWbrVye2FgoPK1tU3ufeghnfja1/TyU09JUiX8bXboMRAW9n2jFfyat7ej32onlUol/cmfvCEppY9/fHtDjz341rfq9XPntLa4KHVhADw3tysy1cjW/tg+Ksgrgt/2IwBGaKxJ6uvra/OzPi9poO5SknThoTa/NADP7FeGnQIFQjEEoZnZtZvh1gYFCLNObKvjU5OVkz5riLP9f4P3gVvMsNQKRveVy1X31X2O/v7159gIVa3vJemVZFJ3lcuVFgrW1+bnFw4e1L5yWXdtvK71OKv9wr6lpcpzWs9zPpmsrKf5/M8cPly5/ZmNat595bK0sKBnDh+uPO4b585p74MPVu6/q1zW+xYWlM1mdfeTT+rR/fv1vg98QDKOK+wBhFldNj416TjrPBAW5v5QWt9+raA3itttOr2qtYsJSY3NpZNIJKT9+7V67py2Li+rN+Yh8D1f/rLK7363/vbnfq6hx5XLmVBNAuc2FwD8RQAcAun0laBXIRS2rqx04Fk3t46IilKpN+hVAAJB+IUoaGRYmxle1VrOvI+AC36xX3To1JBLK9i1WkSYX1sTvLCt6QAAIABJREFUFtkDOOt+ax29BHRehpm6LWOGkm7fn+/vrwpZTc9vVKKa1aqdcD6ZrISjdq+Uy1X3mRW19b5/xfjaqph9VzKpP3ziCR399/9ekvTHf/zHkqRf+qVf0l3l8npobIS8VigsSe+dn6+8jhUSv3fjd2MFttbv9L0LC5V12VcuK/flL+t3v/jFqnU8n0zq6KlT2lcu66gknTjhePH49ZMnte8f3BoBWO+4wqkyLazD5tG9rO3UaXt1ui3MF5TT6bR+8RfT+vHZH+rmckpbGgxxE4mEVlIpXbdVAW8vl/V3/uIv9MrRo1rburXdq92Sy5e3qqdHWluTdu264bpcqVRSqVSqfF/8+Z/f+KK48elOpdOvSpJWV6UHHpCefjqvp576oEqls8rlNo9YjiouyrUfATBibnMf3VKpl9AdiDBOyuAXqyLMXrHgVIVY7yTLrZKYbRlBs2/PVkWZU6Bgzt5tDT22gtx6QzzN6jVrOXNyN/ukcebz11tn++1uE3vZ3z/sbV1eGBjYFKx+o7+/8pjPfuYzeu+f/qlekPSELXzMffnLlZBUHQ6Anzl8WBdOntSv3nabPvuZzyj/yU/qfDKpxx9+WIVCoaoqOJvNaq/R/9Ztn+P63nrqlI5+8pPSqVOSpKMf+MD67Rs/o/m3sCp1zfstT5w4UfW9FaDvK5erwnTr6/wnPynZbrc/h9vPc+HkST3+8MOuExG6IWhAWNkndvMi7G0gJKk/ldLKuXPadc89DT82lUppSdL15WVt2wiBryWTOv+Rj9R9bHEjTM1kvLdtbLbtgjVxfa3Q15TPz2pm5j2S/ic5ZRnSDs3MXN34epuefPKLOnLkhKRXlc/nlM9fUi63pq9+tanV7Rgvxwl25vGF9RxoTc/s7GxnZgODJ8Xiej/adNpbpWqp1KtSaacymaXK448cOaEXX3xRR4+eqkyEFpS5ud1N7xzfOHNGW/fvb1sz9yNHHlEm85Ryub6qnfvMzJ3KZJY8/869yls9gE8db7gH8LHDx1Qs9uvJHzypwfvW22Dk8wPK5Tp7AgEErV7bB8l5aDwHAAiDZnuaSbcOaoGgOVX/ujEDYPNri3mxpNXwwS3wMF/D63uC23uNW2W+VX36+MMPVz2/Wx9wLkwGx+nYwaoaa6XnJH9PhIF9tFGj4ZklzNvz4uKibpO0I5Vq6vF/MjWlxYsDkt6QtF3rjSUtzl8Xiy+qWHxFudynJZ1QLjdU93VmZu7U4OCrTa1jI4rFsmZmdktKKp1+Y9P9c3MpHTq0KGk9G3rggX+rcjmj48d3SfqwcrlTyuX6dPjwMSWTRZ04Mdvxda7F7SKzV/YLc2HelqOACuCYyGRO6bd+6wmdPHm4qQC2lUbihw5dbvqxnXLs2P8p6aKKxUsqFn/Q0NW9ZhVD1GMHiAIvvVXNXmfmcpxsIwxaCX8ltmOET73QrF5FpTlhW6vqhb+SHCt7nf6v7O1VzGWc/get6tNaz2Pn1//z+WRSLwwM6OhGRS42D3VvNvyVboXH7J8RJq1ccA67VCql186cUaKvr6lCsP9+5qpmZv4HSUcafORnlc8/KOmDKhbP6fjxpbqP8EMmk9R6dHFJUs+m+2dmtmtwcP321dVTevTRpzU/36PTp/+5nnzyjKR2z6nUmna2ImGf3DoC4JhIJjP6p//0skZGmj8YnJvb3cRjdmlublfl+7CEwbncYzp27J2S/kq5XG7T/e2u/gXQOLdJr5z6UTIsE2HTysmYtU1zIIswMPe57QgYOhGcWdXAbgFzrfDXvm7m8uZt5nN5uc3+PG7P3yzrub72rW9VKpEl6e4nn5Qk/bunnqq7fvXui4Jaf1u3n6uV7dg+5BgIg1aq2qMgsX+/emz9fL36l/uPaPD4kqTf9/yYYrGofP4O5XInlct5mywz7NLptKTwjh5u9riZ/XF7EQBHTKm0c9NtX//6o0qnH/Hl9e29c61WFKZGJi8zg9h29iLJZLYok3lDmcyeNj4rgE5wOqlz6/9oHgRQnYOoYxtG2LQjYHDq6dsKsxWENVmcnf29oZ5ayzjd57Z8vdub/f82n/eZw4f16NL68faFkye198EH9cKHPuRpPerd5xczvKp3Qdce+Np/l063O11MbmVdw/A7AyzWtt9MH+CoSCQSem1xUduWl7W9wRB46z9Oa32sr/cRv5lMRg41YpHmVuCWTBZVbrA9ZTu1eoGZEaDtRQAcsFYnJMtkllQqtXdCM6eQ2ct99Z+3OhhOp1c7FgBLUi73Y2UyzjMkd0KmnFExWVSxf/0js5TZdD+AW+r1NXOaiIiTMvjJDJ3sCoVCSydiTpPLAUFopAewV60+jxlEm/9n1sSM9hDReg/xY7SI39VIVti758EHdV/msP60v9/T48xezfbbrduc+jmbQa1bv+dmLhS4VTA6TSw4Njzi2KLDfvJvLtOuvwk9gBEm5jFynCuAJSmRSunq4mLDAbBfwjLSOS6a2Z7ZL7eOSeAC1uiEZMViv4rFZN2evc3soIJui7B05oy2t3ESODfW79wv5u/V7BNsBsLFZHH9YsDpn62sG5PAIe6auSLsdHLPwQCC0molDm0gEBbtbAHhF6dg07zPKQB1ConrBZO1QmWn31c7Jqyx/h57H3xQd3/603rhQx9y/dvYWxZE6W9Yj9M+0qz2tS7E2f9WrbaAsLB/RtAanUDLbd8XlW353NmzuiORUG+TE8J1UiuT3beTORnd6uppPfror2l+Pqc/+qNPVU1SZ00Cd+rU8UArgKXNxxhO76tu76f29+GobMthRQVwAzo9+/zLL+/S3Xdf1urqVqXT/039/UUtLOSqlikWk3rwQWvWx526dMn5T1gs1q8OcGvV4PactR63e/f1mo9xes5Mply1E716drd6lm7X9u27Ni1rSqevtBRW+zF7pxu3KuBMOSP1SjKC6U4E8gybQNRxEICwiPOELOguUR1Z0exkdU6Pq3VbM//n7ahGLhQKOp9M6nx/v16o81pWZXTcWD+bdKs62Px57SOF4vg7AKTNxxxOVfymqM6dsf/AAb1x5oxuNjkhXKfVmzMpDAFxUJx655u3e+2lb5rOT2hseMS1/RMaRwAcIvv3r+jmTam39880MPCHSiRWdODA/6GzZ39FFy7cpjfe+IiWl7fq0KFLunx5WyR3MLX6A19euaqe1FUlEs6bZSvtJ+Ki0R2fU180QmCETSNDgKJ6QAsAYWUeI8R9iLEf7L8/89jNquh1svfBB3Xh5ElJ6xO9/ca3v61HHn9cz/zyL/M3UesjLrwyj52BMHE6BvZ6W5RcTaWUaHJCuEY0Mm/R+vLuxXeSFQ7f2fB6NFpZbC5r5SNJY5Rx2FgjNcanJhverzrtjztdlBl3BMAhsbYm7dx5c+O7R/W7v/uYnnjiqxoYyOvgwbyOHz+u1dWStm8/qE996l26caNHX/nKS4GuczNqVbW+dvGqEulVJRJbXB/b6I66W7hVmjQyIQoQlEZObP3q8QjU40cgY/XCBDqJY4TOsPp8O/1+Lzz7rCRp70MP6cKzz2rvQw9p7ktfqtz/+smTuvvTn9aPX/uJPjj4qDT3176tdzebzk9ULoIQAiNOorQ9p1IpLS0vS8vL6utgCFx73qPGMwevIa79uQcHSw2/1szMetB8330/avixnWav/JVam/ciKtttVBAAh0RPz62vX3qpXx/+8OtaWMhpYSGngYG8fvu38yqXM3ryybfpscfKeve7y8GtLALjNlmW5C2MIDhDGFEBjCjyo1KS8Bd+o9K0/cwLlw8deqvGbtzQeOkVTecn9PJTT61XR/3H/6Df2vh/r0z4VKPvLzqjVmgPBMmtAtLcVs3vne6Lku2plBSyKuB2FqK1q9VjrXmNyuVMoJXB9pHIrRzTsk9uHwLgELDvAN75zos6d65P+/ev6PXXt+uLX3xKIyNf0Mc//gdKJv+5XnzxzXr3u8u6eHGbbr/9up5+ekAf+1i0Jwubm9ut7337NW1901/rQxuzHWOzdu38onQVGPHX7EziQNAYLo84cOvLh9ZYPWsl5z6d1m3WMvYWB+xbgO5kP0+zn7M1e1+UJBIJ/XhxUTuXl7WlQyHwenjq38Tw7RbmkdH2Ng2tbIv25+J4pTXOY+0RqC1b1rR//4okac+ea/rMZ07rox9d7wnW0yP96q/OS5Juv3194rWohb/Ly8uan5vTq2fP6idnz+rC2bP6k6nb9Z+f+3l985vfDHr1ukKUDwgQP42EuYS/ANBe5skU+9fO8hLqEvwGZzo/QbiAwGSz2U3t+9p9zhal7bs/ldLquXNBrwY8KhQKm7ZXc3tudtuzP6/T68A7KoBD6D/9pzfr537u1UpP4ImJAf3N3/xHffObb9uoFr7VL+LrXz+g1dUtyuXCEwIvLy9LklZWVnRteVl9knZI6llZ0Vpfn25cuaItFy5o55vfrL5USjsTCb39/pt6+/27dejQJwJd97gjPEPcUM0Ok989cwlqEAdUAHeGW8suhJfTMHsgbqIyiVYikdBiKqVti4vakUoFui4zM3fqu9/tV1/fDcf71yeAq9bIxG6NPubQocvavft6w8/vN2sba+d7YTvO/br5/JEAOIQ+/OEfV30/OrqgZLKoU6eOa3U1LenVyn2PPXbW57WTZmZWdfbss7r33p265y1v2RTwStLWREK39/Xp2sb39gbut9mec3CwpPt+s0c9J96m739prfM/RES1epJG+Iu46dY3bzjzK/xtZzDQzQehCAeCrs4g/I2OMaP/MvtjhAHb4bpUKqWzL72kLaur2rdvX6Dr8q53LWlw8NX6CzbBKUB2X3ZXR9ahnazMwtqnmsfnTi0dGtnezd7Czej2Yx5aQEREuZxRuZwJejUkSaWzB9R77U26va9Pt6dS2p5Kqe/AAfXec4/6DhxQ4sAB7UyltD2RUGLjw4vTX1gj/K2j23dYiKdWTpL5n0AY2C+uOV1sM28zv+YkD0Gzb4PT+QnX7RWIG6vtg70HM/tm+Mmv41lz+HxUjqGvJhLasrhYGWUcR4cOXWrg43LlcadPPxDgWrurV2UeZK/qbt+3UwEcIT/6UWdnwfTqi+df05lfeI/03vAPO4ibViqAOYFDWDU6kZZ9lmMgKLVCskZCYCCM7NsrFa2II+s4YnxqkmMKBMbPbS9qle5vvusulc+d09XFRc+FZbilv7/oeyGhffsyW7S1Y9tr9TmitP23GwFwhLzlLcv6wQ/szRP8d+a31yQFE/6m06uhnvESQGdZlWn2oUWAn8K2zZ1PJnW+v1/vWwjPfACIJqcJXOgRjDizKn/97B8PBClsxzD1JBIJaf9+XV9crL5jbU3q6XF+EAJlHTMM5UY1NjxSd//K+Zx/aAERsEbDzPVJ4NCtWjkBo3IHYcW2CQDBcptVm/AX3YLtHAivRCKhm4mEbphtIDyGv8VisUNr5Z/+l17SwER0Ro5ZxxNWix3zoxbrfvbHnUMFMBAhnIghjqxhxkO50cowY3O4sX2oPP8H6BZeKyL2lcvaVy77sEYAEC/WqCIrqGh1giEAnbF67Zom/8N3tC3xfklXJP2tce+ay9dSPv+/S/pV5XIHJf2lcrmjDb/2oUOXA518ben++7V0//01lykWi5qZ+Y4yGTX1M3aCuR+ttV81z+04x+ssAuAIofUBWtkh0m8SYWS+4VvbqPnZqTqYAwPEFaEDAPhrKDdadVzBfhgIr9cu7tXM/5WRdLCBR/0vkj6rfP6Xlcncr2JxXplM460jzMnXOm1mZkZPPSVJH5b0JknW+vZISmx8viGpR4899kMdOfJfNDv79yRtU7F4Wfn8Dh079rP66lfzvq2zE3POlnr7VXuBD/viziAABkKsVOqtavvRbOWj2TMVCAvrTd3pzd1807e2X6BbWJNlsN0DQOdZF5vHhkc4VgZCKp1O69c+uk1Pv/43+v7vOc954NTuoVgsqljcolzuBWUyfboVpoZXOp1WJvOgSqWfUjp9cePWNUnbtb7+1nxMN5RM/pWkXUqnb6pU+o6kh5XJ9CqTCUfr0EaOZa1l2Q93DgEw0AWGcqMan5qsDK0HosAKgQnBECTzILRT26L9QJfJiADAX9YksxZz1noA4ZC8+w59//fWXO/PZDKebvPT7Owdmp/fpVxuQc89t1d33HGlbjVxJpPR//obl7Q88L1N983N7ZYkHTp0SaVSr/7RPxrR6dMP6Bvf+JqKxdeUyVxSJnNRyWSwQXcrE3Yz2XfnEAA3gI0PQWv2ahihL6LGeuPnBAzdhoNdhJVbWx4gDqwiCWv/y7EHgHY4cuQ1Sa9Jkh544ILnxy0PeH+N3t6SJCmXyzWwZs2pdZxqv6+V41mn0ctxOUZuJNNp98+7pa3PhoaZw/uBeswdgBnqEvAibsy+wAwDQpDsE1h06jXicECLeLK2TcJfxF2hUND41GTlAwC6jVV56/ZhLeOk3ceybm0Cm8VEc1QAR046fSXoVUAIjA2PbOpTNjY84niwaoXDzGqMKKJtCcLAr/0m+2eEkXlBjhAYcWYdRzP3AADcErZq3GZfOyx5SCOv3+71JQAGIszcGdSrVAjDzg5olNNJGNsyutXzA+vjAd+34Dz5CdAuTvtZwl8AAMKjVNpZd5lksiivh41OlbFuk3YH0aO3G8//6v3M1t/MbQI9++NpAQFEjNvO1246P7Gpf1k3D3dA+Lltn+bthL/odvuWloJeBXSBdvXwA6KIbR5AN7JakpkftZaNoqiut7S5PYf9Pqn+z0cFMBBSXvpD1wrDrPA3yjs5dBe3bdUeRBACo1tR+YsgcPEY3WQ6P0ELCADwgP2kf9wqe53+BrX+LgTAQISx00WcEOwCQPg49f4D4sicNwMAgLBo1/sSAXDEFIv9kvqbfnyp1LvpNi+Vpp3SzGszER4QP7XCBYJhAAgO4S+6hTXxbDab1VBudFMrNQAI2tzcLh06dLnyfbmckVQOboUQKQTAAXIKY2tJp1c1OBhcWNusRn/OeoIMrAF0hhnwEjYAAICgEP4CMB06dElzc7uDXg2gZQTA6DgCWwD1mFW+9uHGVP8CQPCm8xMayo0GvRpAx1gtIMaGRzQ+NUkIDKBiZuZOSXcGvRqSVFUB7Ga9MhioRgAMAAic0+Ru1te0gAAA/7jtcwl/EWdW+Ctx3AF0Cy8jla1itk984uVOrw7QcQTAAIBQsJ9sWVXAtIcAgOBRAYw4sqp9TYS/QPyVSr0qlXZWfe+s+fmXnF5Tat8IaUZao1EEwACAwNWqtqESBwD85bTfJfxFHFmtHswKYADdIZ2+YoSoS4GuC+AHAuCAcdUGANZ5CXrt/YEBAO1l3w+z30Wc0ecX6F7FYr/aWeFbS7O5Tzp9peb9/f0HVS6/3tRzo/sQAAMAAABwZIW/tIBAHNnbPwDoDun0qgYHw1GM56UXcS0HDy7o1VdrB8WARAAMAAixodwowzIBwEdO/dclWkAgnjjGABC0VkaFHzw4r2RyXktLz6lczmy6P5kstrJqiJktQa8AAABurR+m8xP0/wUAHxUKhar9LvtgxBnbNwAgCNlstvLhFwJgAEDg6k0CBwAIBvtgxNn41CTV7QCAQNgvuncaATAAIHBMMgQA4WHuj6mQRNzRBgIA4Lcgjq8IgAEAAAA44uIc4mxseISLHACArkAADIRYqbQz6FUAAmc/MeNEDQA6ix7A6BZc4AAQV06TwqG7EQAHiHAPAOrj5AwA/OW032WYPOJoKDdacx4CAADiggAYABAKXk++CIQBoLOc9sdMlIU4GhsekcSxBQAgfKz3pmw2W/loBQEwACBSmDAOAPxj7W+pAEYccTwBIMoWFnKurR5oARF91gX5QqFQ+bA08/5FAAwACDV7JRpDNQGgs5xOKqgARhxxPAEgysrljE6dOu4Y9i4s5HTixKz/KwVfNPP+1TM7O7vWgXWBB6VSr4rFfqXTqx15/nT6isvr+tN72O31/XntzvxO/VQq9apU2qlMZinoVQF8Zw8fCIEBwF/mftbaJxMCI47s1e0cXwCIg1df3am9e69q+3YiP6zbFvQKdLN0elWDg/4HlWEMR0ul3tA9XytBebvC7yBDdMBP9kDXbPNA+AsA/iL8RbehvRSAuLnzTrIEVKMCGAAQOlQAA0B4ZLNZAmDE0tjwSN1jDgAA4oAewACAUHCrvHEKfwEAnWPuZ5kEDnE2PjUpidAXABB/BMAAgFCwt4CwOAW+nKgBQOc47Y+pAEYcjQ2PBL0KAAD4ggAYABA69ap8qQIGgM5x2sdSAYw4Gp+a5OIGAKArEAADAEKnXoUvFcAA4A8mgUM34MIyACDuCIABAKHg1HNScg57OVEDgM5xagFBBTDiajo/wYVlAEDsEQADAEKNHsAAEDwqgBFHhL8AgG5BAAwACIVaJ2BWCEzlLwAAaKdsNsvxBQAg9giAAQChYw+Dre8LhQKVOgDQYU4teWgBgTgyK9s5vgAAxBkBMAAgdKjEAYDgFAqFTfthWkAgroZyoxrKjWp8alISxyAAgHgiAAYAhI5VhTOUG6UiBwACxD4YcTadn9B0fkJjwyMaGx6RxDYPAIgnAmAAQGhN5yeoxAEAn2WzWUIwdA2nincAAOKGABgAEDrWiRhDjgHAf4S/6DaEwACAuCMABgCEjhU+2CcdYqZuAPCHfV/LJHCIOyaaBQDE2bagVwAAAPtwY3sFsBlEOFXpcMIGAJ3FiAzE1fjUpMaGRyqTwE3nJziuAADEDhXAAIDQsIJdswK4VtUZJ2gA0H5OIy2oAEYcDeVGq8LfseERji0AALFEAAwACJQVNDQy6ZC1HO0gAKD9nEZkAHFl38bZ5gEAcUQLCABAoNzCXKcAwh4QU6UDAO1nvzBHIIY4s9qbjA2PsK0DAGKrZ3Z2di3olQAAAAAQTtlslh7AiLXp/ESlHQQAAHFECwgAAAAAm1ANiW5hhb9s8wCAuCIABgAAAFDh1HaHSeAQZ+ZEcAAAxBEBMAAAAABHVhhMCwjE1XR+wnU7H5+aJBgGAMQCATAAAACACqcJNqkARlwN5UarJoIDACCOCIABAAAAVFjVkNlsthIGUwGMbmJV/hIIAwDiggAYAAAAQEWhUGAyLHSV6fxEVZW7GfwSAgMA4oAAGAAAAMAmTAKHbmG2gTB7/tL/FwAQF9uCXgEAAAAAAIIyNjyibDar6fxE5cIHlb8AgDghAAYAAADgiFYQ6AbZbHZTBfDY8EjV1wAARBkBMAAAAABH9ANGN7DCX7MCWCL4BQDEBz2AAQAAAFRYgS/BL7qJPeyl/y8AIE4IgAEAAABUWBWQZvWvVSEJxJHV7sFsA2EFwgTBAIA4IAAGAAAA4MgKg6fzEwGvCdA5Vsg7nZ8g/AUAxBI9gAEAAABUmC0gzH6oQNzZt3d6AAMA4oIKYAAAAAAVhUKB4Bddxwx7x6cmK9W/VAEDAOKACmAAAAAAFVYFMCEwusn41KSm8xMayo1WhcFUAQMA4oAAGAAAAECFGfxaYTDQDbjoAQCIKwJgAAAAAFXMKmBCYMSdVeVL32sAQFzRAxgAAABAhRmCEf4izqbzE5rOT1S+J/wFAMQVATAAAACACqvql8ng0A3YxgEA3YAAGAAAAEAVKoDRjdjeAQBxRQAMAAAAoIrZAxiIq6HcaFXoS89rAEBcEQADAAAAqCAAQ7extnm2fQBAXBEAAwAAAKig9y+6yVBuNOhVAACg4wiAAQAAAFShEhLdYjo/QesHAEDsEQADAAAAqMIkcOhWVL8DAOKIABgAAABAFSaBQzeYzk9UvuaiBwAgzgiAAQAAAABdx+kCBxc9AABxRAAMAAAAoArVkOgG2Wy2KvClFzAAIK4IgAEAAAA4ohoScTaUG60EvtlslvAXABBbBMAAAAAAqpihGAAAAKKNABgAAABAFSp/0U2Y9BAAEHcEwAAAAABqKhQKms5PBL0aQEcQ/AIA4q5ndnZ2LeiVAAAAABBO2WxWQ7nRoFcD8MXY8MimyeEAAIg6KoABAAAAANhA+AsAiBsCYAAAAAAAtF7xzuSHAIC4IQAGAAAAAHS9Rvtcj09NdmhNAABoLwJgAAAAAK7o/4tuMZQbdd3ezbDX+npseMSX9QIAoFUEwAAAAABcNVoVCUSZW6hr3k7wCwCIGgJgAAAAAAC03gOYSeAAAHFDAAwAAADAEZNhoRux3QMA4oYAGAAAAIAjKiHRbQqFAts9ACB2CIABAAAAOKISEt2GbR4AEEcEwAAAAAAcUQkJAAAQfQTAAAAAAACIix4AgHgiAAYAAAAAQLSAAADEEwEwAAAAgCr2EGw6PxHQmgAAAKBVBMAAAAAAqtiHwQ/lRgNaE8BftIAAAMQRATAAAACAmsaGR4JeBQAAADSJABgAAABAFXsLCPqiolt43dbHpyY1PjXZ4bUBAKA9CIABAAAAVLEPg2dYPLqJlxB4bHiEyngAQGRsC3oFAAAAAISLFYAR/KLbsM0DAOKICmAAAAAAmxCEoRvR7gQAEEcEwAAAAACqFAoFqoDRlbxs7/T+BQBEDQEwAAAAgCrZbJbgF13Ja/9fAACihAAYAAAAwCZmEDY+NUnoha7hFgJblb/jU5OVDwAAooBJ4AAAAAAA2DCUG5W0+cLH2PAIF0MAAJFEBTAAAACAKrR/QDezAl570GuFv2YlMAAAUdAzOzu7FvRKAAAAAAgPpx7AhF3oBtP5iUoFsBUAU/ULAIg6WkAAAAAAqFIoFKpCYHvlIxBnTlW+tbZ9wmEAQNhRAQwAAACgijUJllkFTPiLbubU/5fKYABAVFABDAAAAGATaxi8iSpgxN10fsLxwodbJTAhMAAgCgiAAQAAAFSxt34AusVQbrQq5GX7BwDEAQEwAAAAgE0If9GN7BXAXvC/AgAIO3oAAwAAAHDERHCAc/9fAACihApgAEAoOE04ZN1msu6339dotQ4AAICd0yRvXi9+EBADAMKKCmBXVxzjAAAMm0lEQVQAQCjYA2Dze6sCzfxsIvwFAH9Q/Ytu5FYBbA+IAQAIqy1BrwAAALWYw4/tCH4BoHOy2WxV4EvIhW5gbeNjwyOVD3sF8PjU5KaLIVwcAQCEGRXAAIDAmSEvVb4AEB5m6GsFXPQBRrewb+tU+wIAoooewACAwJnhrlPQS/gLAP5yGn1hD4KBOLKHu4S9AIA4oAUEACCUCH0BIBjmCAy3nqdAXDlNQGti+wcARBEVwACAUDJPwGr1AQYAdI498CX8QpxM5yc2HV9M5ycCWhsAADqHCmAAQOgR/gKAf8ye7Fbga12Uo/0DAABA9BAAAwBCr95wTABAexUKhaogGIijodyostks2zgAIPYIgAEAocOJGAAEzwrGGIWBuLLaPQzlRqtu5zgEABA3BMAAgNDwcsLFSRkAdJ4V/BYKhcp+12oJQRsIxI3Z99esfgcAIC4IgAEAoWGdcHHiBQDBMoNfc99snxQOiLKh3Gjlw8KFZgBAHBEAAwBCw6wyM0Ngt68BAJ1hhmDm11QAI06m8xOVDwAA4owAGAAQGm4VwFTjAEBwmAwOcWWv/jWxvQMA4mRb0CsAAIDJqv7lxAsAwoH9MeLKqvxlpBEAIO6oAAYAhIbbbPPmbQQRAOAP62Ic/dkRZ0O5UWWz2ao2VBxrAADihgAYABAq9U66CCAAoPPM8JcwDHE2nZ9QoVDg+AIAEGsEwACAUKl3AkYQAQCdx74W3WAoN8pFDgBAVyAABgCEQq1KM07MAMBftXqijg2P+L06QEdM5yc4xgAAdAUCYABAKNh7TdrvAwD4xwzFzN6oQJwM5UY1lBuVdGv75pgDABBHBMAAgFBi4jcACE6ti3HjU5NUASMWpvMTlR7AFoJgAEAcEQADAELBHvK6hb706gMA/5gjM6x9L+Ev4sKs/iXwBQDEGQEwACBSOEkDAH8UCgUuuqFreL0QDQBAFBEAAwBCg2AXAMLDHoCZ+2jaQCAOpvMTkm5d7AAAIK4IgAEAoVCrysw+Gz1VOQDQWeZ+1q0SeHxq0u/VAtpuKDfKcQUAIPZ6Zmdn14JeCQAA7K0d3CrPaAEBAP6xB8F2hMCIA7MSmEngAKA96h1DwF9UAAMAQqNWBY55QkalDgB0VjabrdkTdXxqkvAXsWSf9BAA0Bza64QLATAAIJTsBwv2NhAAgM6qd+JGD2BE3XR+oqr6VxIVwADQZuxPw4EAGAAQSgwZAoDgWKMtalVBUgGMqBvKjVa+tge/9bZ/AACihAAYABB65gkYJ2MA0HlO/dbt31MBjDiwQmCn1g9cgEZQrAsQHPcCaBcCYABAKNiHGttPuhiSCQD+od86uoXVAoKKdoQF+14AnUAADAAIDbdKX3s4zIExAHSWVQHMvhfdwgqCgaBR7IBu4nRsUWv0J8cizeuZnZ1dC3olAACws7+520MIDo4BwD/2/a5VLTk2PELlJGJhOj+hodxoVRDMsQaCwrEu4qwdIS7/H42jAhgAAADAJvWqbgh/ETf2vtZUmiEohFuII/paB2tb0CsAAEAjqIgAgM4z97VuJ2uEv4gb+zbN8QYAtI85v4D1tTURpxdOrXqYJ8Y7KoABAKFT68owExMBQPu4VeOwr0U3sUIF+gAjbtiPI6zGpyYbCn/ROnoAAwBCqVYPYABA6xodUeHUB5g2EIgDK/itdeGD4xAEyWtxRL2Ld2zHCJq1fTYT/tov0rE9N4YKYABAKPGGjjCjogZx0Er4C8SRdTHDHkyw7SPMzGOSescnHL8gaO3YnxYKBfbLTaAHMAAglDhARRg49RWzbrMCsecHBvRKMqmjp051bB04yEUYsC0irqzAdzo/UdnGx4ZHOBZBaJj9UqfzE3WrJ81l7NuyW9sfwA+N9v012bfTbuv/28pxWDabpQUEACC8aAOBoJjbnlP4a52IFQoFnU8mJUn7yuWOrod9XQA/OZ1k0QICcWMGwEAYNbu/NYfOm8cwXNhDp9mPH1ppASFVt+wJI/v/lNP/mNMyJvv/qHlbKwiAAQChRPAFUHGJ8CAARlxZoa/bhT8gLBqpnBwbHql8PT41Se9UNKVWeOl0EcEeWtqZ97XSA7hbJ6q1RgA0urz1mQAYABBanIwhKs4nkx2tAGb7R9DM4MEKFgh+EQfmUPla4QLVkgialwDYbf9MABxv9fZN9nOqWt/7odnqX2nzttzKOjTzXK2GsE6/f7fjqVrtXry0grEjAAYAhBYBMKLimcOHdVe5rPctLLT1eQkb4Ld6J4H2CmBJVAEjNuwn1G7D5oEgOAXAXi7ImaFTN2+/9Ybi1/r91AtMa4Wq9VqJuQ319/I6QfKyLk5haSvhr8l6Xqce7m6/N6ce2vVCVus5zf8x82dqpCo/6GMlAmAAQCjRAgIA/OWlIsg8MQ36RAboNLeqyW4P0uC/WsPmzWCpViDsVrUY9LbsFsyavPZUDUs4GkVuFapmwFor0O1U0OtFvYscVhuURtapmQpbP56rFQTAAIBQIgBGlLTrhIPtHEGqNfnhUG60qqekhT7AiDt7Wwj20+i0evtikxUsedkPt2vofBx4GcZvLtPp8K7dAaFTaxtp889tr4h1qqoNKjRtlH3EhoXjk1sIgAEAoVFrRlSnEy5OxBAWjQTAbsPTzPuAIDhdeDOrZuwBMC0g0C2cegOzv4a0eUIsL8tb3B5Xa9h/O3unNtsDtV3svVFNTkP2ncLFWvcBqEYADAAIVDsmIeAkDGFgnpzZT0js1RVuPd+AIDkN+TRRAYxuRQAcHu24+O9UYOBUhOB0wbbWRVw/tBoA1wpQ7a/jdp/betV6DrfXB+AfAmAAQKDqTW7gdWZuIEj1gjM7KzBzGq7G5IcIin3fam3L1vZqfraY3xMCI87M7T6sI5DauV71JsTyUvVaa6SL03PYw3W3SbLM5/ISxEatN6xbT1XzvnZzanVAYAvES1cGwFSXIS7acSDDto0g1Qq6nPqcmQjOECaNBsCS++RC1vOxDcNvTtuxPdx1agNBBTDizG1oer0A1OtxetTCyWbVqyR1qjh16ldqcWtNI916D7W3sHGbCKpen1e30Txu6+RU9eqljUGQwrAOADqLANgjTsIQRgTAiAOz2sNe4VHvQNQeAturSNi+4ad6Fy3cmNXtQJDcLmTYAxR7BbC5DBBHtUYhWdzmMPBTrcpRc5lOhJGN9mJt1z6j3uvSIxYA1vX8yq9/IpIBsNOVPq8IgBEXBMCIOnvFrhUsNBKk2fupWs/Ltg0/tTI5iz0Apr8kguJlO3bq8Qh0A7de7ianqmB7ux9p8wUW6zZ7SEloCQBol8gGwEFpJXgG2q0Twy3ZxuEnM2yoVVnmpFb1L+C3dszObe8vKcU/BHbq71jrQo7b8m59wd1mW2+2j2S7tOP17JNR1ZpQs1Zlott9hE5AbW5VttYFbbfH8L8FAAgCAXCDCMcQJgTAiLpWQzNCYATFKahsdXu29r+1wkynsM4tOPWyfK0A0e1xTmqFqwgvt78XARXgzqr+NdufSLWDXwAAgrYl6BUAAKBWr7pahnKjGsqNVoUYhE/ByGazbf3dO/09a91Wa53Mx7ltJ+ay9V7b6TXbUQHsVvXr9DPUWzevy9tvs79mI7/resuEnfW3c/ob1rqt0eWdvnd6Lvtt1v6ukecoFAqbtqdaF8mcXgNAtaHcaFXQa/3fEP4CAMKMCuAGUR2JMKECGGFVqwLRrVKwHVXAbpyGg9dbvtuqGevNzt3q8nHktH20Ep45/T6dfs9mn0irZ7bX5a3XcZptvdZr11rebZb2Wq9jX8bt98HEPa1xe09vdsJCAAAARBMBcIMIxxAmBMAIGy9Dxd3ub3dwFnb1wjX7TN5us3a7hWz1QrV6t3l5XCOPj7ow/YxhWhdED9sPAABA9yEAbhDhGMKEABhRUmuColbDCLcZtN0qKu33uQWvTjNx1wphg+RUXQkAAAAAAAFwgwjHECYEwIgKp2rgdkyaVY85TH58ajIUQS0AAAAAAH7aFvQKAADizd4Wwt6Pt5OBrFvfUQAAAAAAusWWoFcAABAv9mpfM/AtFAoan5qsVK/7EcgS+gIAAAAAuhkBMACgrazAV6qu/pWq25YQzAIAAAAA0HkEwACAtrH3pTZD3kKh4DgpGwAAAAAA6BwmgQMAdIQ1oeD41GTl62w2S+UvAAAAAAA+YhI4AEBHmNXA9spgAAAAAADgD1pAAAB8Q/UvAAAAAAD+IgAGAAAAAAAAgJgiAAYAAAAAAACAmCIABgAAAAAAAICYIgAGAAAAAAAAgJgiAAYAAAAAAACAmCIABgAAAAAAAICY+v8B/eMFR9ldAOIAAAAASUVORK5CYII=;" vertex="1" parent="1">
          <mxGeometry x="130" y="80" width="1408" height="737" as="geometry" />
        </mxCell>
        <mxCell id="JGYHLKv5RpeEDjRzqiRQ-2" value="3 markers on visible sides of rack pillar&lt;div&gt;&lt;br&gt;&lt;/div&gt;&lt;div&gt;Reflective marker pole (since there is no wall/pillar)&lt;/div&gt;&lt;div&gt;&lt;br&gt;&lt;/div&gt;&lt;div&gt;conveyor&lt;/div&gt;&lt;div&gt;&lt;br&gt;&lt;/div&gt;&lt;div&gt;area where customer should not place random objects&lt;/div&gt;&lt;div&gt;&lt;br&gt;&lt;/div&gt;&lt;div&gt;area where cheaper reflection tape can be used&lt;/div&gt;" style="text;html=1;align=left;verticalAlign=middle;whiteSpace=wrap;rounded=0;fillColor=default;movable=1;resizable=1;rotatable=1;deletable=1;editable=1;locked=0;connectable=1;" vertex="1" parent="1">
          <mxGeometry x="186" y="80" width="340" height="143" as="geometry" />
        </mxCell>
        <mxCell id="JGYHLKv5RpeEDjRzqiRQ-3" value="&lt;div&gt;&lt;br&gt;&lt;/div&gt;" style="text;html=1;align=left;verticalAlign=middle;whiteSpace=wrap;rounded=0;fillColor=default;movable=1;resizable=1;rotatable=1;deletable=1;editable=1;locked=0;connectable=1;" vertex="1" parent="1">
          <mxGeometry x="130" y="80" width="56" height="143" as="geometry" />
        </mxCell>
        <mxCell id="JGYHLKv5RpeEDjRzqiRQ-4" value="" style="ellipse;whiteSpace=wrap;html=1;fillColor=#FF54DD;fontColor=#ffffff;strokeColor=#140000;strokeWidth=2;movable=1;resizable=1;rotatable=1;deletable=1;editable=1;locked=0;connectable=1;" vertex="1" parent="1">
          <mxGeometry x="172" y="90" width="10" height="10" as="geometry" />
        </mxCell>
        <mxCell id="JGYHLKv5RpeEDjRzqiRQ-5" value="" style="ellipse;whiteSpace=wrap;html=1;fillColor=#6a00ff;fontColor=#ffffff;strokeColor=#000000;strokeWidth=2;movable=1;resizable=1;rotatable=1;deletable=1;editable=1;locked=0;connectable=1;" vertex="1" parent="1">
          <mxGeometry x="172" y="119" width="10" height="10" as="geometry" />
        </mxCell>
        <mxCell id="JGYHLKv5RpeEDjRzqiRQ-6" value="" style="ellipse;whiteSpace=wrap;html=1;fillColor=#1ba1e2;fontColor=#ffffff;strokeColor=#140000;strokeWidth=2;movable=1;resizable=1;rotatable=1;deletable=1;editable=1;locked=0;connectable=1;" vertex="1" parent="1">
          <mxGeometry x="173" y="147" width="10" height="10" as="geometry" />
        </mxCell>
        <mxCell id="JGYHLKv5RpeEDjRzqiRQ-7" value="" style="rounded=1;whiteSpace=wrap;html=1;fillStyle=zigzag-line;fillColor=#57FFB0;strokeColor=none;movable=1;resizable=1;rotatable=1;deletable=1;editable=1;locked=0;connectable=1;" vertex="1" parent="1">
          <mxGeometry x="142" y="172.5" width="43" height="24.5" as="geometry" />
        </mxCell>
        <mxCell id="JGYHLKv5RpeEDjRzqiRQ-8" value="" style="rounded=1;whiteSpace=wrap;html=1;fillColor=none;strokeColor=#0000CC;movable=1;resizable=1;rotatable=1;deletable=1;editable=1;locked=0;connectable=1;" vertex="1" parent="1">
          <mxGeometry x="142" y="206" width="40" height="10" as="geometry" />
        </mxCell>
      </root>
    </mxGraphModel>
  </diagram>
</mxfile>
